<svg width="1265" height="168" viewBox="0 0 1265 168" fill="none" xmlns="http://www.w3.org/2000/svg">
<mask id="path-1-outside-1_1_36" maskUnits="userSpaceOnUse" x="-1" y="14" width="940" height="149" fill="black">
<rect fill="white" x="-1" y="14" width="940" height="149"/>
<path d="M3.8 157L46.93 20.2H80.465L123.595 157H100.035L60.895 34.26H66.025L27.36 157H3.8ZM27.835 127.36V105.985H99.655V127.36H27.835ZM142.671 157V20.2H196.916C206.162 20.2 213.731 22.0683 219.621 25.805C225.574 29.4783 229.976 34.1967 232.826 39.96C235.739 45.7233 237.196 51.6767 237.196 57.82C237.196 65.3567 235.391 71.7533 231.781 77.01C228.234 82.2667 223.389 85.8133 217.246 87.65V82.9C225.859 84.8633 232.382 88.9483 236.816 95.155C241.312 101.362 243.561 108.423 243.561 116.34C243.561 124.447 242.009 131.54 238.906 137.62C235.802 143.7 231.179 148.45 225.036 151.87C218.956 155.29 211.419 157 202.426 157H142.671ZM165.851 135.435H199.576C203.566 135.435 207.144 134.643 210.311 133.06C213.477 131.413 215.947 129.133 217.721 126.22C219.557 123.243 220.476 119.728 220.476 115.675C220.476 112.002 219.684 108.708 218.101 105.795C216.517 102.882 214.206 100.57 211.166 98.86C208.126 97.0867 204.484 96.2 200.241 96.2H165.851V135.435ZM165.851 74.825H196.631C199.924 74.825 202.869 74.1917 205.466 72.925C208.062 71.6583 210.121 69.79 211.641 67.32C213.161 64.85 213.921 61.81 213.921 58.2C213.921 53.45 212.401 49.4917 209.361 46.325C206.321 43.1583 202.077 41.575 196.631 41.575H165.851V74.825ZM322.289 159.85C308.609 159.85 296.892 156.873 287.139 150.92C277.386 144.903 269.881 136.543 264.624 125.84C259.431 115.137 256.834 102.723 256.834 88.6C256.834 74.4767 259.431 62.0633 264.624 51.36C269.881 40.6567 277.386 32.3283 287.139 26.375C296.892 20.3583 308.609 17.35 322.289 17.35C335.969 17.35 347.686 20.3583 357.439 26.375C367.256 32.3283 374.761 40.6567 379.954 51.36C385.211 62.0633 387.839 74.4767 387.839 88.6C387.839 102.723 385.211 115.137 379.954 125.84C374.761 136.543 367.256 144.903 357.439 150.92C347.686 156.873 335.969 159.85 322.289 159.85ZM322.289 138.285C331.472 138.348 339.104 136.322 345.184 132.205C351.327 128.088 355.919 122.293 358.959 114.82C362.062 107.347 363.614 98.6067 363.614 88.6C363.614 78.5933 362.062 69.9167 358.959 62.57C355.919 55.16 351.327 49.3967 345.184 45.28C339.104 41.1633 331.472 39.0417 322.289 38.915C313.106 38.8517 305.474 40.8783 299.394 44.995C293.314 49.1117 288.722 54.9067 285.619 62.38C282.579 69.8533 281.059 78.5933 281.059 88.6C281.059 98.6067 282.579 107.315 285.619 114.725C288.659 122.072 293.219 127.803 299.299 131.92C305.442 136.037 313.106 138.158 322.289 138.285ZM463.748 159.85C452.855 159.85 443.26 157.633 434.963 153.2C426.73 148.767 420.27 142.528 415.583 134.485C410.96 126.442 408.648 117.005 408.648 106.175V20.39L431.828 20.2V105.605C431.828 110.735 432.683 115.327 434.393 119.38C436.167 123.433 438.542 126.885 441.518 129.735C444.495 132.522 447.915 134.643 451.778 136.1C455.642 137.557 459.632 138.285 463.748 138.285C467.992 138.285 472.013 137.557 475.813 136.1C479.677 134.58 483.097 132.427 486.073 129.64C489.05 126.79 491.393 123.338 493.103 119.285C494.813 115.232 495.668 110.672 495.668 105.605V20.2H518.848V106.175C518.848 117.005 516.505 126.442 511.818 134.485C507.195 142.528 500.735 148.767 492.438 153.2C484.205 157.633 474.642 159.85 463.748 159.85ZM580.166 157V41.67H535.896V20.2H647.331V41.67H603.061V157H580.166ZM753.706 159.85C742.813 159.85 733.218 157.633 724.921 153.2C716.688 148.767 710.228 142.528 705.541 134.485C700.918 126.442 698.606 117.005 698.606 106.175V20.39L721.786 20.2V105.605C721.786 110.735 722.641 115.327 724.351 119.38C726.125 123.433 728.5 126.885 731.476 129.735C734.453 132.522 737.873 134.643 741.736 136.1C745.6 137.557 749.59 138.285 753.706 138.285C757.95 138.285 761.971 137.557 765.771 136.1C769.635 134.58 773.055 132.427 776.031 129.64C779.008 126.79 781.351 123.338 783.061 119.285C784.771 115.232 785.626 110.672 785.626 105.605V20.2H808.806V106.175C808.806 117.005 806.463 126.442 801.776 134.485C797.153 142.528 790.693 148.767 782.396 153.2C774.163 157.633 764.6 159.85 753.706 159.85ZM882.137 159.85C872.131 159.85 863.106 158.108 855.062 154.625C847.082 151.142 840.496 146.17 835.302 139.71C830.172 133.187 826.911 125.46 825.517 116.53L849.267 112.92C851.294 121.027 855.442 127.297 861.712 131.73C868.046 136.163 875.329 138.38 883.562 138.38C888.439 138.38 893.031 137.62 897.337 136.1C901.644 134.58 905.127 132.363 907.787 129.45C910.511 126.537 911.872 122.958 911.872 118.715C911.872 116.815 911.556 115.073 910.922 113.49C910.289 111.843 909.339 110.387 908.072 109.12C906.869 107.853 905.286 106.713 903.322 105.7C901.422 104.623 899.206 103.705 896.672 102.945L861.332 92.495C858.292 91.6083 854.999 90.4367 851.452 88.98C847.969 87.46 844.644 85.4017 841.477 82.805C838.374 80.145 835.809 76.7883 833.782 72.735C831.819 68.6183 830.837 63.5517 830.837 57.535C830.837 48.7317 833.054 41.3533 837.487 35.4C841.984 29.3833 848.001 24.8867 855.537 21.91C863.137 18.9333 871.561 17.4767 880.807 17.54C890.181 17.6033 898.541 19.2183 905.887 22.385C913.234 25.4883 919.377 30.0167 924.317 35.97C929.257 41.9233 932.741 49.1117 934.767 57.535L910.162 61.81C909.149 56.9967 907.186 52.9117 904.272 49.555C901.422 46.135 897.907 43.5383 893.727 41.765C889.611 39.9917 885.209 39.0417 880.522 38.915C875.962 38.8517 871.719 39.5483 867.792 41.005C863.929 42.3983 860.794 44.425 858.387 47.085C856.044 49.745 854.872 52.8483 854.872 56.395C854.872 59.7517 855.886 62.5067 857.912 64.66C859.939 66.75 862.441 68.4283 865.417 69.695C868.457 70.8983 871.529 71.9117 874.632 72.735L899.142 79.575C902.499 80.4617 906.267 81.665 910.447 83.185C914.627 84.705 918.649 86.8267 922.512 89.55C926.376 92.2733 929.542 95.8517 932.012 100.285C934.546 104.718 935.812 110.355 935.812 117.195C935.812 124.288 934.324 130.527 931.347 135.91C928.434 141.23 924.476 145.663 919.472 149.21C914.469 152.757 908.737 155.417 902.277 157.19C895.881 158.963 889.167 159.85 882.137 159.85Z"/>
</mask>
<path d="M3.8 157L0.938832 156.098L-0.291401 160H3.8V157ZM46.93 20.2V17.2H44.7303L44.0688 19.2979L46.93 20.2ZM80.465 20.2L83.3262 19.2979L82.6647 17.2H80.465V20.2ZM123.595 157V160H127.686L126.456 156.098L123.595 157ZM100.035 157L97.1768 157.911L97.8428 160H100.035V157ZM60.895 34.26V31.26H56.7895L58.0368 35.1714L60.895 34.26ZM66.025 34.26L68.8864 35.1614L70.1154 31.26H66.025V34.26ZM27.36 157V160H29.5603L30.2214 157.901L27.36 157ZM27.835 127.36H24.835V130.36H27.835V127.36ZM27.835 105.985V102.985H24.835V105.985H27.835ZM99.655 105.985H102.655V102.985H99.655V105.985ZM99.655 127.36V130.36H102.655V127.36H99.655ZM6.66117 157.902L49.7912 21.1021L44.0688 19.2979L0.938832 156.098L6.66117 157.902ZM46.93 23.2H80.465V17.2H46.93V23.2ZM77.6038 21.1021L120.734 157.902L126.456 156.098L83.3262 19.2979L77.6038 21.1021ZM123.595 154H100.035V160H123.595V154ZM102.893 156.089L63.7532 33.3486L58.0368 35.1714L97.1768 157.911L102.893 156.089ZM60.895 37.26H66.025V31.26H60.895V37.26ZM63.1636 33.3586L24.4986 156.099L30.2214 157.901L68.8864 35.1614L63.1636 33.3586ZM27.36 154H3.8V160H27.36V154ZM30.835 127.36V105.985H24.835V127.36H30.835ZM27.835 108.985H99.655V102.985H27.835V108.985ZM96.655 105.985V127.36H102.655V105.985H96.655ZM99.655 124.36H27.835V130.36H99.655V124.36ZM142.671 157H139.671V160H142.671V157ZM142.671 20.2V17.2H139.671V20.2H142.671ZM219.621 25.805L218.014 28.3382L218.029 28.3483L218.045 28.3581L219.621 25.805ZM232.826 39.96L230.137 41.2898L230.142 41.3016L230.148 41.3134L232.826 39.96ZM231.781 77.01L229.308 75.3117L229.301 75.3219L229.294 75.3321L231.781 77.01ZM217.246 87.65H214.246V91.6781L218.105 90.5243L217.246 87.65ZM217.246 82.9L217.912 79.975L214.246 79.1392V82.9H217.246ZM236.816 95.155L234.374 96.8987L234.38 96.9069L234.386 96.9151L236.816 95.155ZM238.906 137.62L236.234 136.256L238.906 137.62ZM225.036 151.87L223.576 149.249L223.565 149.255L225.036 151.87ZM165.851 135.435H162.851V138.435H165.851V135.435ZM210.311 133.06L211.652 135.743L211.674 135.733L211.695 135.722L210.311 133.06ZM217.721 126.22L215.168 124.645L215.163 124.652L215.158 124.66L217.721 126.22ZM218.101 105.795L215.465 107.228L218.101 105.795ZM211.166 98.86L209.654 101.451L209.674 101.463L209.695 101.475L211.166 98.86ZM165.851 96.2V93.2H162.851V96.2H165.851ZM165.851 74.825H162.851V77.825H165.851V74.825ZM211.641 67.32L209.086 65.7477L211.641 67.32ZM209.361 46.325L211.525 44.2474L211.525 44.2474L209.361 46.325ZM165.851 41.575V38.575H162.851V41.575H165.851ZM145.671 157V20.2H139.671V157H145.671ZM142.671 23.2H196.916V17.2H142.671V23.2ZM196.916 23.2C205.774 23.2 212.737 24.9908 218.014 28.3382L221.228 23.2718C214.724 19.1459 206.55 17.2 196.916 17.2V23.2ZM218.045 28.3581C223.564 31.7631 227.558 36.0747 230.137 41.2898L235.515 38.6302C232.394 32.3186 227.584 27.1935 221.196 23.2519L218.045 28.3581ZM230.148 41.3134C232.861 46.6792 234.196 52.171 234.196 57.82H240.196C240.196 51.1823 238.617 44.7674 235.503 38.6066L230.148 41.3134ZM234.196 57.82C234.196 64.8631 232.516 70.6404 229.308 75.3117L234.254 78.7083C238.266 72.8663 240.196 65.8502 240.196 57.82H234.196ZM229.294 75.3321C226.14 80.0068 221.873 83.1353 216.386 84.7757L218.105 90.5243C224.905 88.4914 230.328 84.5265 234.268 78.6879L229.294 75.3321ZM220.246 87.65V82.9H214.246V87.65H220.246ZM216.579 85.825C224.597 87.6525 230.435 91.3832 234.374 96.8987L239.257 93.4113C234.33 86.5135 227.121 82.0741 217.912 79.975L216.579 85.825ZM234.386 96.9151C238.499 102.592 240.561 109.033 240.561 116.34H246.561C246.561 107.813 244.126 100.131 239.245 93.3949L234.386 96.9151ZM240.561 116.34C240.561 124.061 239.085 130.671 236.234 136.256L241.578 138.984C244.934 132.409 246.561 124.832 246.561 116.34H240.561ZM236.234 136.256C233.409 141.789 229.216 146.109 223.576 149.249L226.495 154.491C233.142 150.791 238.195 145.611 241.578 138.984L236.234 136.256ZM223.565 149.255C218.046 152.36 211.049 154 202.426 154V160C211.789 160 219.866 158.22 226.506 154.485L223.565 149.255ZM202.426 154H142.671V160H202.426V154ZM165.851 138.435H199.576V132.435H165.851V138.435ZM199.576 138.435C203.972 138.435 208.019 137.56 211.652 135.743L208.969 130.377C206.269 131.727 203.16 132.435 199.576 132.435V138.435ZM211.695 135.722C215.324 133.835 218.212 131.183 220.283 127.78L215.158 124.66C213.683 127.083 211.631 128.992 208.927 130.398L211.695 135.722ZM220.274 127.795C222.447 124.274 223.476 120.195 223.476 115.675H217.476C217.476 119.262 216.668 122.213 215.168 124.645L220.274 127.795ZM223.476 115.675C223.476 111.556 222.584 107.761 220.737 104.362L215.465 107.228C216.784 109.655 217.476 112.447 217.476 115.675H223.476ZM220.737 104.362C218.869 100.927 216.142 98.2169 212.636 96.2453L209.695 101.475C212.27 102.923 214.165 104.836 215.465 107.228L220.737 104.362ZM212.677 96.2687C209.092 94.1775 204.906 93.2 200.241 93.2V99.2C204.062 99.2 207.159 99.9958 209.654 101.451L212.677 96.2687ZM200.241 93.2H165.851V99.2H200.241V93.2ZM162.851 96.2V135.435H168.851V96.2H162.851ZM165.851 77.825H196.631V71.825H165.851V77.825ZM196.631 77.825C200.316 77.825 203.721 77.1141 206.781 75.6213L204.15 70.2287C202.017 71.2692 199.532 71.825 196.631 71.825V77.825ZM206.781 75.6213C209.891 74.1041 212.379 71.845 214.196 68.8923L209.086 65.7477C207.863 67.735 206.234 69.2125 204.15 70.2287L206.781 75.6213ZM214.196 68.8923C216.07 65.8462 216.921 62.23 216.921 58.2H210.921C210.921 61.39 210.251 63.8538 209.086 65.7477L214.196 68.8923ZM216.921 58.2C216.921 52.7453 215.148 48.0211 211.525 44.2474L207.197 48.4026C209.654 50.9622 210.921 54.1547 210.921 58.2H216.921ZM211.525 44.2474C207.789 40.3556 202.685 38.575 196.631 38.575V44.575C201.47 44.575 204.853 45.961 207.197 48.4026L211.525 44.2474ZM196.631 38.575H165.851V44.575H196.631V38.575ZM162.851 41.575V74.825H168.851V41.575H162.851ZM287.139 150.92L285.564 153.473L285.57 153.477L285.576 153.481L287.139 150.92ZM264.624 125.84L261.925 127.15L261.928 127.156L261.931 127.162L264.624 125.84ZM264.624 51.36L261.931 50.0375L261.928 50.0439L261.925 50.0504L264.624 51.36ZM287.139 26.375L288.702 28.9357L288.708 28.932L288.714 28.9283L287.139 26.375ZM357.439 26.375L355.864 28.9283L355.874 28.9342L355.883 28.9401L357.439 26.375ZM379.954 51.36L377.255 52.6696L377.258 52.676L377.261 52.6825L379.954 51.36ZM379.954 125.84L377.261 124.518L377.258 124.524L377.255 124.53L379.954 125.84ZM357.439 150.92L359.002 153.481L359.007 153.478L357.439 150.92ZM322.289 138.285L322.248 141.285L322.258 141.285L322.268 141.285L322.289 138.285ZM345.184 132.205L343.514 129.713L343.508 129.717L343.502 129.721L345.184 132.205ZM358.959 114.82L356.188 113.669L356.184 113.68L356.18 113.69L358.959 114.82ZM358.959 62.57L356.184 63.7087L356.189 63.723L356.195 63.7374L358.959 62.57ZM345.184 45.28L343.502 47.7641L343.508 47.7682L343.514 47.7722L345.184 45.28ZM322.289 38.915L322.33 35.9153L322.32 35.9151L322.31 35.9151L322.289 38.915ZM299.394 44.995L301.076 47.4791L299.394 44.995ZM285.619 62.38L282.848 61.2295L282.844 61.2395L282.84 61.2496L285.619 62.38ZM285.619 114.725L282.843 115.864L282.847 115.872L285.619 114.725ZM299.299 131.92L297.617 134.404L297.623 134.408L297.629 134.412L299.299 131.92ZM322.289 156.85C309.051 156.85 297.899 153.973 288.702 148.359L285.576 153.481C295.885 159.773 308.167 162.85 322.289 162.85V156.85ZM288.714 148.367C279.462 142.659 272.335 134.735 267.317 124.518L261.931 127.162C267.426 138.352 275.309 147.147 285.564 153.473L288.714 148.367ZM267.323 124.53C262.361 114.305 259.834 102.354 259.834 88.6H253.834C253.834 103.093 256.5 115.969 261.925 127.15L267.323 124.53ZM259.834 88.6C259.834 74.8462 262.361 62.8953 267.323 52.6696L261.925 50.0504C256.5 61.2314 253.834 74.1071 253.834 88.6H259.834ZM267.317 52.6825C272.334 42.4674 279.457 34.5787 288.702 28.9357L285.576 23.8143C275.314 30.078 267.428 38.8459 261.931 50.0375L267.317 52.6825ZM288.714 28.9283C297.909 23.2559 309.057 20.35 322.289 20.35V14.35C308.161 14.35 295.875 17.4608 285.564 23.8217L288.714 28.9283ZM322.289 20.35C335.521 20.35 346.669 23.2559 355.864 28.9283L359.014 23.8217C348.703 17.4608 336.417 14.35 322.289 14.35V20.35ZM355.883 28.9401C365.187 34.5826 372.304 42.4663 377.255 52.6696L382.653 50.0504C377.217 38.847 369.324 30.0741 358.995 23.8098L355.883 28.9401ZM377.261 52.6825C382.282 62.905 384.839 74.8513 384.839 88.6H390.839C390.839 74.1021 388.14 61.2216 382.647 50.0375L377.261 52.6825ZM384.839 88.6C384.839 102.349 382.282 114.295 377.261 124.518L382.647 127.162C388.14 115.978 390.839 103.098 390.839 88.6H384.839ZM377.255 124.53C372.303 134.736 365.182 142.655 355.871 148.362L359.007 153.478C369.329 147.151 377.218 138.35 382.653 127.15L377.255 124.53ZM355.876 148.359C346.679 153.973 335.527 156.85 322.289 156.85V162.85C336.411 162.85 348.693 159.773 359.002 153.481L355.876 148.359ZM322.268 141.285C331.905 141.351 340.17 139.223 346.866 134.689L343.502 129.721C338.038 133.421 331.039 135.345 322.31 135.285L322.268 141.285ZM346.854 134.697C353.54 130.217 358.494 123.925 361.738 115.95L356.18 113.69C353.344 120.661 349.115 125.96 343.514 129.713L346.854 134.697ZM361.73 115.971C365.016 108.057 366.614 98.911 366.614 88.6H360.614C360.614 98.3024 359.109 106.636 356.188 113.669L361.73 115.971ZM366.614 88.6C366.614 78.291 365.016 69.1999 361.723 61.4026L356.195 63.7374C359.108 70.6335 360.614 78.8957 360.614 88.6H366.614ZM361.734 61.4313C358.488 53.5183 353.533 47.2636 346.854 42.7878L343.514 47.7722C349.121 51.5297 353.35 56.8017 356.184 63.7087L361.734 61.4313ZM346.866 42.7959C340.192 38.2773 331.952 36.048 322.33 35.9153L322.248 41.9147C330.992 42.0353 338.016 44.0494 343.502 47.7641L346.866 42.7959ZM322.31 35.9151C312.673 35.8486 304.408 37.9774 297.712 42.5109L301.076 47.4791C306.54 43.7793 313.539 41.8547 322.268 41.9149L322.31 35.9151ZM297.712 42.5109C291.098 46.9894 286.153 53.2722 282.848 61.2295L288.39 63.5305C291.292 56.5411 295.53 51.2339 301.076 47.4791L297.712 42.5109ZM282.84 61.2496C279.624 69.1569 278.059 78.2959 278.059 88.6H284.059C284.059 78.8908 285.534 70.5498 288.398 63.5104L282.84 61.2496ZM278.059 88.6C278.059 98.9032 279.623 108.014 282.843 115.864L288.395 113.586C285.535 106.616 284.059 98.3101 284.059 88.6H278.059ZM282.847 115.872C286.092 123.715 291.01 129.931 297.617 134.404L300.981 129.436C295.428 125.676 291.226 120.429 288.391 113.578L282.847 115.872ZM297.629 134.412C304.359 138.922 312.624 141.152 322.248 141.285L322.33 135.285C313.587 135.165 306.525 133.151 300.969 129.428L297.629 134.412ZM434.963 153.2L433.541 155.841L433.55 155.846L434.963 153.2ZM415.583 134.485L412.983 135.98L412.987 135.988L412.991 135.995L415.583 134.485ZM408.648 20.39L408.624 17.3901L405.648 17.4145V20.39H408.648ZM431.828 20.2H434.828V17.1753L431.804 17.2001L431.828 20.2ZM434.393 119.38L431.629 120.546L431.637 120.564L431.645 120.582L434.393 119.38ZM441.518 129.735L439.444 131.902L439.456 131.914L439.468 131.925L441.518 129.735ZM475.813 136.1L476.887 138.901L476.9 138.897L476.912 138.892L475.813 136.1ZM486.073 129.64L488.124 131.83L488.136 131.819L488.148 131.807L486.073 129.64ZM495.668 20.2V17.2H492.668V20.2H495.668ZM518.848 20.2H521.848V17.2H518.848V20.2ZM511.818 134.485L509.226 132.975L509.222 132.982L509.218 132.99L511.818 134.485ZM492.438 153.2L491.025 150.554L491.016 150.559L492.438 153.2ZM463.748 156.85C453.27 156.85 444.175 154.721 436.377 150.554L433.55 155.846C442.346 160.546 452.44 162.85 463.748 162.85V156.85ZM436.386 150.559C428.637 146.386 422.583 140.538 418.176 132.975L412.991 135.995C417.958 144.519 424.823 151.147 433.541 155.841L436.386 150.559ZM418.184 132.99C413.863 125.473 411.648 116.569 411.648 106.175H405.648C405.648 117.441 408.057 127.411 412.983 135.98L418.184 132.99ZM411.648 106.175V20.39H405.648V106.175H411.648ZM408.673 23.3899L431.853 23.1999L431.804 17.2001L408.624 17.3901L408.673 23.3899ZM428.828 20.2V105.605H434.828V20.2H428.828ZM428.828 105.605C428.828 111.07 429.74 116.068 431.629 120.546L437.158 118.214C435.627 114.586 434.828 110.4 434.828 105.605H428.828ZM431.645 120.582C433.565 124.972 436.16 128.758 439.444 131.902L443.593 127.568C440.923 125.012 438.768 121.895 437.142 118.178L431.645 120.582ZM439.468 131.925C442.736 134.984 446.494 137.314 450.72 138.907L452.837 133.293C449.337 131.973 446.255 130.059 443.569 127.545L439.468 131.925ZM450.72 138.907C454.921 140.491 459.269 141.285 463.748 141.285V135.285C459.994 135.285 456.363 134.622 452.837 133.293L450.72 138.907ZM463.748 141.285C468.343 141.285 472.73 140.495 476.887 138.901L474.74 133.299C471.297 134.618 467.641 135.285 463.748 135.285V141.285ZM476.912 138.892C481.121 137.236 484.865 134.88 488.124 131.83L484.023 127.45C481.328 129.973 478.233 131.924 474.715 133.308L476.912 138.892ZM488.148 131.807C491.44 128.655 494.009 124.856 495.868 120.451L490.339 118.119C488.778 121.821 486.66 124.925 483.999 127.473L488.148 131.807ZM495.868 120.451C497.755 115.977 498.668 111.012 498.668 105.605H492.668C492.668 110.331 491.872 114.486 490.339 118.119L495.868 120.451ZM498.668 105.605V20.2H492.668V105.605H498.668ZM495.668 23.2H518.848V17.2H495.668V23.2ZM515.848 20.2V106.175H521.848V20.2H515.848ZM515.848 106.175C515.848 116.562 513.605 125.46 509.226 132.975L514.411 135.995C519.405 127.423 521.848 117.448 521.848 106.175H515.848ZM509.218 132.99C504.878 140.539 498.833 146.382 491.025 150.554L493.852 155.846C502.637 151.152 509.512 144.518 514.419 135.98L509.218 132.99ZM491.016 150.559C483.287 154.72 474.228 156.85 463.748 156.85V162.85C475.056 162.85 485.123 160.546 493.861 155.841L491.016 150.559ZM580.166 157H577.166V160H580.166V157ZM580.166 41.67H583.166V38.67H580.166V41.67ZM535.896 41.67H532.896V44.67H535.896V41.67ZM535.896 20.2V17.2H532.896V20.2H535.896ZM647.331 20.2H650.331V17.2H647.331V20.2ZM647.331 41.67V44.67H650.331V41.67H647.331ZM603.061 41.67V38.67H600.061V41.67H603.061ZM603.061 157V160H606.061V157H603.061ZM583.166 157V41.67H577.166V157H583.166ZM580.166 38.67H535.896V44.67H580.166V38.67ZM538.896 41.67V20.2H532.896V41.67H538.896ZM535.896 23.2H647.331V17.2H535.896V23.2ZM644.331 20.2V41.67H650.331V20.2H644.331ZM647.331 38.67H603.061V44.67H647.331V38.67ZM600.061 41.67V157H606.061V41.67H600.061ZM603.061 154H580.166V160H603.061V154ZM724.921 153.2L723.499 155.841L723.507 155.846L724.921 153.2ZM705.541 134.485L702.94 135.98L702.945 135.988L702.949 135.995L705.541 134.485ZM698.606 20.39L698.582 17.3901L695.606 17.4145V20.39H698.606ZM721.786 20.2H724.786V17.1753L721.762 17.2001L721.786 20.2ZM724.351 119.38L721.587 120.546L721.595 120.564L721.603 120.582L724.351 119.38ZM731.476 129.735L729.402 131.902L729.414 131.914L729.426 131.925L731.476 129.735ZM765.771 136.1L766.845 138.901L766.857 138.897L766.87 138.892L765.771 136.1ZM776.031 129.64L778.082 131.83L778.094 131.819L778.106 131.807L776.031 129.64ZM785.626 20.2V17.2H782.626V20.2H785.626ZM808.806 20.2H811.806V17.2H808.806V20.2ZM801.776 134.485L799.184 132.975L799.18 132.982L799.175 132.99L801.776 134.485ZM782.396 153.2L780.982 150.554L780.974 150.559L782.396 153.2ZM753.706 156.85C743.228 156.85 734.133 154.721 726.335 150.554L723.507 155.846C732.303 160.546 742.398 162.85 753.706 162.85V156.85ZM726.344 150.559C718.595 146.386 712.54 140.538 708.133 132.975L702.949 135.995C707.915 144.519 714.781 151.147 723.499 155.841L726.344 150.559ZM708.142 132.99C703.821 125.473 701.606 116.569 701.606 106.175H695.606C695.606 117.441 698.015 127.411 702.94 135.98L708.142 132.99ZM701.606 106.175V20.39H695.606V106.175H701.606ZM698.631 23.3899L721.811 23.1999L721.762 17.2001L698.582 17.3901L698.631 23.3899ZM718.786 20.2V105.605H724.786V20.2H718.786ZM718.786 105.605C718.786 111.07 719.698 116.068 721.587 120.546L727.115 118.214C725.585 114.586 724.786 110.4 724.786 105.605H718.786ZM721.603 120.582C723.523 124.972 726.118 128.758 729.402 131.902L733.551 127.568C730.881 125.012 728.726 121.895 727.1 118.178L721.603 120.582ZM729.426 131.925C732.693 134.984 736.451 137.314 740.678 138.907L742.795 133.293C739.294 131.973 736.213 130.059 733.527 127.545L729.426 131.925ZM740.678 138.907C744.878 140.491 749.227 141.285 753.706 141.285V135.285C749.952 135.285 746.321 134.622 742.795 133.293L740.678 138.907ZM753.706 141.285C758.301 141.285 762.688 140.495 766.845 138.901L764.697 133.299C761.255 134.618 757.598 135.285 753.706 135.285V141.285ZM766.87 138.892C771.079 137.236 774.823 134.88 778.082 131.83L773.981 127.45C771.286 129.973 768.19 131.924 764.673 133.308L766.87 138.892ZM778.106 131.807C781.398 128.655 783.967 124.856 785.825 120.451L780.297 118.119C778.735 121.821 776.618 124.925 773.957 127.473L778.106 131.807ZM785.825 120.451C787.713 115.977 788.626 111.012 788.626 105.605H782.626C782.626 110.331 781.83 114.486 780.297 118.119L785.825 120.451ZM788.626 105.605V20.2H782.626V105.605H788.626ZM785.626 23.2H808.806V17.2H785.626V23.2ZM805.806 20.2V106.175H811.806V20.2H805.806ZM805.806 106.175C805.806 116.562 803.563 125.46 799.184 132.975L804.368 135.995C809.363 127.423 811.806 117.448 811.806 106.175H805.806ZM799.175 132.99C794.836 140.539 788.791 146.382 780.982 150.554L783.81 155.846C792.595 151.152 799.47 144.518 804.377 135.98L799.175 132.99ZM780.974 150.559C773.245 154.72 764.185 156.85 753.706 156.85V162.85C765.014 162.85 775.081 160.546 783.819 155.841L780.974 150.559ZM855.062 154.625L853.862 157.374L853.87 157.378L855.062 154.625ZM835.302 139.71L832.944 141.564L832.954 141.577L832.964 141.59L835.302 139.71ZM825.517 116.53L825.067 113.564L822.089 114.017L822.553 116.992L825.517 116.53ZM849.267 112.92L852.178 112.192L851.516 109.544L848.817 109.954L849.267 112.92ZM861.712 131.73L859.98 134.18L859.986 134.184L859.992 134.188L861.712 131.73ZM897.337 136.1L898.336 138.929L897.337 136.1ZM907.787 129.45L905.596 127.401L905.584 127.414L905.572 127.427L907.787 129.45ZM910.922 113.49L908.122 114.567L908.129 114.586L908.137 114.604L910.922 113.49ZM908.072 109.12L905.897 111.186L905.924 111.214L905.951 111.241L908.072 109.12ZM903.322 105.7L901.843 108.31L901.894 108.339L901.946 108.366L903.322 105.7ZM896.672 102.945L897.534 100.071L897.523 100.068L896.672 102.945ZM861.332 92.495L862.183 89.6181L862.172 89.615L861.332 92.495ZM851.452 88.98L850.253 91.7296L850.282 91.7427L850.313 91.7551L851.452 88.98ZM841.477 82.805L839.525 85.0828L839.55 85.1041L839.575 85.1248L841.477 82.805ZM833.782 72.735L831.075 74.0264L831.087 74.0516L831.099 74.0766L833.782 72.735ZM837.487 35.4L835.084 33.604L835.081 33.6082L837.487 35.4ZM855.537 21.91L854.443 19.1166L854.435 19.1197L855.537 21.91ZM880.807 17.54L880.787 20.5399L880.787 20.5399L880.807 17.54ZM905.887 22.385L904.7 25.14L904.71 25.1443L904.72 25.1486L905.887 22.385ZM924.317 35.97L926.626 34.0543V34.0543L924.317 35.97ZM934.767 57.535L935.281 60.4907L938.432 59.9432L937.684 56.8332L934.767 57.535ZM910.162 61.81L907.227 62.428L907.823 65.2614L910.676 64.7657L910.162 61.81ZM904.272 49.555L901.968 51.4755L901.987 51.4987L902.007 51.5214L904.272 49.555ZM893.727 41.765L892.54 44.5202L892.548 44.5235L892.556 44.5267L893.727 41.765ZM880.522 38.915L880.603 35.9161L880.584 35.9156L880.564 35.9153L880.522 38.915ZM867.792 41.005L868.81 43.8271L868.823 43.8224L868.836 43.8177L867.792 41.005ZM858.387 47.085L856.163 45.0723L856.149 45.087L856.136 45.1019L858.387 47.085ZM857.912 64.66L855.728 66.7161L855.743 66.7324L855.759 66.7484L857.912 64.66ZM865.417 69.695L864.243 72.4555L864.278 72.4704L864.313 72.4844L865.417 69.695ZM874.632 72.735L875.439 69.8454L875.42 69.8402L875.402 69.8353L874.632 72.735ZM899.142 79.575L898.336 82.4646L898.356 82.4702L898.376 82.4755L899.142 79.575ZM910.447 83.185L909.422 86.0044L910.447 83.185ZM932.012 100.285L929.392 101.745L929.4 101.759L929.408 101.773L932.012 100.285ZM931.347 135.91L928.722 134.458L928.716 134.469L931.347 135.91ZM919.472 149.21L921.207 151.657L919.472 149.21ZM902.277 157.19L901.483 154.297L901.476 154.299L902.277 157.19ZM882.137 156.85C872.483 156.85 863.872 155.171 856.255 151.872L853.87 157.378C862.339 161.046 871.778 162.85 882.137 162.85V156.85ZM856.263 151.876C848.703 148.576 842.515 143.894 837.64 137.83L832.964 141.59C838.477 148.446 845.461 153.707 853.862 157.374L856.263 151.876ZM837.661 137.856C832.876 131.772 829.803 124.536 828.481 116.068L822.553 116.992C824.019 126.384 827.468 134.601 832.944 141.564L837.661 137.856ZM825.968 119.496L849.718 115.886L848.817 109.954L825.067 113.564L825.968 119.496ZM846.357 113.648C848.541 122.385 853.071 129.294 859.98 134.18L863.444 129.28C857.814 125.299 854.047 119.669 852.178 112.192L846.357 113.648ZM859.992 134.188C866.863 138.997 874.756 141.38 883.562 141.38V135.38C875.902 135.38 869.228 133.329 863.433 129.272L859.992 134.188ZM883.562 141.38C888.756 141.38 893.687 140.57 898.336 138.929L896.339 133.271C892.374 134.67 888.122 135.38 883.562 135.38V141.38ZM898.336 138.929C903.034 137.271 906.961 134.805 910.003 131.473L905.572 127.427C903.294 129.922 900.254 131.889 896.339 133.271L898.336 138.929ZM909.979 131.499C913.257 127.992 914.872 123.666 914.872 118.715H908.872C908.872 122.251 907.764 125.082 905.596 127.401L909.979 131.499ZM914.872 118.715C914.872 116.477 914.498 114.352 913.708 112.376L908.137 114.604C908.613 115.795 908.872 117.153 908.872 118.715H914.872ZM913.722 112.413C912.936 110.368 911.752 108.557 910.194 106.999L905.951 111.241C906.926 112.216 907.642 113.318 908.122 114.567L913.722 112.413ZM910.247 107.054C908.761 105.489 906.884 104.162 904.698 103.034L901.946 108.366C903.687 109.264 904.977 110.217 905.897 111.186L910.247 107.054ZM904.801 103.09C902.67 101.882 900.239 100.883 897.534 100.072L895.81 105.818C898.172 106.527 900.174 107.364 901.843 108.31L904.801 103.09ZM897.523 100.068L862.183 89.6181L860.482 95.3719L895.822 105.822L897.523 100.068ZM862.172 89.615C859.253 88.7634 856.06 87.6294 852.592 86.2049L850.313 91.7551C853.938 93.2439 857.332 94.4533 860.492 95.375L862.172 89.615ZM852.652 86.2304C849.44 84.8289 846.349 82.9205 843.38 80.4852L839.575 85.1248C842.939 87.8829 846.498 90.0911 850.253 91.7296L852.652 86.2304ZM843.43 80.5272C840.661 78.1544 838.333 75.128 836.466 71.3934L831.099 74.0766C833.285 78.4486 836.087 82.1356 839.525 85.0828L843.43 80.5272ZM836.49 71.4436C834.77 67.8375 833.837 63.2412 833.837 57.535H827.837C827.837 63.8621 828.868 69.3991 831.075 74.0264L836.49 71.4436ZM833.837 57.535C833.837 49.2534 835.914 42.5361 839.893 37.1918L835.081 33.6082C830.194 40.1706 827.837 48.2099 827.837 57.535H833.837ZM839.89 37.1959C844.028 31.6601 849.578 27.4893 856.639 24.7003L854.435 19.1197C846.424 22.284 839.94 27.1066 835.084 33.604L839.89 37.1959ZM856.631 24.7034C863.832 21.883 871.871 20.4789 880.787 20.5399L880.828 14.5401C871.25 14.4745 862.442 15.9836 854.443 19.1166L856.631 24.7034ZM880.787 20.5399C889.827 20.601 897.78 22.1571 904.7 25.14L907.075 19.63C899.302 16.2795 890.534 14.6056 880.828 14.5401L880.787 20.5399ZM904.72 25.1486C911.638 28.0708 917.385 32.314 922.009 37.8857L926.626 34.0543C921.369 27.7193 914.83 22.9059 907.055 19.6214L904.72 25.1486ZM922.009 37.8857C926.622 43.4458 929.918 50.2053 931.851 58.2368L937.684 56.8332C935.563 48.018 931.892 40.4008 926.626 34.0543L922.009 37.8857ZM934.254 54.5793L909.649 58.8543L910.676 64.7657L935.281 60.4907L934.254 54.5793ZM913.098 61.192C911.991 55.9339 909.82 51.3704 906.538 47.5886L902.007 51.5214C904.551 54.4529 906.307 58.0594 907.227 62.428L913.098 61.192ZM906.577 47.6344C903.415 43.8404 899.509 40.959 894.899 39.0033L892.556 44.5267C896.306 46.1176 899.429 48.4296 901.968 51.4755L906.577 47.6344ZM894.914 39.0098C890.432 37.0789 885.653 36.0526 880.603 35.9161L880.441 41.9139C884.765 42.0308 888.79 42.9045 892.54 44.5202L894.914 39.0098ZM880.564 35.9153C875.667 35.8473 871.052 36.5959 866.749 38.1923L868.836 43.8177C872.386 42.5008 876.258 41.8561 880.481 41.9147L880.564 35.9153ZM866.775 38.1829C862.516 39.7187 858.944 41.9979 856.163 45.0723L860.612 49.0977C862.644 46.8521 865.342 45.078 868.81 43.8271L866.775 38.1829ZM856.136 45.1019C853.31 48.3101 851.872 52.1186 851.872 56.395H857.872C857.872 53.5781 858.778 51.1799 860.638 49.0681L856.136 45.1019ZM851.872 56.395C851.872 60.4045 853.106 63.9301 855.728 66.7161L860.097 62.6039C858.666 61.0832 857.872 59.0988 857.872 56.395H851.872ZM855.759 66.7484C858.093 69.1558 860.939 71.0497 864.243 72.4555L866.592 66.9345C863.942 65.807 861.785 64.3442 860.066 62.5716L855.759 66.7484ZM864.313 72.4844C867.461 73.7302 870.644 74.7806 873.863 75.6347L875.402 69.8353C872.414 69.0427 869.454 68.0664 866.521 66.9056L864.313 72.4844ZM873.826 75.6246L898.336 82.4646L899.949 76.6854L875.439 69.8454L873.826 75.6246ZM898.376 82.4755C901.625 83.3337 905.305 84.5072 909.422 86.0044L911.473 80.3656C907.23 78.8228 903.373 77.5896 899.909 76.6745L898.376 82.4755ZM909.422 86.0044C913.337 87.4281 917.124 89.4222 920.784 92.002L924.241 87.098C920.174 84.2312 915.917 81.9819 911.473 80.3656L909.422 86.0044ZM920.784 92.002C924.252 94.4471 927.124 97.6756 929.392 101.745L934.633 98.8249C931.96 94.0277 928.499 90.0996 924.241 87.098L920.784 92.002ZM929.408 101.773C931.609 105.625 932.812 110.706 932.812 117.195H938.812C938.812 110.004 937.483 103.812 934.617 98.7966L929.408 101.773ZM932.812 117.195C932.812 123.859 931.418 129.583 928.722 134.458L933.973 137.362C937.23 131.47 938.812 124.718 938.812 117.195H932.812ZM928.716 134.469C926.024 139.385 922.374 143.476 917.737 146.763L921.207 151.657C926.578 147.851 930.844 143.075 933.979 137.351L928.716 134.469ZM917.737 146.763C913.044 150.089 907.637 152.608 901.483 154.297L903.071 160.083C909.838 158.226 915.893 155.424 921.207 151.657L917.737 146.763ZM901.476 154.299C895.355 155.996 888.912 156.85 882.137 156.85V162.85C889.422 162.85 896.406 161.931 903.079 160.081L901.476 154.299Z" fill="#3C4144" fill-opacity="0.25" mask="url(#path-1-outside-1_1_36)"/>
</svg>
