<svg width="67" height="59" viewBox="0 0 67 59" fill="none" xmlns="http://www.w3.org/2000/svg">
<g id="Vector">
<path d="M66.2342 30.1755C65.5134 28.8811 63.8315 28.3957 62.47 29.2047L53.3399 34.5441L51.0173 35.9194V48.7015L53.1797 49.9959C53.2598 49.9959 53.2598 50.0768 53.3399 50.0768L62.3098 55.3353C62.7103 55.6589 63.2709 55.8207 63.8315 55.8207C65.3532 55.8207 66.5545 54.6072 66.5545 53.0701V42.2296L66.6346 31.5508C66.6346 31.0654 66.5545 30.58 66.2342 30.1755ZM12.8951 26.0497C20.023 26.0497 25.7894 20.2249 25.7894 13.0248C25.7894 5.82477 20.023 0 12.8951 0C5.7672 0 0.000813149 5.82477 0.000813149 13.0248C-0.0792756 20.2249 5.7672 26.0497 12.8951 26.0497ZM12.8951 7.68546C15.8584 7.68546 18.181 10.1124 18.181 13.0248C18.181 16.0181 15.7783 18.3642 12.8951 18.3642C10.0119 18.3642 7.60924 15.9372 7.60924 13.0248C7.52915 10.0315 9.93181 7.68546 12.8951 7.68546ZM45.5713 26.7778C43.489 27.8294 41.1664 28.4766 38.6837 28.4766C35.6403 28.4766 32.7571 27.5867 30.3544 25.9688H21.2243C18.8217 27.5867 15.9385 28.4766 12.8951 28.4766C10.4123 28.4766 8.08977 27.9103 6.00747 26.7778C4.16543 27.8294 2.88401 29.9328 2.88401 32.198V51.9375C2.88401 55.578 5.84729 58.4904 9.37119 58.4904H42.2876C45.8916 58.4904 48.7748 55.4971 48.7748 51.9375V32.198C48.6947 29.9328 47.4133 27.8294 45.5713 26.7778ZM38.6837 26.0497C45.8116 26.0497 51.5779 20.2249 51.5779 13.0248C51.5779 5.82477 45.8116 0 38.6837 0C31.5558 0 25.7894 5.82477 25.7894 13.0248C25.7894 20.2249 31.5558 26.0497 38.6837 26.0497ZM38.6837 7.68546C41.6469 7.68546 43.9695 10.1124 43.9695 13.0248C43.9695 16.0181 41.5668 18.3642 38.6837 18.3642C35.8005 18.3642 33.3978 15.9372 33.3978 13.0248C33.3978 10.0315 35.7204 7.68546 38.6837 7.68546Z" fill="black"/>
<path d="M66.2342 30.1755C65.5134 28.8811 63.8315 28.3957 62.47 29.2047L53.3399 34.5441L51.0173 35.9194V48.7015L53.1797 49.9959C53.2598 49.9959 53.2598 50.0768 53.3399 50.0768L62.3098 55.3353C62.7103 55.6589 63.2709 55.8207 63.8315 55.8207C65.3532 55.8207 66.5545 54.6072 66.5545 53.0701V42.2296L66.6346 31.5508C66.6346 31.0654 66.5545 30.58 66.2342 30.1755ZM12.8951 26.0497C20.023 26.0497 25.7894 20.2249 25.7894 13.0248C25.7894 5.82477 20.023 0 12.8951 0C5.7672 0 0.000813149 5.82477 0.000813149 13.0248C-0.0792756 20.2249 5.7672 26.0497 12.8951 26.0497ZM12.8951 7.68546C15.8584 7.68546 18.181 10.1124 18.181 13.0248C18.181 16.0181 15.7783 18.3642 12.8951 18.3642C10.0119 18.3642 7.60924 15.9372 7.60924 13.0248C7.52915 10.0315 9.93181 7.68546 12.8951 7.68546ZM45.5713 26.7778C43.489 27.8294 41.1664 28.4766 38.6837 28.4766C35.6403 28.4766 32.7571 27.5867 30.3544 25.9688H21.2243C18.8217 27.5867 15.9385 28.4766 12.8951 28.4766C10.4123 28.4766 8.08977 27.9103 6.00747 26.7778C4.16543 27.8294 2.88401 29.9328 2.88401 32.198V51.9375C2.88401 55.578 5.84729 58.4904 9.37119 58.4904H42.2876C45.8916 58.4904 48.7748 55.4971 48.7748 51.9375V32.198C48.6947 29.9328 47.4133 27.8294 45.5713 26.7778ZM38.6837 26.0497C45.8116 26.0497 51.5779 20.2249 51.5779 13.0248C51.5779 5.82477 45.8116 0 38.6837 0C31.5558 0 25.7894 5.82477 25.7894 13.0248C25.7894 20.2249 31.5558 26.0497 38.6837 26.0497ZM38.6837 7.68546C41.6469 7.68546 43.9695 10.1124 43.9695 13.0248C43.9695 16.0181 41.5668 18.3642 38.6837 18.3642C35.8005 18.3642 33.3978 15.9372 33.3978 13.0248C33.3978 10.0315 35.7204 7.68546 38.6837 7.68546Z" fill="white"/>
</g>
</svg>
