<svg width="54" height="55" viewBox="0 0 54 55" fill="none" xmlns="http://www.w3.org/2000/svg">
<path id="Vector" d="M52.7168 19.2571C52.644 19.0309 52.5009 18.8335 52.3081 18.6935C52.1154 18.5534 51.883 18.478 51.6445 18.478H36.7603C36.5624 18.478 36.368 18.53 36.1967 18.6288C36.0254 18.7275 35.8833 18.8695 35.7847 19.0404C35.686 19.2114 35.6345 19.4052 35.6353 19.6024C35.636 19.7995 35.6891 19.993 35.7891 20.1631L48.1597 41.3074C48.2579 41.4753 48.3982 41.6148 48.567 41.7123C48.7357 41.8098 48.927 41.8618 49.1221 41.8633H49.1308C49.5241 41.8633 49.8889 41.6587 50.0932 41.3228C52.6487 37.1134 54 32.3142 54 27.4418C54 24.6603 53.5672 21.9074 52.7168 19.2571ZM24.1084 15.6759C24.2074 15.8464 24.3496 15.9879 24.5208 16.0864C24.692 16.1849 24.8862 16.237 25.0839 16.2373H49.7263C50.124 16.2373 50.4909 16.0282 50.6931 15.689C50.8975 15.3487 50.9041 14.9275 50.713 14.5806C46.9644 7.73425 40.4342 2.85301 32.7965 1.18766C32.3087 1.08482 31.8253 1.29932 31.5813 1.71949L24.1107 14.5545C24.0116 14.7248 23.9592 14.918 23.9588 15.1149C23.9583 15.3117 24.0099 15.5052 24.1084 15.6759ZM39.6958 31.2934C39.5971 31.1239 39.4554 30.9833 39.285 30.8856C39.1146 30.7878 38.9213 30.7364 38.7246 30.7364H38.7224C38.3225 30.7364 37.9533 30.9498 37.7513 31.2945L25.3389 52.6149C25.2415 52.7829 25.1895 52.9732 25.1879 53.1672C25.1864 53.3612 25.2354 53.5523 25.3301 53.7218C25.4249 53.8914 25.5621 54.0335 25.7285 54.1345C25.8948 54.2354 26.0846 54.2917 26.2793 54.2978L26.532 54.312C26.6858 54.3229 26.8418 54.3328 27 54.3328C34.6157 54.3328 41.9238 51.0797 47.05 45.4085C47.2087 45.2318 47.3072 45.0096 47.3313 44.7737C47.3553 44.5378 47.3038 44.3004 47.1841 44.0955L39.6958 31.2934ZM18.2396 35.8463C18.3387 35.6763 18.3911 35.4834 18.3915 35.2869C18.3919 35.0904 18.3402 34.8972 18.2418 34.7269L5.95023 13.4098C5.85298 13.2416 5.7136 13.1014 5.5457 13.0028C5.37781 12.9042 5.18712 12.8507 4.99226 12.8474C4.58135 12.7971 4.22318 13.0422 4.01667 13.3803C1.38871 17.6312 0 22.4927 0 27.4418C0 30.2232 0.432844 32.9763 1.28324 35.6264C1.35605 35.8527 1.49913 36.05 1.69186 36.1901C1.88458 36.3301 2.11698 36.4055 2.35554 36.4055H17.2662C17.4634 36.4056 17.6573 36.354 17.8281 36.2558C17.999 36.1576 18.1409 36.0164 18.2396 35.8463ZM29.8916 39.2076C29.7926 39.0372 29.6504 38.8956 29.4792 38.7971C29.308 38.6986 29.1138 38.6466 28.916 38.6463H4.2737C4.07864 38.6463 3.88694 38.6968 3.71743 38.7929C3.54791 38.889 3.40643 39.0274 3.30687 39.1945C3.10247 39.5348 3.09593 39.9561 3.28704 40.3029C7.03561 47.1493 13.5658 52.0305 21.2035 53.6959C21.4365 53.7469 21.6798 53.7229 21.8982 53.6273C22.1165 53.5317 22.2988 53.3695 22.4186 53.164L29.8893 40.3291C29.9885 40.1588 30.0409 39.9655 30.0413 39.7687C30.0417 39.5718 29.9901 39.3783 29.8916 39.2076ZM14.3569 23.4895C14.4554 23.6601 14.5972 23.8018 14.768 23.9005C14.9389 23.9992 15.1328 24.0514 15.3303 24.0519H15.3325C15.7347 24.0519 16.1038 23.8396 16.3059 23.4938L28.6611 2.26865C28.7585 2.10063 28.8105 1.91033 28.8121 1.71632C28.8136 1.52231 28.7646 1.33122 28.6699 1.16169C28.5751 0.992163 28.4379 0.849993 28.2715 0.749053C28.1052 0.648113 27.9154 0.591852 27.7207 0.585761L27.468 0.57158C27.3142 0.560655 27.1582 0.550781 27 0.550781C19.4634 0.550781 12.208 3.74692 7.09056 9.32081C6.92972 9.4963 6.829 9.71813 6.80293 9.95431C6.77687 10.1905 6.8268 10.4288 6.94554 10.6349L14.3569 23.4895Z" fill="white"/>
</svg>
