<svg width="1265" height="168" viewBox="0 0 1265 168" fill="none" xmlns="http://www.w3.org/2000/svg">
<mask id="path-1-outside-1_24_5800" maskUnits="userSpaceOnUse" x="2" y="14" width="921" height="149" fill="black">
<rect fill="white" x="2" y="14" width="921" height="149"/>
<path d="M71.155 159.85C57.475 159.85 45.7583 156.873 36.005 150.92C26.2517 144.903 18.7467 136.543 13.49 125.84C8.29667 115.137 5.7 102.723 5.7 88.6C5.7 74.4767 8.29667 62.0633 13.49 51.36C18.7467 40.6567 26.2517 32.3283 36.005 26.375C45.7583 20.3583 57.475 17.35 71.155 17.35C86.925 17.35 100.067 21.3083 110.58 29.225C121.093 37.0783 128.472 47.6867 132.715 61.05L109.63 67.415C106.97 58.485 102.442 51.5183 96.045 46.515C89.6483 41.4483 81.3517 38.915 71.155 38.915C61.9717 38.915 54.3083 40.9733 48.165 45.09C42.085 49.2067 37.4933 55.0017 34.39 62.475C31.35 69.885 29.7983 78.5933 29.735 88.6C29.735 98.6067 31.255 107.347 34.295 114.82C37.3983 122.23 42.0217 127.993 48.165 132.11C54.3083 136.227 61.9717 138.285 71.155 138.285C81.3517 138.285 89.6483 135.752 96.045 130.685C102.442 125.618 106.97 118.652 109.63 109.785L132.715 116.15C128.472 129.513 121.093 140.153 110.58 148.07C100.067 155.923 86.925 159.85 71.155 159.85ZM213.328 159.85C199.648 159.85 187.932 156.873 178.178 150.92C168.425 144.903 160.92 136.543 155.663 125.84C150.47 115.137 147.873 102.723 147.873 88.6C147.873 74.4767 150.47 62.0633 155.663 51.36C160.92 40.6567 168.425 32.3283 178.178 26.375C187.932 20.3583 199.648 17.35 213.328 17.35C227.008 17.35 238.725 20.3583 248.478 26.375C258.295 32.3283 265.8 40.6567 270.993 51.36C276.25 62.0633 278.878 74.4767 278.878 88.6C278.878 102.723 276.25 115.137 270.993 125.84C265.8 136.543 258.295 144.903 248.478 150.92C238.725 156.873 227.008 159.85 213.328 159.85ZM213.328 138.285C222.512 138.348 230.143 136.322 236.223 132.205C242.367 128.088 246.958 122.293 249.998 114.82C253.102 107.347 254.653 98.6067 254.653 88.6C254.653 78.5933 253.102 69.9167 249.998 62.57C246.958 55.16 242.367 49.3967 236.223 45.28C230.143 41.1633 222.512 39.0417 213.328 38.915C204.145 38.8517 196.513 40.8783 190.433 44.995C184.353 49.1117 179.762 54.9067 176.658 62.38C173.618 69.8533 172.098 78.5933 172.098 88.6C172.098 98.6067 173.618 107.315 176.658 114.725C179.698 122.072 184.258 127.803 190.338 131.92C196.482 136.037 204.145 138.158 213.328 138.285ZM299.688 157V20.2H322.868L386.328 116.625V20.2H409.508V157H386.328L322.868 60.575V157H299.688ZM470.835 157V41.67H426.565V20.2H538V41.67H493.73V157H470.835ZM541.878 157L585.008 20.2H618.543L661.674 157H638.113L598.973 34.26H604.103L565.438 157H541.878ZM565.913 127.36V105.985H637.733V127.36H565.913ZM734.893 159.85C721.213 159.85 709.497 156.873 699.743 150.92C689.99 144.903 682.485 136.543 677.228 125.84C672.035 115.137 669.438 102.723 669.438 88.6C669.438 74.4767 672.035 62.0633 677.228 51.36C682.485 40.6567 689.99 32.3283 699.743 26.375C709.497 20.3583 721.213 17.35 734.893 17.35C750.663 17.35 763.805 21.3083 774.318 29.225C784.832 37.0783 792.21 47.6867 796.453 61.05L773.368 67.415C770.708 58.485 766.18 51.5183 759.783 46.515C753.387 41.4483 745.09 38.915 734.893 38.915C725.71 38.915 718.047 40.9733 711.903 45.09C705.823 49.2067 701.232 55.0017 698.128 62.475C695.088 69.885 693.537 78.5933 693.473 88.6C693.473 98.6067 694.993 107.347 698.033 114.82C701.137 122.23 705.76 127.993 711.903 132.11C718.047 136.227 725.71 138.285 734.893 138.285C745.09 138.285 753.387 135.752 759.783 130.685C766.18 125.618 770.708 118.652 773.368 109.785L796.453 116.15C792.21 129.513 784.832 140.153 774.318 148.07C763.805 155.923 750.663 159.85 734.893 159.85ZM852.082 157V41.67H807.812V20.2H919.247V41.67H874.977V157H852.082Z"/>
</mask>
<path d="M36.005 150.92L34.4299 153.473L34.436 153.477L34.442 153.481L36.005 150.92ZM13.49 125.84L10.7909 127.15L10.7941 127.156L10.7972 127.162L13.49 125.84ZM13.49 51.36L10.7972 50.0375L10.7941 50.0439L10.7909 50.0504L13.49 51.36ZM36.005 26.375L37.568 28.9357L37.574 28.932L37.5801 28.9283L36.005 26.375ZM110.58 29.225L108.775 31.6215L108.785 31.6285L110.58 29.225ZM132.715 61.05L133.512 63.9421L136.518 63.1134L135.574 60.1421L132.715 61.05ZM109.63 67.415L106.755 68.2714L107.594 71.0883L110.427 70.3071L109.63 67.415ZM96.045 46.515L94.1823 48.8667L94.1895 48.8723L94.1967 48.878L96.045 46.515ZM48.165 45.09L46.495 42.5978L46.489 42.6018L46.483 42.6058L48.165 45.09ZM34.39 62.475L31.6194 61.3245L31.6145 61.3363L34.39 62.475ZM29.735 88.6L26.7351 88.581L26.735 88.5905V88.6H29.735ZM34.295 114.82L31.5161 115.95L31.5219 115.965L31.5279 115.979L34.295 114.82ZM48.165 132.11L49.835 129.618H49.835L48.165 132.11ZM96.045 130.685L94.1823 128.333L96.045 130.685ZM109.63 109.785L110.427 106.893L107.599 106.113L106.757 108.923L109.63 109.785ZM132.715 116.15L135.574 117.058L136.518 114.087L133.512 113.258L132.715 116.15ZM110.58 148.07L112.375 150.473L112.385 150.467L110.58 148.07ZM71.155 156.85C57.917 156.85 46.7652 153.973 37.568 148.359L34.442 153.481C44.7515 159.773 57.033 162.85 71.155 162.85V156.85ZM37.5801 148.367C28.3279 142.659 21.2009 134.735 16.1828 124.518L10.7972 127.162C16.2925 138.352 24.1754 147.147 34.4299 153.473L37.5801 148.367ZM16.1891 124.53C11.2275 114.305 8.7 102.354 8.7 88.6H2.7C2.7 103.093 5.36584 115.969 10.7909 127.15L16.1891 124.53ZM8.7 88.6C8.7 74.8462 11.2275 62.8953 16.1891 52.6696L10.7909 50.0504C5.36584 61.2314 2.7 74.1071 2.7 88.6H8.7ZM16.1828 52.6825C21.1997 42.4674 28.3231 34.5787 37.568 28.9357L34.442 23.8143C24.1803 30.078 16.2937 38.8459 10.7972 50.0375L16.1828 52.6825ZM37.5801 28.9283C46.7753 23.2559 57.9226 20.35 71.155 20.35V14.35C57.0274 14.35 44.7414 17.4608 34.4299 23.8217L37.5801 28.9283ZM71.155 20.35C86.4068 20.35 98.8792 24.1696 108.775 31.6215L112.385 26.8285C101.254 18.4471 87.4432 14.35 71.155 14.35V20.35ZM108.785 31.6285C118.761 39.0804 125.788 49.1487 129.856 61.9579L135.574 60.1421C131.155 46.2246 123.426 35.0763 112.375 26.8215L108.785 31.6285ZM131.918 58.1579L108.833 64.5229L110.427 70.3071L133.512 63.9421L131.918 58.1579ZM112.505 66.5586C109.695 57.1231 104.85 49.5935 97.8933 44.152L94.1967 48.878C100.033 53.4432 104.245 59.8469 106.755 68.2714L112.505 66.5586ZM97.9077 44.1633C90.86 38.581 81.8554 35.915 71.155 35.915V41.915C80.8479 41.915 88.4367 44.3157 94.1823 48.8667L97.9077 44.1633ZM71.155 35.915C61.5214 35.915 53.2401 38.0779 46.495 42.5978L49.835 47.5822C55.3766 43.8688 62.4219 41.915 71.155 41.915V35.915ZM46.483 42.6058C39.8686 47.0844 34.9237 53.3672 31.6194 61.3245L37.1606 63.6255C40.063 56.6361 44.3014 51.3289 49.847 47.5741L46.483 42.6058ZM31.6145 61.3363C28.3973 69.1783 26.8002 78.2826 26.7351 88.581L32.7349 88.619C32.7964 78.9041 34.3027 70.5917 37.1655 63.6137L31.6145 61.3363ZM26.735 88.6C26.735 98.9041 28.2996 108.043 31.5161 115.95L37.0739 113.69C34.2104 106.65 32.735 98.3092 32.735 88.6H26.735ZM31.5279 115.979C34.8379 123.882 39.8209 130.13 46.495 134.602L49.835 129.618C44.2224 125.857 39.9588 120.578 37.0621 113.661L31.5279 115.979ZM46.495 134.602C53.2401 139.122 61.5214 141.285 71.155 141.285V135.285C62.4219 135.285 55.3766 133.331 49.835 129.618L46.495 134.602ZM71.155 141.285C81.8554 141.285 90.86 138.619 97.9077 133.037L94.1823 128.333C88.4367 132.884 80.8479 135.285 71.155 135.285V141.285ZM97.9077 133.037C104.849 127.539 109.692 120.02 112.503 110.647L106.757 108.923C104.248 117.283 100.034 123.698 94.1823 128.333L97.9077 133.037ZM108.833 112.677L131.918 119.042L133.512 113.258L110.427 106.893L108.833 112.677ZM129.856 115.242C125.788 128.053 118.758 138.157 108.775 145.673L112.385 150.467C123.429 142.15 131.156 130.974 135.574 117.058L129.856 115.242ZM108.785 145.667C98.8878 153.059 86.412 156.85 71.155 156.85V162.85C87.438 162.85 101.246 158.787 112.375 150.473L108.785 145.667ZM178.178 150.92L176.603 153.473L176.609 153.477L176.615 153.481L178.178 150.92ZM155.663 125.84L152.964 127.15L152.967 127.156L152.971 127.162L155.663 125.84ZM155.663 51.36L152.971 50.0375L152.967 50.0439L152.964 50.0504L155.663 51.36ZM178.178 26.375L179.741 28.9357L179.747 28.932L179.753 28.9283L178.178 26.375ZM248.478 26.375L246.903 28.9283L246.913 28.9342L246.923 28.9401L248.478 26.375ZM270.993 51.36L268.294 52.6696L268.298 52.676L268.301 52.6825L270.993 51.36ZM270.993 125.84L268.301 124.518L268.298 124.524L268.294 124.53L270.993 125.84ZM248.478 150.92L250.041 153.481L250.046 153.478L248.478 150.92ZM213.328 138.285L213.287 141.285L213.297 141.285L213.308 141.285L213.328 138.285ZM236.223 132.205L234.553 129.713L234.547 129.717L234.541 129.721L236.223 132.205ZM249.998 114.82L247.228 113.669L247.224 113.68L247.22 113.69L249.998 114.82ZM249.998 62.57L247.223 63.7087L247.229 63.723L247.235 63.7374L249.998 62.57ZM236.223 45.28L234.541 47.7641L234.547 47.7682L234.553 47.7722L236.223 45.28ZM213.328 38.915L213.37 35.9153L213.359 35.9151L213.349 35.9151L213.328 38.915ZM190.433 44.995L192.115 47.4791L190.433 44.995ZM176.658 62.38L173.888 61.2295L173.884 61.2395L173.88 61.2496L176.658 62.38ZM176.658 114.725L173.883 115.864L173.886 115.872L176.658 114.725ZM190.338 131.92L188.656 134.404L188.662 134.408L188.668 134.412L190.338 131.92ZM213.328 156.85C200.09 156.85 188.939 153.973 179.741 148.359L176.615 153.481C186.925 159.773 199.206 162.85 213.328 162.85V156.85ZM179.753 148.367C170.501 142.659 163.374 134.735 158.356 124.518L152.971 127.162C158.466 138.352 166.349 147.147 176.603 153.473L179.753 148.367ZM158.362 124.53C153.401 114.305 150.873 102.354 150.873 88.6H144.873C144.873 103.093 147.539 115.969 152.964 127.15L158.362 124.53ZM150.873 88.6C150.873 74.8462 153.401 62.8953 158.362 52.6696L152.964 50.0504C147.539 61.2314 144.873 74.1071 144.873 88.6H150.873ZM158.356 52.6825C163.373 42.4674 170.497 34.5787 179.741 28.9357L176.615 23.8143C166.354 30.078 158.467 38.8459 152.971 50.0375L158.356 52.6825ZM179.753 28.9283C188.949 23.2559 200.096 20.35 213.328 20.35V14.35C199.201 14.35 186.915 17.4608 176.603 23.8217L179.753 28.9283ZM213.328 20.35C226.561 20.35 237.708 23.2559 246.903 28.9283L250.053 23.8217C239.742 17.4608 227.456 14.35 213.328 14.35V20.35ZM246.923 28.9401C256.227 34.5826 263.344 42.4663 268.294 52.6696L273.693 50.0504C268.257 38.847 260.363 30.0741 250.034 23.8098L246.923 28.9401ZM268.301 52.6825C273.321 62.905 275.878 74.8513 275.878 88.6H281.878C281.878 74.1021 279.179 61.2216 273.686 50.0375L268.301 52.6825ZM275.878 88.6C275.878 102.349 273.321 114.295 268.301 124.518L273.686 127.162C279.179 115.978 281.878 103.098 281.878 88.6H275.878ZM268.294 124.53C263.342 134.736 256.222 142.655 246.911 148.362L250.046 153.478C260.368 147.151 268.258 138.35 273.693 127.15L268.294 124.53ZM246.915 148.359C237.718 153.973 226.566 156.85 213.328 156.85V162.85C227.45 162.85 239.732 159.773 250.041 153.481L246.915 148.359ZM213.308 141.285C222.945 141.351 231.21 139.223 237.905 134.689L234.541 129.721C229.077 133.421 222.079 135.345 213.349 135.285L213.308 141.285ZM237.893 134.697C244.579 130.217 249.533 123.925 252.777 115.95L247.22 113.69C244.384 120.661 240.154 125.96 234.553 129.713L237.893 134.697ZM252.769 115.971C256.055 108.057 257.653 98.911 257.653 88.6H251.653C251.653 98.3024 250.148 106.636 247.228 113.669L252.769 115.971ZM257.653 88.6C257.653 78.291 256.056 69.1999 252.762 61.4026L247.235 63.7374C250.148 70.6335 251.653 78.8957 251.653 88.6H257.653ZM252.774 61.4313C249.528 53.5183 244.573 47.2636 237.893 42.7878L234.553 47.7722C240.161 51.5297 244.389 56.8017 247.223 63.7087L252.774 61.4313ZM237.905 42.7959C231.232 38.2773 222.992 36.048 213.37 35.9153L213.287 41.9147C222.032 42.0353 229.055 44.0494 234.541 47.7641L237.905 42.7959ZM213.349 35.9151C203.712 35.8486 195.447 37.9774 188.751 42.5109L192.115 47.4791C197.58 43.7793 204.578 41.8547 213.308 41.9149L213.349 35.9151ZM188.751 42.5109C182.137 46.9894 177.192 53.2722 173.888 61.2295L179.429 63.5305C182.331 56.5411 186.57 51.2339 192.115 47.4791L188.751 42.5109ZM173.88 61.2496C170.663 69.1569 169.098 78.2959 169.098 88.6H175.098C175.098 78.8908 176.574 70.5498 179.437 63.5104L173.88 61.2496ZM169.098 88.6C169.098 98.9032 170.663 108.014 173.883 115.864L179.434 113.586C176.574 106.616 175.098 98.3101 175.098 88.6H169.098ZM173.886 115.872C177.132 123.715 182.05 129.931 188.656 134.404L192.02 129.436C186.467 125.676 182.265 120.429 179.43 113.578L173.886 115.872ZM188.668 134.412C195.399 138.922 203.664 141.152 213.287 141.285L213.37 135.285C204.626 135.165 197.565 133.151 192.008 129.428L188.668 134.412ZM299.688 157H296.688V160H299.688V157ZM299.688 20.2V17.2H296.688V20.2H299.688ZM322.868 20.2L325.374 18.5507L324.485 17.2H322.868V20.2ZM386.328 116.625L383.822 118.274L389.328 126.64V116.625H386.328ZM386.328 20.2V17.2H383.328V20.2H386.328ZM409.508 20.2H412.508V17.2H409.508V20.2ZM409.508 157V160H412.508V157H409.508ZM386.328 157L383.822 158.649L384.711 160H386.328V157ZM322.868 60.575L325.374 58.9257L319.868 50.5596V60.575H322.868ZM322.868 157V160H325.868V157H322.868ZM302.688 157V20.2H296.688V157H302.688ZM299.688 23.2H322.868V17.2H299.688V23.2ZM320.362 21.8493L383.822 118.274L388.834 114.976L325.374 18.5507L320.362 21.8493ZM389.328 116.625V20.2H383.328V116.625H389.328ZM386.328 23.2H409.508V17.2H386.328V23.2ZM406.508 20.2V157H412.508V20.2H406.508ZM409.508 154H386.328V160H409.508V154ZM388.834 155.351L325.374 58.9257L320.362 62.2242L383.822 158.649L388.834 155.351ZM319.868 60.575V157H325.868V60.575H319.868ZM322.868 154H299.688V160H322.868V154ZM470.835 157H467.835V160H470.835V157ZM470.835 41.67H473.835V38.67H470.835V41.67ZM426.565 41.67H423.565V44.67H426.565V41.67ZM426.565 20.2V17.2H423.565V20.2H426.565ZM538 20.2H541V17.2H538V20.2ZM538 41.67V44.67H541V41.67H538ZM493.73 41.67V38.67H490.73V41.67H493.73ZM493.73 157V160H496.73V157H493.73ZM473.835 157V41.67H467.835V157H473.835ZM470.835 38.67H426.565V44.67H470.835V38.67ZM429.565 41.67V20.2H423.565V41.67H429.565ZM426.565 23.2H538V17.2H426.565V23.2ZM535 20.2V41.67H541V20.2H535ZM538 38.67H493.73V44.67H538V38.67ZM490.73 41.67V157H496.73V41.67H490.73ZM493.73 154H470.835V160H493.73V154ZM541.878 157L539.017 156.098L537.787 160H541.878V157ZM585.008 20.2V17.2H582.809L582.147 19.2979L585.008 20.2ZM618.544 20.2L621.405 19.2979L620.743 17.2H618.544V20.2ZM661.674 157V160H665.765L664.535 156.098L661.674 157ZM638.114 157L635.255 157.911L635.921 160H638.114V157ZM598.974 34.26V31.26H594.868L596.115 35.1714L598.974 34.26ZM604.104 34.26L606.965 35.1614L608.194 31.26H604.104V34.26ZM565.438 157V160H567.639L568.3 157.901L565.438 157ZM565.914 127.36H562.914V130.36H565.914V127.36ZM565.914 105.985V102.985H562.914V105.985H565.914ZM637.734 105.985H640.734V102.985H637.734V105.985ZM637.734 127.36V130.36H640.734V127.36H637.734ZM544.74 157.902L587.87 21.1021L582.147 19.2979L539.017 156.098L544.74 157.902ZM585.008 23.2H618.544V17.2H585.008V23.2ZM615.682 21.1021L658.812 157.902L664.535 156.098L621.405 19.2979L615.682 21.1021ZM661.674 154H638.114V160H661.674V154ZM640.972 156.089L601.832 33.3486L596.115 35.1714L635.255 157.911L640.972 156.089ZM598.974 37.26H604.104V31.26H598.974V37.26ZM601.242 33.3586L562.577 156.099L568.3 157.901L606.965 35.1614L601.242 33.3586ZM565.438 154H541.878V160H565.438V154ZM568.914 127.36V105.985H562.914V127.36H568.914ZM565.914 108.985H637.734V102.985H565.914V108.985ZM634.734 105.985V127.36H640.734V105.985H634.734ZM637.734 124.36H565.914V130.36H637.734V124.36ZM699.743 150.92L698.168 153.473L698.174 153.477L698.18 153.481L699.743 150.92ZM677.228 125.84L674.529 127.15L674.532 127.156L674.536 127.162L677.228 125.84ZM677.228 51.36L674.536 50.0375L674.532 50.0439L674.529 50.0504L677.228 51.36ZM699.743 26.375L701.306 28.9357L701.312 28.932L701.318 28.9283L699.743 26.375ZM774.318 29.225L772.514 31.6215L772.523 31.6285L774.318 29.225ZM796.453 61.05L797.251 63.9421L800.256 63.1134L799.313 60.1421L796.453 61.05ZM773.368 67.415L770.493 68.2714L771.332 71.0883L774.166 70.3071L773.368 67.415ZM759.783 46.515L757.921 48.8667L757.928 48.8723L757.935 48.878L759.783 46.515ZM711.903 45.09L710.233 42.5978L710.227 42.6018L710.221 42.6058L711.903 45.09ZM698.128 62.475L695.358 61.3245L695.353 61.3363L698.128 62.475ZM693.473 88.6L690.473 88.581L690.473 88.5905V88.6H693.473ZM698.033 114.82L695.254 115.95L695.26 115.965L695.266 115.979L698.033 114.82ZM711.903 132.11L713.573 129.618L711.903 132.11ZM759.783 130.685L757.921 128.333L759.783 130.685ZM773.368 109.785L774.166 106.893L771.338 106.113L770.495 108.923L773.368 109.785ZM796.453 116.15L799.313 117.058L800.256 114.087L797.251 113.258L796.453 116.15ZM774.318 148.07L776.114 150.473L776.123 150.467L774.318 148.07ZM734.893 156.85C721.655 156.85 710.503 153.973 701.306 148.359L698.18 153.481C708.49 159.773 720.771 162.85 734.893 162.85V156.85ZM701.318 148.367C692.066 142.659 684.939 134.735 679.921 124.518L674.536 127.162C680.031 138.352 687.914 147.147 698.168 153.473L701.318 148.367ZM679.927 124.53C674.966 114.305 672.438 102.354 672.438 88.6H666.438C666.438 103.093 669.104 115.969 674.529 127.15L679.927 124.53ZM672.438 88.6C672.438 74.8462 674.966 62.8953 679.927 52.6696L674.529 50.0504C669.104 61.2314 666.438 74.1071 666.438 88.6H672.438ZM679.921 52.6825C684.938 42.4674 692.061 34.5787 701.306 28.9357L698.18 23.8143C687.919 30.078 680.032 38.8459 674.536 50.0375L679.921 52.6825ZM701.318 28.9283C710.514 23.2559 721.661 20.35 734.893 20.35V14.35C720.766 14.35 708.48 17.4608 698.168 23.8217L701.318 28.9283ZM734.893 20.35C750.145 20.35 762.617 24.1696 772.514 31.6215L776.123 26.8285C764.992 18.4471 751.181 14.35 734.893 14.35V20.35ZM772.523 31.6285C782.499 39.0804 789.527 49.1487 793.594 61.9579L799.313 60.1421C794.893 46.2246 787.164 35.0763 776.114 26.8215L772.523 31.6285ZM795.656 58.1579L772.571 64.5229L774.166 70.3071L797.251 63.9421L795.656 58.1579ZM776.243 66.5586C773.433 57.1231 768.588 49.5935 761.632 44.152L757.935 48.878C763.771 53.4432 767.984 59.8469 770.493 68.2714L776.243 66.5586ZM761.646 44.1633C754.598 38.581 745.594 35.915 734.893 35.915V41.915C744.586 41.915 752.175 44.3157 757.921 48.8667L761.646 44.1633ZM734.893 35.915C725.26 35.915 716.978 38.0779 710.233 42.5978L713.573 47.5822C719.115 43.8688 726.16 41.915 734.893 41.915V35.915ZM710.221 42.6058C703.607 47.0844 698.662 53.3672 695.358 61.3245L700.899 63.6255C703.801 56.6361 708.04 51.3289 713.585 47.5741L710.221 42.6058ZM695.353 61.3363C692.136 69.1783 690.539 78.2826 690.473 88.581L696.473 88.619C696.535 78.9041 698.041 70.5917 700.904 63.6137L695.353 61.3363ZM690.473 88.6C690.473 98.9041 692.038 108.043 695.254 115.95L700.812 113.69C697.949 106.65 696.473 98.3092 696.473 88.6H690.473ZM695.266 115.979C698.576 123.882 703.559 130.13 710.233 134.602L713.573 129.618C707.961 125.857 703.697 120.578 700.8 113.661L695.266 115.979ZM710.233 134.602C716.978 139.122 725.26 141.285 734.893 141.285V135.285C726.16 135.285 719.115 133.331 713.573 129.618L710.233 134.602ZM734.893 141.285C745.594 141.285 754.598 138.619 761.646 133.037L757.921 128.333C752.175 132.884 744.586 135.285 734.893 135.285V141.285ZM761.646 133.037C768.587 127.539 773.43 120.02 776.242 110.647L770.495 108.923C767.987 117.283 763.773 123.698 757.921 128.333L761.646 133.037ZM772.571 112.677L795.656 119.042L797.251 113.258L774.166 106.893L772.571 112.677ZM793.594 115.242C789.526 128.053 782.496 138.157 772.514 145.673L776.123 150.467C787.167 142.15 794.894 130.974 799.313 117.058L793.594 115.242ZM772.523 145.667C762.626 153.059 750.15 156.85 734.893 156.85V162.85C751.176 162.85 764.984 158.787 776.114 150.473L772.523 145.667ZM852.082 157H849.082V160H852.082V157ZM852.082 41.67H855.082V38.67H852.082V41.67ZM807.812 41.67H804.812V44.67H807.812V41.67ZM807.812 20.2V17.2H804.812V20.2H807.812ZM919.247 20.2H922.247V17.2H919.247V20.2ZM919.247 41.67V44.67H922.247V41.67H919.247ZM874.977 41.67V38.67H871.977V41.67H874.977ZM874.977 157V160H877.977V157H874.977ZM855.082 157V41.67H849.082V157H855.082ZM852.082 38.67H807.812V44.67H852.082V38.67ZM810.812 41.67V20.2H804.812V41.67H810.812ZM807.812 23.2H919.247V17.2H807.812V23.2ZM916.247 20.2V41.67H922.247V20.2H916.247ZM919.247 38.67H874.977V44.67H919.247V38.67ZM871.977 41.67V157H877.977V41.67H871.977ZM874.977 154H852.082V160H874.977V154Z" fill="#3C4144" fill-opacity="0.4" mask="url(#path-1-outside-1_24_5800)"/>
</svg>
