<svg xmlns="http://www.w3.org/2000/svg" width="52" height="52" viewBox="0 0 52 52" fill="none">
  <path fill-rule="evenodd" clip-rule="evenodd" d="M26.0002 47.6666C37.9663 47.6666 47.6668 37.9661 47.6668 25.9999C47.6668 14.0337 37.9663 4.33325 26.0002 4.33325C14.034 4.33325 4.3335 14.0337 4.3335 25.9999C4.3335 37.9661 14.034 47.6666 26.0002 47.6666ZM22.4699 29.8997H24.8336C25.3835 29.8997 25.6585 29.8997 25.8294 30.0705C26.0002 30.2414 26.0002 30.5164 26.0002 31.0663V40.2027C26.0002 42.2809 26.0002 43.32 26.4581 43.4209C26.9159 43.5217 27.3525 42.5788 28.2256 40.6929L33.7654 28.7269C35.1461 25.7447 35.8364 24.2535 35.1482 23.1766C34.4601 22.0997 32.8169 22.0997 29.5305 22.0997H27.1669C26.6169 22.0997 26.3419 22.0997 26.1711 21.9288C26.0002 21.758 26.0002 21.483 26.0002 20.933V11.7966C26.0002 9.71843 26.0002 8.67932 25.5424 8.57848C25.0845 8.47763 24.648 9.42058 23.7748 11.3065L18.2351 23.2724C16.8544 26.2547 16.164 27.7458 16.8522 28.8227C17.5404 29.8997 19.1836 29.8997 22.4699 29.8997Z" fill="#222222"/>
  <path fill-rule="evenodd" clip-rule="evenodd" d="M26.0002 47.6666C37.9663 47.6666 47.6668 37.9661 47.6668 25.9999C47.6668 14.0337 37.9663 4.33325 26.0002 4.33325C14.034 4.33325 4.3335 14.0337 4.3335 25.9999C4.3335 37.9661 14.034 47.6666 26.0002 47.6666ZM22.4699 29.8997H24.8336C25.3835 29.8997 25.6585 29.8997 25.8294 30.0705C26.0002 30.2414 26.0002 30.5164 26.0002 31.0663V40.2027C26.0002 42.2809 26.0002 43.32 26.4581 43.4209C26.9159 43.5217 27.3525 42.5788 28.2256 40.6929L33.7654 28.7269C35.1461 25.7447 35.8364 24.2535 35.1482 23.1766C34.4601 22.0997 32.8169 22.0997 29.5305 22.0997H27.1669C26.6169 22.0997 26.3419 22.0997 26.1711 21.9288C26.0002 21.758 26.0002 21.483 26.0002 20.933V11.7966C26.0002 9.71843 26.0002 8.67932 25.5424 8.57848C25.0845 8.47763 24.648 9.42058 23.7748 11.3065L18.2351 23.2724C16.8544 26.2547 16.164 27.7458 16.8522 28.8227C17.5404 29.8997 19.1836 29.8997 22.4699 29.8997Z" fill="url(#paint0_linear_19_1374)"/>
  <path fill-rule="evenodd" clip-rule="evenodd" d="M26.0002 47.6666C37.9663 47.6666 47.6668 37.9661 47.6668 25.9999C47.6668 14.0337 37.9663 4.33325 26.0002 4.33325C14.034 4.33325 4.3335 14.0337 4.3335 25.9999C4.3335 37.9661 14.034 47.6666 26.0002 47.6666ZM22.4699 29.8997H24.8336C25.3835 29.8997 25.6585 29.8997 25.8294 30.0705C26.0002 30.2414 26.0002 30.5164 26.0002 31.0663V40.2027C26.0002 42.2809 26.0002 43.32 26.4581 43.4209C26.9159 43.5217 27.3525 42.5788 28.2256 40.6929L33.7654 28.7269C35.1461 25.7447 35.8364 24.2535 35.1482 23.1766C34.4601 22.0997 32.8169 22.0997 29.5305 22.0997H27.1669C26.6169 22.0997 26.3419 22.0997 26.1711 21.9288C26.0002 21.758 26.0002 21.483 26.0002 20.933V11.7966C26.0002 9.71843 26.0002 8.67932 25.5424 8.57848C25.0845 8.47763 24.648 9.42058 23.7748 11.3065L18.2351 23.2724C16.8544 26.2547 16.164 27.7458 16.8522 28.8227C17.5404 29.8997 19.1836 29.8997 22.4699 29.8997Z" fill="black" fill-opacity="0.15"/>
  <defs>
    <linearGradient id="paint0_linear_19_1374" x1="8.40694" y1="9.83076" x2="16.5393" y2="58.6089" gradientUnits="userSpaceOnUse">
      <stop stop-color="#5E45EC"/>
      <stop offset="1" stop-color="#EC75FF"/>
    </linearGradient>
  </defs>
</svg>