<svg xmlns="http://www.w3.org/2000/svg" width="52" height="52" viewBox="0 0 52 52" fill="none">
  <path d="M9.64297 30.1343L24.707 44.2853C25.171 44.7213 25.4031 44.9392 25.6688 45.0179C25.8849 45.0818 26.1148 45.0818 26.3308 45.0179C26.5966 44.9392 26.8286 44.7213 27.2927 44.2853L27.2927 44.2853L42.3567 30.1343C46.5951 26.1528 47.1098 19.6008 43.5451 15.0063L42.8748 14.1424C38.6104 8.64609 30.0507 9.56787 27.0543 15.8461C26.631 16.7329 25.3687 16.7329 24.9454 15.8461C21.949 9.56787 13.3892 8.64609 9.12485 14.1424L8.45458 15.0063C4.88989 19.6008 5.40458 26.1528 9.64297 30.1343Z" fill="#222222"/>
  <path d="M9.64297 30.1343L24.707 44.2853C25.171 44.7213 25.4031 44.9392 25.6688 45.0179C25.8849 45.0818 26.1148 45.0818 26.3308 45.0179C26.5966 44.9392 26.8286 44.7213 27.2927 44.2853L27.2927 44.2853L42.3567 30.1343C46.5951 26.1528 47.1098 19.6008 43.5451 15.0063L42.8748 14.1424C38.6104 8.64609 30.0507 9.56787 27.0543 15.8461C26.631 16.7329 25.3687 16.7329 24.9454 15.8461C21.949 9.56787 13.3892 8.64609 9.12485 14.1424L8.45458 15.0063C4.88989 19.6008 5.40458 26.1528 9.64297 30.1343Z" fill="url(#paint0_linear_19_1365)"/>
  <path d="M9.64297 30.1343L24.707 44.2853C25.171 44.7213 25.4031 44.9392 25.6688 45.0179C25.8849 45.0818 26.1148 45.0818 26.3308 45.0179C26.5966 44.9392 26.8286 44.7213 27.2927 44.2853L27.2927 44.2853L42.3567 30.1343C46.5951 26.1528 47.1098 19.6008 43.5451 15.0063L42.8748 14.1424C38.6104 8.64609 30.0507 9.56787 27.0543 15.8461C26.631 16.7329 25.3687 16.7329 24.9454 15.8461C21.949 9.56787 13.3892 8.64609 9.12485 14.1424L8.45458 15.0063C4.88989 19.6008 5.40458 26.1528 9.64297 30.1343Z" fill="black" fill-opacity="0.15"/>
  <defs>
    <linearGradient id="paint0_linear_19_1365" x1="6.64729" y1="7.66402" x2="14.0752" y2="56.6722" gradientUnits="userSpaceOnUse">
      <stop stop-color="#5E45EC"/>
      <stop offset="1" stop-color="#EC75FF"/>
    </linearGradient>
  </defs>
</svg>