<svg width="18" height="18" viewBox="0 0 18 18" fill="none" xmlns="http://www.w3.org/2000/svg">
<g clip-path="url(#clip0_1_711)">
<path d="M13.5002 0H4.50038C2.02566 0 0.000488281 2.02517 0.000488281 4.49989V13.5001C0.000488281 15.9742 2.02566 18 4.50038 18H13.5002C15.9749 18 18.0001 15.9742 18.0001 13.5001V4.49989C18.0001 2.02517 15.9749 0 13.5002 0ZM16.5 13.5001C16.5 15.1538 15.1548 16.5 13.5002 16.5H4.50038C2.84645 16.5 1.50053 15.1538 1.50053 13.5001V4.49989C1.50053 2.84574 2.84645 1.50004 4.50038 1.50004H13.5002C15.1548 1.50004 16.5 2.84574 16.5 4.49989V13.5001Z" fill="white"/>
<path d="M13.8755 5.24982C14.4968 5.24982 15.0004 4.74616 15.0004 4.12485C15.0004 3.50355 14.4968 2.99988 13.8755 2.99988C13.2542 2.99988 12.7505 3.50355 12.7505 4.12485C12.7505 4.74616 13.2542 5.24982 13.8755 5.24982Z" fill="white"/>
<path d="M8.99989 4.49988C6.51414 4.49988 4.5 6.51424 4.5 8.99977C4.5 11.4844 6.51414 13.5001 8.99989 13.5001C11.4849 13.5001 13.4998 11.4844 13.4998 8.99977C13.4998 6.51424 11.4849 4.49988 8.99989 4.49988ZM8.99989 12.0001C7.34324 12.0001 6.00004 10.6569 6.00004 8.99977C6.00004 7.34267 7.34324 5.99991 8.99989 5.99991C10.6565 5.99991 11.9997 7.34267 11.9997 8.99977C11.9997 10.6569 10.6565 12.0001 8.99989 12.0001Z" fill="white"/>
</g>
<defs>
<clipPath id="clip0_1_711">
<rect width="18" height="18" fill="white"/>
</clipPath>
</defs>
</svg>
