<svg xmlns="http://www.w3.org/2000/svg" width="36" height="36" viewBox="0 0 36 36" fill="none">
  <g clip-path="url(#clip0_95_5980)">
    <path d="M13.1007 26.4311L12.9267 32.5809C12.9219 32.79 12.9828 32.9952 13.1011 33.1677C13.2194 33.3401 13.3889 33.471 13.5856 33.5417C13.7824 33.6125 13.9964 33.6195 14.1974 33.5618C14.3984 33.5042 14.5761 33.3847 14.7055 33.2204L18.4413 28.4267L13.1007 26.4311ZM33.5593 3.82254C33.4129 3.71191 33.2387 3.64393 33.0561 3.62612C32.8734 3.60831 32.6894 3.64136 32.5244 3.72162L2.24948 18.4579C2.07526 18.5438 1.92989 18.6787 1.83123 18.846C1.73256 19.0133 1.68489 19.2058 1.69406 19.3998C1.70322 19.5938 1.76883 19.7809 1.88284 19.9382C1.99684 20.0954 2.15427 20.216 2.33581 20.2851L10.5496 23.3545L28.6399 8.75133L14.5061 24.832L28.2719 29.976C28.4085 30.0263 28.5544 30.046 28.6995 30.034C28.8445 30.0219 28.9852 29.9782 29.1116 29.9061C29.2381 29.8339 29.3472 29.735 29.4314 29.6163C29.5156 29.4976 29.5728 29.3618 29.5991 29.2187L33.9393 4.79141C33.9714 4.61058 33.9529 4.42439 33.8858 4.25341C33.8188 4.08243 33.7058 3.93332 33.5593 3.82254Z" fill="black"/>
    <path d="M13.1007 26.4311L12.9267 32.5809C12.9219 32.79 12.9828 32.9952 13.1011 33.1677C13.2194 33.3401 13.3889 33.471 13.5856 33.5417C13.7824 33.6125 13.9964 33.6195 14.1974 33.5618C14.3984 33.5042 14.5761 33.3847 14.7055 33.2204L18.4413 28.4267L13.1007 26.4311ZM33.5593 3.82254C33.4129 3.71191 33.2387 3.64393 33.0561 3.62612C32.8734 3.60831 32.6894 3.64136 32.5244 3.72162L2.24948 18.4579C2.07526 18.5438 1.92989 18.6787 1.83123 18.846C1.73256 19.0133 1.68489 19.2058 1.69406 19.3998C1.70322 19.5938 1.76883 19.7809 1.88284 19.9382C1.99684 20.0954 2.15427 20.216 2.33581 20.2851L10.5496 23.3545L28.6399 8.75133L14.5061 24.832L28.2719 29.976C28.4085 30.0263 28.5544 30.046 28.6995 30.034C28.8445 30.0219 28.9852 29.9782 29.1116 29.9061C29.2381 29.8339 29.3472 29.735 29.4314 29.6163C29.5156 29.4976 29.5728 29.3618 29.5991 29.2187L33.9393 4.79141C33.9714 4.61058 33.9529 4.42439 33.8858 4.25341C33.8188 4.08243 33.7058 3.93332 33.5593 3.82254Z" fill="url(#paint0_linear_95_5980)"/>
  </g>
  <defs>
    <linearGradient id="paint0_linear_95_5980" x1="-3.35214" y1="19.9088" x2="21.403" y2="41.4007" gradientUnits="userSpaceOnUse">
      <stop stop-color="#5E45EC"/>
      <stop offset="1" stop-color="#EC75FF"/>
    </linearGradient>
    <clipPath id="clip0_95_5980">
      <rect width="33.6" height="33.6" fill="white" transform="translate(1.78125 0.881836) rotate(1.62003)"/>
    </clipPath>
  </defs>
</svg>