<svg width="220" height="51" viewBox="0 0 220 51" fill="none" xmlns="http://www.w3.org/2000/svg">
<g filter="url(#filter0_d_262_15911)">
<path d="M121.357 17.3315C121.229 15.9229 120.66 14.8281 119.648 14.0469C118.649 13.253 117.221 12.8561 115.365 12.8561C114.135 12.8561 113.111 13.0161 112.291 13.3363C111.472 13.6564 110.857 14.0982 110.447 14.6616C110.038 15.2122 109.826 15.8461 109.813 16.5632C109.788 17.1522 109.903 17.6708 110.159 18.119C110.428 18.5672 110.812 18.9642 111.312 19.3099C111.824 19.6429 112.439 19.9374 113.156 20.1935C113.873 20.4496 114.679 20.6737 115.576 20.8658L118.956 21.6341C120.903 22.0567 122.619 22.6201 124.104 23.3244C125.602 24.0287 126.857 24.8674 127.869 25.8406C128.893 26.8138 129.668 27.9343 130.193 29.202C130.718 30.4697 130.987 31.8911 131 33.4662C130.987 35.9504 130.36 38.0825 129.117 39.8624C127.875 41.6424 126.089 43.0061 123.758 43.9537C121.441 44.9013 118.643 45.3751 115.365 45.3751C112.074 45.3751 109.205 44.8821 106.759 43.8961C104.314 42.9101 102.412 41.4119 101.055 39.4015C99.6972 37.391 98.9994 34.8492 98.9609 31.7759H108.066C108.142 33.0436 108.482 34.1 109.084 34.9452C109.685 35.7903 110.511 36.4306 111.561 36.866C112.624 37.3014 113.854 37.5191 115.249 37.5191C116.53 37.5191 117.618 37.3462 118.515 37.0005C119.424 36.6547 120.122 36.1745 120.608 35.5599C121.095 34.9452 121.345 34.2409 121.357 33.447C121.345 32.7043 121.114 32.0704 120.666 31.5454C120.218 31.0076 119.526 30.5466 118.591 30.1624C117.669 29.7655 116.491 29.4005 115.057 29.0676L110.947 28.1072C107.54 27.326 104.858 26.0647 102.899 24.3232C100.939 22.5689 99.9662 20.1999 99.979 17.2163C99.9662 14.7833 100.619 12.6512 101.938 10.82C103.257 8.98885 105.082 7.56106 107.412 6.53664C109.743 5.51221 112.4 5 115.384 5C118.431 5 121.076 5.51861 123.317 6.55584C125.57 7.58027 127.318 9.02087 128.56 10.8776C129.803 12.7344 130.436 14.8857 130.462 17.3315H121.357Z" fill="white"/>
<path d="M61.998 44.8755V20L71.5 20.0001L71.506 22.1717H72.0246L73.5 20.0001H84.5L82.2817 23.0937L96.4763 44.8755H85.1052L75.3092 29.4131L71.506 34.2151V44.8755H61.998Z" fill="white"/>
<path d="M62 14V5.00008H71.5079V14.0003H77.5362L85.0303 5.05999L96 5L89 14.0001L84.5 14.0003H77.5362H71.5079H67L62 14Z" fill="white"/>
<path d="M55 20V45H46V20H55Z" fill="white"/>
<path d="M17 20L21.4384 34.3495H21.765L26 20H36.4106L27.9307 44.8755H15.2727L7 20H17Z" fill="white"/>
<path d="M12.6412 5.5376L15 14H28L30.5622 5.5376H41.2034L38.2677 14H4.88782L2 5.5376H12.6412Z" fill="white"/>
<path d="M45.9121 13.9285V5.47705H55.2088V13.9285H45.9121Z" fill="white"/>
</g>
<defs>
<filter id="filter0_d_262_15911" x="0.339502" y="0" width="221.321" height="54.321" filterUnits="userSpaceOnUse" color-interpolation-filters="sRGB">
<feFlood flood-opacity="0" result="BackgroundImageFix"/>
<feColorMatrix in="SourceAlpha" type="matrix" values="0 0 0 0 0 0 0 0 0 0 0 0 0 0 0 0 0 0 127 0" result="hardAlpha"/>
<feOffset dy="1.6605"/>
<feGaussianBlur stdDeviation="0.830249"/>
<feComposite in2="hardAlpha" operator="out"/>
<feColorMatrix type="matrix" values="0 0 0 0 0 0 0 0 0 0 0 0 0 0 0 0 0 0 0.25 0"/>
<feBlend mode="normal" in2="BackgroundImageFix" result="effect1_dropShadow_262_15911"/>
<feBlend mode="normal" in="SourceGraphic" in2="effect1_dropShadow_262_15911" result="shape"/>
</filter>
</defs>
</svg>
