<svg width="1265" height="168" viewBox="0 0 1265 168" fill="none" xmlns="http://www.w3.org/2000/svg">
<mask id="path-1-outside-1_98_1004" maskUnits="userSpaceOnUse" x="2" y="14" width="1238" height="149" fill="black">
<rect fill="white" x="2" y="14" width="1238" height="149"/>
<path d="M71.155 159.85C57.475 159.85 45.7583 156.873 36.005 150.92C26.2517 144.903 18.7467 136.543 13.49 125.84C8.29667 115.137 5.7 102.723 5.7 88.6C5.7 74.4767 8.29667 62.0633 13.49 51.36C18.7467 40.6567 26.2517 32.3283 36.005 26.375C45.7583 20.3583 57.475 17.35 71.155 17.35C84.835 17.35 96.5517 20.3583 106.305 26.375C116.122 32.3283 123.627 40.6567 128.82 51.36C134.077 62.0633 136.705 74.4767 136.705 88.6C136.705 102.723 134.077 115.137 128.82 125.84C123.627 136.543 116.122 144.903 106.305 150.92C96.5517 156.873 84.835 159.85 71.155 159.85ZM71.155 138.285C80.3383 138.348 87.97 136.322 94.05 132.205C100.193 128.088 104.785 122.293 107.825 114.82C110.928 107.347 112.48 98.6067 112.48 88.6C112.48 78.5933 110.928 69.9167 107.825 62.57C104.785 55.16 100.193 49.3967 94.05 45.28C87.97 41.1633 80.3383 39.0417 71.155 38.915C61.9717 38.8517 54.34 40.8783 48.26 44.995C42.18 49.1117 37.5883 54.9067 34.485 62.38C31.445 69.8533 29.925 78.5933 29.925 88.6C29.925 98.6067 31.445 107.315 34.485 114.725C37.525 122.072 42.085 127.803 48.165 131.92C54.3083 136.037 61.9717 138.158 71.155 138.285ZM212.614 159.85C201.721 159.85 192.126 157.633 183.829 153.2C175.596 148.767 169.136 142.528 164.449 134.485C159.826 126.442 157.514 117.005 157.514 106.175V20.39L180.694 20.2V105.605C180.694 110.735 181.549 115.327 183.259 119.38C185.033 123.433 187.408 126.885 190.384 129.735C193.361 132.522 196.781 134.643 200.644 136.1C204.508 137.557 208.498 138.285 212.614 138.285C216.858 138.285 220.879 137.557 224.679 136.1C228.543 134.58 231.963 132.427 234.939 129.64C237.916 126.79 240.259 123.338 241.969 119.285C243.679 115.232 244.534 110.672 244.534 105.605V20.2H267.714V106.175C267.714 117.005 265.371 126.442 260.684 134.485C256.061 142.528 249.601 148.767 241.304 153.2C233.071 157.633 223.508 159.85 212.614 159.85ZM296.162 157V20.2H352.687C354.017 20.2 355.727 20.2633 357.817 20.39C359.907 20.4533 361.839 20.6433 363.612 20.96C371.529 22.1633 378.052 24.7917 383.182 28.845C388.376 32.8983 392.207 38.0283 394.677 44.235C397.211 50.3783 398.477 57.2183 398.477 64.755C398.477 75.9017 395.659 85.4967 390.022 93.54C384.386 101.52 375.741 106.46 364.087 108.36L354.302 109.215H319.057V157H296.162ZM374.727 157L347.747 101.33L371.022 96.2L400.662 157H374.727ZM319.057 87.84H351.737C353.004 87.84 354.429 87.7767 356.012 87.65C357.596 87.5233 359.052 87.27 360.382 86.89C364.182 85.94 367.159 84.2617 369.312 81.855C371.529 79.4483 373.081 76.725 373.967 73.685C374.917 70.645 375.392 67.6683 375.392 64.755C375.392 61.8417 374.917 58.865 373.967 55.825C373.081 52.7217 371.529 49.9667 369.312 47.56C367.159 45.1533 364.182 43.475 360.382 42.525C359.052 42.145 357.596 41.9233 356.012 41.86C354.429 41.7333 353.004 41.67 351.737 41.67H319.057V87.84ZM521.284 159.85C507.604 159.85 495.888 156.873 486.134 150.92C476.381 144.903 468.876 136.543 463.619 125.84C458.426 115.137 455.829 102.723 455.829 88.6C455.829 74.4767 458.426 62.0633 463.619 51.36C468.876 40.6567 476.381 32.3283 486.134 26.375C495.888 20.3583 507.604 17.35 521.284 17.35C537.054 17.35 550.196 21.3083 560.709 29.225C571.223 37.0783 578.601 47.6867 582.844 61.05L559.759 67.415C557.099 58.485 552.571 51.5183 546.174 46.515C539.778 41.4483 531.481 38.915 521.284 38.915C512.101 38.915 504.438 40.9733 498.294 45.09C492.214 49.2067 487.623 55.0017 484.519 62.475C481.479 69.885 479.928 78.5933 479.864 88.6C479.864 98.6067 481.384 107.347 484.424 114.82C487.528 122.23 492.151 127.993 498.294 132.11C504.438 136.227 512.101 138.285 521.284 138.285C531.481 138.285 539.778 135.752 546.174 130.685C552.571 125.618 557.099 118.652 559.759 109.785L582.844 116.15C578.601 129.513 571.223 140.153 560.709 148.07C550.196 155.923 537.054 159.85 521.284 159.85ZM607.503 157V20.2H630.398V135.53H690.818V157H607.503ZM710.711 157V20.2H733.606V157H710.711ZM763.963 157V20.2H852.313V41.67H786.858V75.395H840.913V96.865H786.858V135.53H852.313V157H763.963ZM877.006 157V20.2H900.186L963.646 116.625V20.2H986.826V157H963.646L900.186 60.575V157H877.006ZM1048.15 157V41.67H1003.88V20.2H1115.32V41.67H1071.05V157H1048.15ZM1183.04 159.85C1173.04 159.85 1164.01 158.108 1155.97 154.625C1147.99 151.142 1141.4 146.17 1136.21 139.71C1131.08 133.187 1127.82 125.46 1126.42 116.53L1150.17 112.92C1152.2 121.027 1156.35 127.297 1162.62 131.73C1168.95 136.163 1176.23 138.38 1184.47 138.38C1189.34 138.38 1193.94 137.62 1198.24 136.1C1202.55 134.58 1206.03 132.363 1208.69 129.45C1211.42 126.537 1212.78 122.958 1212.78 118.715C1212.78 116.815 1212.46 115.073 1211.83 113.49C1211.19 111.843 1210.24 110.387 1208.98 109.12C1207.77 107.853 1206.19 106.713 1204.23 105.7C1202.33 104.623 1200.11 103.705 1197.58 102.945L1162.24 92.495C1159.2 91.6083 1155.9 90.4367 1152.36 88.98C1148.87 87.46 1145.55 85.4017 1142.38 82.805C1139.28 80.145 1136.71 76.7883 1134.69 72.735C1132.72 68.6183 1131.74 63.5517 1131.74 57.535C1131.74 48.7317 1133.96 41.3533 1138.39 35.4C1142.89 29.3833 1148.91 24.8867 1156.44 21.91C1164.04 18.9333 1172.47 17.4767 1181.71 17.54C1191.09 17.6033 1199.45 19.2183 1206.79 22.385C1214.14 25.4883 1220.28 30.0167 1225.22 35.97C1230.16 41.9233 1233.65 49.1117 1235.67 57.535L1211.07 61.81C1210.05 56.9967 1208.09 52.9117 1205.18 49.555C1202.33 46.135 1198.81 43.5383 1194.63 41.765C1190.52 39.9917 1186.11 39.0417 1181.43 38.915C1176.87 38.8517 1172.62 39.5483 1168.7 41.005C1164.83 42.3983 1161.7 44.425 1159.29 47.085C1156.95 49.745 1155.78 52.8483 1155.78 56.395C1155.78 59.7517 1156.79 62.5067 1158.82 64.66C1160.84 66.75 1163.35 68.4283 1166.32 69.695C1169.36 70.8983 1172.43 71.9117 1175.54 72.735L1200.05 79.575C1203.4 80.4617 1207.17 81.665 1211.35 83.185C1215.53 84.705 1219.55 86.8267 1223.42 89.55C1227.28 92.2733 1230.45 95.8517 1232.92 100.285C1235.45 104.718 1236.72 110.355 1236.72 117.195C1236.72 124.288 1235.23 130.527 1232.25 135.91C1229.34 141.23 1225.38 145.663 1220.38 149.21C1215.37 152.757 1209.64 155.417 1203.18 157.19C1196.79 158.963 1190.07 159.85 1183.04 159.85Z"/>
</mask>
<path d="M36.005 150.92L34.4299 153.473L34.436 153.477L34.442 153.481L36.005 150.92ZM13.49 125.84L10.7909 127.15L10.7941 127.156L10.7972 127.162L13.49 125.84ZM13.49 51.36L10.7972 50.0375L10.7941 50.0439L10.7909 50.0504L13.49 51.36ZM36.005 26.375L37.568 28.9357L37.574 28.932L37.5801 28.9283L36.005 26.375ZM106.305 26.375L104.73 28.9283L104.74 28.9342L104.749 28.9401L106.305 26.375ZM128.82 51.36L126.121 52.6696L126.124 52.676L126.127 52.6825L128.82 51.36ZM128.82 125.84L126.127 124.518L126.124 124.524L126.121 124.53L128.82 125.84ZM106.305 150.92L107.868 153.481L107.873 153.478L106.305 150.92ZM71.155 138.285L71.1136 141.285L71.124 141.285L71.1343 141.285L71.155 138.285ZM94.05 132.205L92.38 129.713L92.374 129.717L92.368 129.721L94.05 132.205ZM107.825 114.82L105.054 113.669L105.05 113.68L105.046 113.69L107.825 114.82ZM107.825 62.57L105.05 63.7087L105.055 63.723L105.061 63.7374L107.825 62.57ZM94.05 45.28L92.368 47.7641L92.374 47.7682L92.38 47.7722L94.05 45.28ZM71.155 38.915L71.1964 35.9153L71.186 35.9151L71.1757 35.9151L71.155 38.915ZM48.26 44.995L49.942 47.4791L48.26 44.995ZM34.485 62.38L31.7144 61.2295L31.7102 61.2395L31.7061 61.2496L34.485 62.38ZM34.485 114.725L31.7095 115.864L31.7129 115.872L34.485 114.725ZM48.165 131.92L46.483 134.404L46.489 134.408L46.495 134.412L48.165 131.92ZM71.155 156.85C57.917 156.85 46.7652 153.973 37.568 148.359L34.442 153.481C44.7515 159.773 57.033 162.85 71.155 162.85V156.85ZM37.5801 148.367C28.3279 142.659 21.2009 134.735 16.1828 124.518L10.7972 127.162C16.2925 138.352 24.1754 147.147 34.4299 153.473L37.5801 148.367ZM16.1891 124.53C11.2275 114.305 8.7 102.354 8.7 88.6H2.7C2.7 103.093 5.36584 115.969 10.7909 127.15L16.1891 124.53ZM8.7 88.6C8.7 74.8462 11.2275 62.8953 16.1891 52.6696L10.7909 50.0504C5.36584 61.2314 2.7 74.1071 2.7 88.6H8.7ZM16.1828 52.6825C21.1997 42.4674 28.3231 34.5787 37.568 28.9357L34.442 23.8143C24.1803 30.078 16.2937 38.8459 10.7972 50.0375L16.1828 52.6825ZM37.5801 28.9283C46.7753 23.2559 57.9226 20.35 71.155 20.35V14.35C57.0274 14.35 44.7414 17.4608 34.4299 23.8217L37.5801 28.9283ZM71.155 20.35C84.3874 20.35 95.5348 23.2559 104.73 28.9283L107.88 23.8217C97.5686 17.4608 85.2826 14.35 71.155 14.35V20.35ZM104.749 28.9401C114.053 34.5826 121.17 42.4663 126.121 52.6696L131.519 50.0504C126.083 38.847 118.19 30.0741 107.861 23.8098L104.749 28.9401ZM126.127 52.6825C131.148 62.905 133.705 74.8513 133.705 88.6H139.705C139.705 74.1021 137.006 61.2216 131.513 50.0375L126.127 52.6825ZM133.705 88.6C133.705 102.349 131.148 114.295 126.127 124.518L131.513 127.162C137.006 115.978 139.705 103.098 139.705 88.6H133.705ZM126.121 124.53C121.169 134.736 114.049 142.655 104.737 148.362L107.873 153.478C118.195 147.151 126.084 138.35 131.519 127.15L126.121 124.53ZM104.742 148.359C95.5448 153.973 84.393 156.85 71.155 156.85V162.85C85.277 162.85 97.5585 159.773 107.868 153.481L104.742 148.359ZM71.1343 141.285C80.7715 141.351 89.0364 139.223 95.732 134.689L92.368 129.721C86.9036 133.421 79.9052 135.345 71.1757 135.285L71.1343 141.285ZM95.72 134.697C102.406 130.217 107.36 123.925 110.604 115.95L105.046 113.69C102.21 120.661 97.9809 125.96 92.38 129.713L95.72 134.697ZM110.596 115.971C113.882 108.057 115.48 98.911 115.48 88.6H109.48C109.48 98.3024 107.975 106.636 105.054 113.669L110.596 115.971ZM115.48 88.6C115.48 78.291 113.882 69.1999 110.589 61.4026L105.061 63.7374C107.974 70.6335 109.48 78.8957 109.48 88.6H115.48ZM110.601 61.4313C107.354 53.5183 102.399 47.2636 95.72 42.7878L92.38 47.7722C97.9873 51.5297 102.216 56.8017 105.05 63.7087L110.601 61.4313ZM95.732 42.7959C89.0584 38.2773 80.8183 36.048 71.1964 35.9153L71.1136 41.9147C79.8583 42.0353 86.8816 44.0494 92.368 47.7641L95.732 42.7959ZM71.1757 35.9151C61.5385 35.8486 53.2736 37.9774 46.578 42.5109L49.942 47.4791C55.4064 43.7793 62.4048 41.8547 71.1343 41.9149L71.1757 35.9151ZM46.578 42.5109C39.9636 46.9894 35.0187 53.2722 31.7144 61.2295L37.2556 63.5305C40.158 56.5411 44.3964 51.2339 49.942 47.4791L46.578 42.5109ZM31.7061 61.2496C28.4896 69.1569 26.925 78.2959 26.925 88.6H32.925C32.925 78.8908 34.4004 70.5498 37.2639 63.5104L31.7061 61.2496ZM26.925 88.6C26.925 98.9032 28.4893 108.014 31.7095 115.864L37.2605 113.586C34.4007 106.616 32.925 98.3101 32.925 88.6H26.925ZM31.7129 115.872C34.9581 123.715 39.8761 129.931 46.483 134.404L49.847 129.436C44.2939 125.676 40.0919 120.429 37.257 113.578L31.7129 115.872ZM46.495 134.412C53.2255 138.922 61.4904 141.152 71.1136 141.285L71.1964 135.285C62.453 135.165 55.3911 133.151 49.835 129.428L46.495 134.412ZM183.829 153.2L182.407 155.841L182.416 155.846L183.829 153.2ZM164.449 134.485L161.849 135.98L161.853 135.988L161.857 135.995L164.449 134.485ZM157.514 20.39L157.49 17.3901L154.514 17.4145V20.39H157.514ZM180.694 20.2H183.694V17.1753L180.67 17.2001L180.694 20.2ZM183.259 119.38L180.495 120.546L180.503 120.564L180.511 120.582L183.259 119.38ZM190.384 129.735L188.31 131.902L188.322 131.914L188.334 131.925L190.384 129.735ZM224.679 136.1L225.753 138.901L225.766 138.897L225.778 138.892L224.679 136.1ZM234.939 129.64L236.99 131.83L237.002 131.819L237.014 131.807L234.939 129.64ZM244.534 20.2V17.2H241.534V20.2H244.534ZM267.714 20.2H270.714V17.2H267.714V20.2ZM260.684 134.485L258.092 132.975L258.088 132.982L258.084 132.99L260.684 134.485ZM241.304 153.2L239.891 150.554L239.882 150.559L241.304 153.2ZM212.614 156.85C202.136 156.85 193.041 154.721 185.243 150.554L182.416 155.846C191.212 160.546 201.306 162.85 212.614 162.85V156.85ZM185.252 150.559C177.503 146.386 171.449 140.538 167.042 132.975L161.857 135.995C166.824 144.519 173.689 151.147 182.407 155.841L185.252 150.559ZM167.05 132.99C162.729 125.473 160.514 116.569 160.514 106.175H154.514C154.514 117.441 156.923 127.411 161.849 135.98L167.05 132.99ZM160.514 106.175V20.39H154.514V106.175H160.514ZM157.539 23.3899L180.719 23.1999L180.67 17.2001L157.49 17.3901L157.539 23.3899ZM177.694 20.2V105.605H183.694V20.2H177.694ZM177.694 105.605C177.694 111.07 178.606 116.068 180.495 120.546L186.024 118.214C184.493 114.586 183.694 110.4 183.694 105.605H177.694ZM180.511 120.582C182.431 124.972 185.026 128.758 188.31 131.902L192.459 127.568C189.789 125.012 187.634 121.895 186.008 118.178L180.511 120.582ZM188.334 131.925C191.602 134.984 195.36 137.314 199.586 138.907L201.703 133.293C198.203 131.973 195.121 130.059 192.435 127.545L188.334 131.925ZM199.586 138.907C203.787 140.491 208.135 141.285 212.614 141.285V135.285C208.86 135.285 205.229 134.622 201.703 133.293L199.586 138.907ZM212.614 141.285C217.209 141.285 221.596 140.495 225.753 138.901L223.606 133.299C220.163 134.618 216.507 135.285 212.614 135.285V141.285ZM225.778 138.892C229.987 137.236 233.731 134.88 236.99 131.83L232.889 127.45C230.194 129.973 227.099 131.924 223.581 133.308L225.778 138.892ZM237.014 131.807C240.306 128.655 242.875 124.856 244.734 120.451L239.205 118.119C237.644 121.821 235.526 124.925 232.865 127.473L237.014 131.807ZM244.734 120.451C246.621 115.977 247.534 111.012 247.534 105.605H241.534C241.534 110.331 240.738 114.486 239.205 118.119L244.734 120.451ZM247.534 105.605V20.2H241.534V105.605H247.534ZM244.534 23.2H267.714V17.2H244.534V23.2ZM264.714 20.2V106.175H270.714V20.2H264.714ZM264.714 106.175C264.714 116.562 262.471 125.46 258.092 132.975L263.277 135.995C268.271 127.423 270.714 117.448 270.714 106.175H264.714ZM258.084 132.99C253.744 140.539 247.699 146.382 239.891 150.554L242.718 155.846C251.503 151.152 258.378 144.518 263.285 135.98L258.084 132.99ZM239.882 150.559C232.153 154.72 223.094 156.85 212.614 156.85V162.85C223.922 162.85 233.989 160.546 242.727 155.841L239.882 150.559ZM296.162 157H293.162V160H296.162V157ZM296.162 20.2V17.2H293.162V20.2H296.162ZM357.818 20.39L357.636 23.3845L357.681 23.3872L357.727 23.3886L357.818 20.39ZM363.612 20.96L363.085 23.9133L363.123 23.9201L363.162 23.9259L363.612 20.96ZM383.182 28.845L381.323 31.1989L381.33 31.2044L381.337 31.2099L383.182 28.845ZM394.677 44.235L391.89 45.3443L391.897 45.3615L391.904 45.3787L394.677 44.235ZM390.022 93.54L392.473 95.2708L392.479 95.2617L390.022 93.54ZM364.087 108.36L364.349 111.349L364.46 111.339L364.57 111.321L364.087 108.36ZM354.302 109.215V112.215H354.433L354.564 112.204L354.302 109.215ZM319.057 109.215V106.215H316.057V109.215H319.057ZM319.057 157V160H322.057V157H319.057ZM374.728 157L372.028 158.308L372.848 160H374.728V157ZM347.747 101.33L347.102 98.4003L343.39 99.2183L345.048 102.638L347.747 101.33ZM371.022 96.2L373.719 94.8854L372.684 92.7618L370.377 93.2703L371.022 96.2ZM400.662 157V160H405.462L403.359 155.685L400.662 157ZM319.057 87.84H316.057V90.84H319.057V87.84ZM356.012 87.65L356.252 90.6404L356.012 87.65ZM360.382 86.89L359.655 83.9796L359.606 83.9917L359.558 84.0054L360.382 86.89ZM369.312 81.855L367.106 79.8226L367.091 79.8385L367.077 79.8546L369.312 81.855ZM373.967 73.685L371.104 72.7902L371.096 72.8175L371.087 72.845L373.967 73.685ZM373.967 55.825L371.083 56.6492L371.093 56.6846L371.104 56.7198L373.967 55.825ZM369.312 47.56L367.077 49.5604L367.091 49.5765L367.106 49.5924L369.312 47.56ZM360.382 42.525L359.558 45.4096L359.606 45.4233L359.655 45.4354L360.382 42.525ZM356.012 41.86L355.773 44.8504L355.833 44.8552L355.893 44.8576L356.012 41.86ZM319.057 41.67V38.67H316.057V41.67H319.057ZM299.162 157V20.2H293.162V157H299.162ZM296.162 23.2H352.688V17.2H296.162V23.2ZM352.688 23.2C353.933 23.2 355.576 23.2597 357.636 23.3845L357.999 17.3955C355.879 17.267 354.102 17.2 352.688 17.2V23.2ZM357.727 23.3886C359.693 23.4482 361.477 23.6261 363.085 23.9133L364.14 18.0067C362.202 17.6606 360.122 17.4585 357.908 17.3914L357.727 23.3886ZM363.162 23.9259C370.678 25.0685 376.684 27.5336 381.323 31.1989L385.042 26.4911C379.421 22.0497 372.38 19.2582 364.063 17.9941L363.162 23.9259ZM381.337 31.2099C386.104 34.9309 389.614 39.625 391.89 45.3443L397.465 43.1257C394.801 36.4316 390.647 30.8658 385.028 26.48L381.337 31.2099ZM391.904 45.3787C394.269 51.1138 395.477 57.5583 395.477 64.755H401.477C401.477 56.8783 400.153 49.6429 397.451 43.0913L391.904 45.3787ZM395.477 64.755C395.477 75.3718 392.802 84.3458 387.566 91.8183L392.479 95.2617C398.516 86.6475 401.477 76.4315 401.477 64.755H395.477ZM387.572 91.8092C382.494 98.9983 374.641 103.6 363.605 105.399L364.57 111.321C376.841 109.32 386.278 104.042 392.473 95.2708L387.572 91.8092ZM363.826 105.371L354.041 106.226L354.564 112.204L364.349 111.349L363.826 105.371ZM354.302 106.215H319.057V112.215H354.302V106.215ZM316.057 109.215V157H322.057V109.215H316.057ZM319.057 154H296.162V160H319.057V154ZM377.427 155.692L350.447 100.022L345.048 102.638L372.028 158.308L377.427 155.692ZM348.393 104.26L371.668 99.1297L370.377 93.2703L347.102 98.4003L348.393 104.26ZM368.326 97.5146L397.966 158.315L403.359 155.685L373.719 94.8854L368.326 97.5146ZM400.662 154H374.728V160H400.662V154ZM319.057 90.84H351.737V84.84H319.057V90.84ZM351.737 90.84C353.101 90.84 354.608 90.772 356.252 90.6404L355.773 84.6596C354.251 84.7814 352.907 84.84 351.737 84.84V90.84ZM356.252 90.6404C358.005 90.5002 359.66 90.2165 361.207 89.7746L359.558 84.0054C358.445 84.3235 357.187 84.5464 355.773 84.6596L356.252 90.6404ZM361.11 89.8004C365.367 88.7362 368.916 86.7971 371.548 83.8554L367.077 79.8546C365.402 81.7262 362.998 83.1438 359.655 83.9796L361.11 89.8004ZM371.519 83.8874C374.038 81.1522 375.827 78.0241 376.848 74.525L371.087 72.845C370.335 75.4259 369.02 77.7445 367.106 79.8226L371.519 83.8874ZM376.831 74.5798C377.863 71.277 378.392 67.9987 378.392 64.755H372.392C372.392 67.338 371.972 70.013 371.104 72.7902L376.831 74.5798ZM378.392 64.755C378.392 61.5113 377.863 58.233 376.831 54.9302L371.104 56.7198C371.972 59.497 372.392 62.172 372.392 64.755H378.392ZM376.852 55.0008C375.835 51.441 374.048 48.2737 371.519 45.5276L367.106 49.5924C369.01 51.6597 370.327 54.0023 371.083 56.6492L376.852 55.0008ZM371.548 45.5596C368.916 42.6179 365.367 40.6788 361.11 39.6146L359.655 45.4354C362.998 46.2712 365.402 47.6888 367.077 49.5604L371.548 45.5596ZM361.207 39.6404C359.617 39.1862 357.92 38.9339 356.132 38.8624L355.893 44.8576C357.271 44.9127 358.488 45.1038 359.558 45.4096L361.207 39.6404ZM356.252 38.8696C354.608 38.738 353.101 38.67 351.737 38.67V44.67C352.907 44.67 354.251 44.7286 355.773 44.8504L356.252 38.8696ZM351.737 38.67H319.057V44.67H351.737V38.67ZM316.057 41.67V87.84H322.057V41.67H316.057ZM486.134 150.92L484.559 153.473L484.565 153.477L484.571 153.481L486.134 150.92ZM463.619 125.84L460.92 127.15L460.923 127.156L460.927 127.162L463.619 125.84ZM463.619 51.36L460.927 50.0375L460.923 50.0439L460.92 50.0504L463.619 51.36ZM486.134 26.375L487.697 28.9357L487.703 28.932L487.709 28.9283L486.134 26.375ZM560.709 29.225L558.905 31.6215L558.914 31.6285L560.709 29.225ZM582.844 61.05L583.642 63.9421L586.647 63.1134L585.704 60.1421L582.844 61.05ZM559.759 67.415L556.884 68.2714L557.723 71.0883L560.557 70.3071L559.759 67.415ZM546.174 46.515L544.312 48.8667L544.319 48.8723L544.326 48.878L546.174 46.515ZM498.294 45.09L496.624 42.5978L496.618 42.6018L496.612 42.6058L498.294 45.09ZM484.519 62.475L481.749 61.3245L481.744 61.3363L484.519 62.475ZM479.864 88.6L476.864 88.581L476.864 88.5905V88.6H479.864ZM484.424 114.82L481.645 115.95L481.651 115.965L481.657 115.979L484.424 114.82ZM498.294 132.11L499.964 129.618L498.294 132.11ZM546.174 130.685L544.312 128.333L546.174 130.685ZM559.759 109.785L560.557 106.893L557.729 106.113L556.886 108.923L559.759 109.785ZM582.844 116.15L585.704 117.058L586.647 114.087L583.642 113.258L582.844 116.15ZM560.709 148.07L562.505 150.473L562.514 150.467L560.709 148.07ZM521.284 156.85C508.046 156.85 496.895 153.973 487.697 148.359L484.571 153.481C494.881 159.773 507.162 162.85 521.284 162.85V156.85ZM487.709 148.367C478.457 142.659 471.33 134.735 466.312 124.518L460.927 127.162C466.422 138.352 474.305 147.147 484.559 153.473L487.709 148.367ZM466.318 124.53C461.357 114.305 458.829 102.354 458.829 88.6H452.829C452.829 103.093 455.495 115.969 460.92 127.15L466.318 124.53ZM458.829 88.6C458.829 74.8462 461.357 62.8953 466.318 52.6696L460.92 50.0504C455.495 61.2314 452.829 74.1071 452.829 88.6H458.829ZM466.312 52.6825C471.329 42.4674 478.452 34.5787 487.697 28.9357L484.571 23.8143C474.31 30.078 466.423 38.8459 460.927 50.0375L466.312 52.6825ZM487.709 28.9283C496.905 23.2559 508.052 20.35 521.284 20.35V14.35C507.157 14.35 494.871 17.4608 484.559 23.8217L487.709 28.9283ZM521.284 20.35C536.536 20.35 549.008 24.1696 558.905 31.6215L562.514 26.8285C551.383 18.4471 537.573 14.35 521.284 14.35V20.35ZM558.914 31.6285C568.89 39.0804 575.918 49.1487 579.985 61.9579L585.704 60.1421C581.284 46.2246 573.555 35.0763 562.505 26.8215L558.914 31.6285ZM582.047 58.1579L558.962 64.5229L560.557 70.3071L583.642 63.9421L582.047 58.1579ZM562.634 66.5586C559.824 57.1231 554.979 49.5935 548.023 44.152L544.326 48.878C550.162 53.4432 554.375 59.8469 556.884 68.2714L562.634 66.5586ZM548.037 44.1633C540.989 38.581 531.985 35.915 521.284 35.915V41.915C530.977 41.915 538.566 44.3157 544.312 48.8667L548.037 44.1633ZM521.284 35.915C511.651 35.915 503.369 38.0779 496.624 42.5978L499.964 47.5822C505.506 43.8688 512.551 41.915 521.284 41.915V35.915ZM496.612 42.6058C489.998 47.0844 485.053 53.3672 481.749 61.3245L487.29 63.6255C490.192 56.6361 494.431 51.3289 499.976 47.5741L496.612 42.6058ZM481.744 61.3363C478.527 69.1783 476.93 78.2826 476.864 88.581L482.864 88.619C482.926 78.9041 484.432 70.5917 487.295 63.6137L481.744 61.3363ZM476.864 88.6C476.864 98.9041 478.429 108.043 481.645 115.95L487.203 113.69C484.34 106.65 482.864 98.3092 482.864 88.6H476.864ZM481.657 115.979C484.967 123.882 489.95 130.13 496.624 134.602L499.964 129.618C494.352 125.857 490.088 120.578 487.191 113.661L481.657 115.979ZM496.624 134.602C503.369 139.122 511.651 141.285 521.284 141.285V135.285C512.551 135.285 505.506 133.331 499.964 129.618L496.624 134.602ZM521.284 141.285C531.985 141.285 540.989 138.619 548.037 133.037L544.312 128.333C538.566 132.884 530.977 135.285 521.284 135.285V141.285ZM548.037 133.037C554.978 127.539 559.821 120.02 562.633 110.647L556.886 108.923C554.378 117.283 550.164 123.698 544.312 128.333L548.037 133.037ZM558.962 112.677L582.047 119.042L583.642 113.258L560.557 106.893L558.962 112.677ZM579.985 115.242C575.917 128.053 568.887 138.157 558.905 145.673L562.514 150.467C573.558 142.15 581.285 130.974 585.704 117.058L579.985 115.242ZM558.914 145.667C549.017 153.059 536.541 156.85 521.284 156.85V162.85C537.567 162.85 551.375 158.787 562.505 150.473L558.914 145.667ZM607.503 157H604.503V160H607.503V157ZM607.503 20.2V17.2H604.503V20.2H607.503ZM630.398 20.2H633.398V17.2H630.398V20.2ZM630.398 135.53H627.398V138.53H630.398V135.53ZM690.818 135.53H693.818V132.53H690.818V135.53ZM690.818 157V160H693.818V157H690.818ZM610.503 157V20.2H604.503V157H610.503ZM607.503 23.2H630.398V17.2H607.503V23.2ZM627.398 20.2V135.53H633.398V20.2H627.398ZM630.398 138.53H690.818V132.53H630.398V138.53ZM687.818 135.53V157H693.818V135.53H687.818ZM690.818 154H607.503V160H690.818V154ZM710.711 157H707.711V160H710.711V157ZM710.711 20.2V17.2H707.711V20.2H710.711ZM733.606 20.2H736.606V17.2H733.606V20.2ZM733.606 157V160H736.606V157H733.606ZM713.711 157V20.2H707.711V157H713.711ZM710.711 23.2H733.606V17.2H710.711V23.2ZM730.606 20.2V157H736.606V20.2H730.606ZM733.606 154H710.711V160H733.606V154ZM763.963 157H760.963V160H763.963V157ZM763.963 20.2V17.2H760.963V20.2H763.963ZM852.313 20.2H855.313V17.2H852.313V20.2ZM852.313 41.67V44.67H855.313V41.67H852.313ZM786.858 41.67V38.67H783.858V41.67H786.858ZM786.858 75.395H783.858V78.395H786.858V75.395ZM840.913 75.395H843.913V72.395H840.913V75.395ZM840.913 96.865V99.865H843.913V96.865H840.913ZM786.858 96.865V93.865H783.858V96.865H786.858ZM786.858 135.53H783.858V138.53H786.858V135.53ZM852.313 135.53H855.313V132.53H852.313V135.53ZM852.313 157V160H855.313V157H852.313ZM766.963 157V20.2H760.963V157H766.963ZM763.963 23.2H852.313V17.2H763.963V23.2ZM849.313 20.2V41.67H855.313V20.2H849.313ZM852.313 38.67H786.858V44.67H852.313V38.67ZM783.858 41.67V75.395H789.858V41.67H783.858ZM786.858 78.395H840.913V72.395H786.858V78.395ZM837.913 75.395V96.865H843.913V75.395H837.913ZM840.913 93.865H786.858V99.865H840.913V93.865ZM783.858 96.865V135.53H789.858V96.865H783.858ZM786.858 138.53H852.313V132.53H786.858V138.53ZM849.313 135.53V157H855.313V135.53H849.313ZM852.313 154H763.963V160H852.313V154ZM877.006 157H874.006V160H877.006V157ZM877.006 20.2V17.2H874.006V20.2H877.006ZM900.186 20.2L902.692 18.5507L901.803 17.2H900.186V20.2ZM963.646 116.625L961.14 118.274L966.646 126.64V116.625H963.646ZM963.646 20.2V17.2H960.646V20.2H963.646ZM986.826 20.2H989.826V17.2H986.826V20.2ZM986.826 157V160H989.826V157H986.826ZM963.646 157L961.14 158.649L962.029 160H963.646V157ZM900.186 60.575L902.692 58.9257L897.186 50.5596V60.575H900.186ZM900.186 157V160H903.186V157H900.186ZM880.006 157V20.2H874.006V157H880.006ZM877.006 23.2H900.186V17.2H877.006V23.2ZM897.68 21.8493L961.14 118.274L966.152 114.976L902.692 18.5507L897.68 21.8493ZM966.646 116.625V20.2H960.646V116.625H966.646ZM963.646 23.2H986.826V17.2H963.646V23.2ZM983.826 20.2V157H989.826V20.2H983.826ZM986.826 154H963.646V160H986.826V154ZM966.152 155.351L902.692 58.9257L897.68 62.2242L961.14 158.649L966.152 155.351ZM897.186 60.575V157H903.186V60.575H897.186ZM900.186 154H877.006V160H900.186V154ZM1048.15 157H1045.15V160H1048.15V157ZM1048.15 41.67H1051.15V38.67H1048.15V41.67ZM1003.88 41.67H1000.88V44.67H1003.88V41.67ZM1003.88 20.2V17.2H1000.88V20.2H1003.88ZM1115.32 20.2H1118.32V17.2H1115.32V20.2ZM1115.32 41.67V44.67H1118.32V41.67H1115.32ZM1071.05 41.67V38.67H1068.05V41.67H1071.05ZM1071.05 157V160H1074.05V157H1071.05ZM1051.15 157V41.67H1045.15V157H1051.15ZM1048.15 38.67H1003.88V44.67H1048.15V38.67ZM1006.88 41.67V20.2H1000.88V41.67H1006.88ZM1003.88 23.2H1115.32V17.2H1003.88V23.2ZM1112.32 20.2V41.67H1118.32V20.2H1112.32ZM1115.32 38.67H1071.05V44.67H1115.32V38.67ZM1068.05 41.67V157H1074.05V41.67H1068.05ZM1071.05 154H1048.15V160H1071.05V154ZM1155.97 154.625L1154.77 157.374L1154.78 157.378L1155.97 154.625ZM1136.21 139.71L1133.85 141.564L1133.86 141.577L1133.87 141.59L1136.21 139.71ZM1126.42 116.53L1125.97 113.564L1122.99 114.017L1123.46 116.992L1126.42 116.53ZM1150.17 112.92L1153.08 112.192L1152.42 109.544L1149.72 109.954L1150.17 112.92ZM1162.62 131.73L1160.89 134.18L1160.89 134.184L1160.9 134.188L1162.62 131.73ZM1198.24 136.1L1199.24 138.929L1198.24 136.1ZM1208.69 129.45L1206.5 127.401L1206.49 127.414L1206.48 127.427L1208.69 129.45ZM1211.83 113.49L1209.03 114.567L1209.03 114.586L1209.04 114.604L1211.83 113.49ZM1208.98 109.12L1206.8 111.186L1206.83 111.214L1206.86 111.241L1208.98 109.12ZM1204.23 105.7L1202.75 108.31L1202.8 108.339L1202.85 108.366L1204.23 105.7ZM1197.58 102.945L1198.44 100.071L1198.43 100.068L1197.58 102.945ZM1162.24 92.495L1163.09 89.6181L1163.08 89.615L1162.24 92.495ZM1152.36 88.98L1151.16 91.7296L1151.19 91.7427L1151.22 91.7551L1152.36 88.98ZM1142.38 82.805L1140.43 85.0828L1140.45 85.1041L1140.48 85.1248L1142.38 82.805ZM1134.69 72.735L1131.98 74.0264L1131.99 74.0516L1132 74.0766L1134.69 72.735ZM1138.39 35.4L1135.99 33.604L1135.99 33.6082L1138.39 35.4ZM1156.44 21.91L1155.35 19.1166L1155.34 19.1197L1156.44 21.91ZM1181.71 17.54L1181.69 20.5399L1181.69 20.5399L1181.71 17.54ZM1206.79 22.385L1205.6 25.14L1205.61 25.1443L1205.62 25.1486L1206.79 22.385ZM1225.22 35.97L1227.53 34.0543V34.0543L1225.22 35.97ZM1235.67 57.535L1236.19 60.4907L1239.34 59.9432L1238.59 56.8332L1235.67 57.535ZM1211.07 61.81L1208.13 62.428L1208.73 65.2614L1211.58 64.7657L1211.07 61.81ZM1205.18 49.555L1202.87 51.4755L1202.89 51.4987L1202.91 51.5214L1205.18 49.555ZM1194.63 41.765L1193.45 44.5202L1193.45 44.5235L1193.46 44.5267L1194.63 41.765ZM1181.43 38.915L1181.51 35.9161L1181.49 35.9156L1181.47 35.9153L1181.43 38.915ZM1168.7 41.005L1169.72 43.8271L1169.73 43.8224L1169.74 43.8177L1168.7 41.005ZM1159.29 47.085L1157.07 45.0723L1157.05 45.087L1157.04 45.1019L1159.29 47.085ZM1158.82 64.66L1156.63 66.7161L1156.65 66.7324L1156.66 66.7484L1158.82 64.66ZM1166.32 69.695L1165.15 72.4555L1165.18 72.4704L1165.22 72.4844L1166.32 69.695ZM1175.54 72.735L1176.34 69.8454L1176.33 69.8402L1176.31 69.8353L1175.54 72.735ZM1200.05 79.575L1199.24 82.4646L1199.26 82.4702L1199.28 82.4755L1200.05 79.575ZM1211.35 83.185L1210.33 86.0044L1211.35 83.185ZM1232.92 100.285L1230.3 101.745L1230.3 101.759L1230.31 101.773L1232.92 100.285ZM1232.25 135.91L1229.63 134.458L1229.62 134.469L1232.25 135.91ZM1220.38 149.21L1222.11 151.657L1220.38 149.21ZM1203.18 157.19L1202.39 154.297L1202.38 154.299L1203.18 157.19ZM1183.04 156.85C1173.39 156.85 1164.78 155.171 1157.16 151.872L1154.78 157.378C1163.24 161.046 1172.68 162.85 1183.04 162.85V156.85ZM1157.17 151.876C1149.61 148.576 1143.42 143.894 1138.55 137.83L1133.87 141.59C1139.38 148.446 1146.37 153.707 1154.77 157.374L1157.17 151.876ZM1138.57 137.856C1133.78 131.772 1130.71 124.536 1129.39 116.068L1123.46 116.992C1124.92 126.384 1128.37 134.601 1133.85 141.564L1138.57 137.856ZM1126.87 119.496L1150.62 115.886L1149.72 109.954L1125.97 113.564L1126.87 119.496ZM1147.26 113.648C1149.45 122.385 1153.98 129.294 1160.89 134.18L1164.35 129.28C1158.72 125.299 1154.95 119.669 1153.08 112.192L1147.26 113.648ZM1160.9 134.188C1167.77 138.997 1175.66 141.38 1184.47 141.38V135.38C1176.81 135.38 1170.13 133.329 1164.34 129.272L1160.9 134.188ZM1184.47 141.38C1189.66 141.38 1194.59 140.57 1199.24 138.929L1197.24 133.271C1193.28 134.67 1189.03 135.38 1184.47 135.38V141.38ZM1199.24 138.929C1203.94 137.271 1207.87 134.805 1210.91 131.473L1206.48 127.427C1204.2 129.922 1201.16 131.889 1197.24 133.271L1199.24 138.929ZM1210.88 131.499C1214.16 127.992 1215.78 123.666 1215.78 118.715H1209.78C1209.78 122.251 1208.67 125.082 1206.5 127.401L1210.88 131.499ZM1215.78 118.715C1215.78 116.477 1215.4 114.352 1214.61 112.376L1209.04 114.604C1209.52 115.795 1209.78 117.153 1209.78 118.715H1215.78ZM1214.63 112.413C1213.84 110.368 1212.66 108.557 1211.1 106.999L1206.86 111.241C1207.83 112.216 1208.55 113.318 1209.03 114.567L1214.63 112.413ZM1211.15 107.054C1209.67 105.489 1207.79 104.162 1205.6 103.034L1202.85 108.366C1204.59 109.264 1205.88 110.217 1206.8 111.186L1211.15 107.054ZM1205.71 103.09C1203.58 101.882 1201.14 100.883 1198.44 100.072L1196.72 105.818C1199.08 106.527 1201.08 107.364 1202.75 108.31L1205.71 103.09ZM1198.43 100.068L1163.09 89.6181L1161.39 95.3719L1196.73 105.822L1198.43 100.068ZM1163.08 89.615C1160.16 88.7634 1156.97 87.6294 1153.5 86.2049L1151.22 91.7551C1154.84 93.2439 1158.24 94.4533 1161.4 95.375L1163.08 89.615ZM1153.56 86.2304C1150.35 84.8289 1147.25 82.9205 1144.28 80.4852L1140.48 85.1248C1143.84 87.8829 1147.4 90.0911 1151.16 91.7296L1153.56 86.2304ZM1144.33 80.5272C1141.57 78.1544 1139.24 75.128 1137.37 71.3934L1132 74.0766C1134.19 78.4486 1136.99 82.1356 1140.43 85.0828L1144.33 80.5272ZM1137.4 71.4436C1135.68 67.8375 1134.74 63.2412 1134.74 57.535H1128.74C1128.74 63.8621 1129.77 69.3991 1131.98 74.0264L1137.4 71.4436ZM1134.74 57.535C1134.74 49.2534 1136.82 42.5361 1140.8 37.1918L1135.99 33.6082C1131.1 40.1706 1128.74 48.2099 1128.74 57.535H1134.74ZM1140.8 37.1959C1144.93 31.6601 1150.48 27.4893 1157.54 24.7003L1155.34 19.1197C1147.33 22.284 1140.85 27.1066 1135.99 33.604L1140.8 37.1959ZM1157.54 24.7034C1164.74 21.883 1172.78 20.4789 1181.69 20.5399L1181.73 14.5401C1172.16 14.4745 1163.35 15.9836 1155.35 19.1166L1157.54 24.7034ZM1181.69 20.5399C1190.73 20.601 1198.68 22.1571 1205.6 25.14L1207.98 19.63C1200.21 16.2795 1191.44 14.6056 1181.73 14.5401L1181.69 20.5399ZM1205.62 25.1486C1212.54 28.0708 1218.29 32.314 1222.91 37.8857L1227.53 34.0543C1222.27 27.7193 1215.74 22.9059 1207.96 19.6214L1205.62 25.1486ZM1222.91 37.8857C1227.53 43.4458 1230.82 50.2053 1232.76 58.2368L1238.59 56.8332C1236.47 48.018 1232.8 40.4008 1227.53 34.0543L1222.91 37.8857ZM1235.16 54.5793L1210.55 58.8543L1211.58 64.7657L1236.19 60.4907L1235.16 54.5793ZM1214 61.192C1212.9 55.9339 1210.73 51.3704 1207.44 47.5886L1202.91 51.5214C1205.46 54.4529 1207.21 58.0594 1208.13 62.428L1214 61.192ZM1207.48 47.6344C1204.32 43.8404 1200.41 40.959 1195.8 39.0033L1193.46 44.5267C1197.21 46.1176 1200.33 48.4296 1202.87 51.4755L1207.48 47.6344ZM1195.82 39.0098C1191.34 37.0789 1186.56 36.0526 1181.51 35.9161L1181.35 41.9139C1185.67 42.0308 1189.69 42.9045 1193.45 44.5202L1195.82 39.0098ZM1181.47 35.9153C1176.57 35.8473 1171.96 36.5959 1167.65 38.1923L1169.74 43.8177C1173.29 42.5008 1177.16 41.8561 1181.39 41.9147L1181.47 35.9153ZM1167.68 38.1829C1163.42 39.7187 1159.85 41.9979 1157.07 45.0723L1161.52 49.0977C1163.55 46.8521 1166.25 45.078 1169.72 43.8271L1167.68 38.1829ZM1157.04 45.1019C1154.22 48.3101 1152.78 52.1186 1152.78 56.395H1158.78C1158.78 53.5781 1159.68 51.1799 1161.54 49.0681L1157.04 45.1019ZM1152.78 56.395C1152.78 60.4045 1154.01 63.9301 1156.63 66.7161L1161 62.6039C1159.57 61.0832 1158.78 59.0988 1158.78 56.395H1152.78ZM1156.66 66.7484C1159 69.1558 1161.84 71.0497 1165.15 72.4555L1167.5 66.9345C1164.85 65.807 1162.69 64.3442 1160.97 62.5716L1156.66 66.7484ZM1165.22 72.4844C1168.37 73.7302 1171.55 74.7806 1174.77 75.6347L1176.31 69.8353C1173.32 69.0427 1170.36 68.0664 1167.43 66.9056L1165.22 72.4844ZM1174.73 75.6246L1199.24 82.4646L1200.85 76.6854L1176.34 69.8454L1174.73 75.6246ZM1199.28 82.4755C1202.53 83.3337 1206.21 84.5072 1210.33 86.0044L1212.38 80.3656C1208.13 78.8228 1204.28 77.5896 1200.81 76.6745L1199.28 82.4755ZM1210.33 86.0044C1214.24 87.4281 1218.03 89.4222 1221.69 92.002L1225.15 87.098C1221.08 84.2312 1216.82 81.9819 1212.38 80.3656L1210.33 86.0044ZM1221.69 92.002C1225.16 94.4471 1228.03 97.6756 1230.3 101.745L1235.54 98.8249C1232.87 94.0277 1229.4 90.0996 1225.15 87.098L1221.69 92.002ZM1230.31 101.773C1232.51 105.625 1233.72 110.706 1233.72 117.195H1239.72C1239.72 110.004 1238.39 103.812 1235.52 98.7966L1230.31 101.773ZM1233.72 117.195C1233.72 123.859 1232.32 129.583 1229.63 134.458L1234.88 137.362C1238.14 131.47 1239.72 124.718 1239.72 117.195H1233.72ZM1229.62 134.469C1226.93 139.385 1223.28 143.476 1218.64 146.763L1222.11 151.657C1227.48 147.851 1231.75 143.075 1234.88 137.351L1229.62 134.469ZM1218.64 146.763C1213.95 150.089 1208.54 152.608 1202.39 154.297L1203.98 160.083C1210.74 158.226 1216.8 155.424 1222.11 151.657L1218.64 146.763ZM1202.38 154.299C1196.26 155.996 1189.82 156.85 1183.04 156.85V162.85C1190.33 162.85 1197.31 161.931 1203.98 160.081L1202.38 154.299Z" fill="#3C4144" fill-opacity="0.25" mask="url(#path-1-outside-1_98_1004)"/>
</svg>
