<svg xmlns="http://www.w3.org/2000/svg" width="29" height="29" viewBox="0 0 29 29" fill="none">
<g clip-path="url(#clip0_95_5983)">
<path d="M21.4864 18.6725C20.5716 17.7693 19.4296 17.7693 18.5207 18.6725C17.8273 19.36 17.1339 20.0475 16.4522 20.7467C16.2658 20.939 16.1085 20.9798 15.8812 20.8516C15.4326 20.6069 14.9548 20.4088 14.5237 20.1407C12.5135 18.8764 10.8296 17.2508 9.33804 15.4213C8.59807 14.5123 7.93967 13.5393 7.47937 12.4439C7.38615 12.2225 7.40363 12.0768 7.58425 11.8962C8.27761 11.2261 8.95349 10.5386 9.63519 9.85108C10.5849 8.89553 10.5849 7.77684 9.62937 6.81546C9.0875 6.26777 8.54563 5.73172 8.00376 5.18403C7.44442 4.62468 6.89089 4.05951 6.32572 3.50599C5.41095 2.61453 4.26895 2.61453 3.36001 3.51181C2.66083 4.19935 1.99078 4.90436 1.27994 5.58023C0.621541 6.20367 0.289429 6.96695 0.21951 7.85841C0.108806 9.30922 0.464225 10.6785 0.965307 12.0127C1.99078 14.7745 3.55229 17.2275 5.44591 19.4765C8.00376 22.518 11.0569 24.9243 14.6285 26.6606C16.2367 27.4414 17.903 28.0415 19.7151 28.1406C20.962 28.2105 22.0457 27.8959 22.9139 26.9228C23.5082 26.2586 24.1782 25.6527 24.8075 25.0176C25.7397 24.0737 25.7456 22.9317 24.8191 21.9994C23.7121 20.8865 22.5992 19.7795 21.4864 18.6725ZM20.3735 14.0287L22.5235 13.6616C22.1856 11.6864 21.2533 9.8977 19.8375 8.47602C18.34 6.9786 16.4464 6.0347 14.3605 5.74338L14.0575 7.90502C15.6715 8.13226 17.1398 8.86057 18.2993 10.0201C19.3946 11.1154 20.1113 12.5022 20.3735 14.0287ZM23.7354 4.68295C21.2533 2.20084 18.1128 0.633505 14.646 0.149902L14.343 2.31155C17.3379 2.73106 20.053 4.08864 22.1972 6.22698C24.2307 8.26044 25.5649 10.8299 26.0485 13.6558L28.1985 13.2887C27.6334 10.0142 26.0893 7.0427 23.7354 4.68295Z" fill="black"/>
<path d="M21.4864 18.6725C20.5716 17.7693 19.4296 17.7693 18.5207 18.6725C17.8273 19.36 17.1339 20.0475 16.4522 20.7467C16.2658 20.939 16.1085 20.9798 15.8812 20.8516C15.4326 20.6069 14.9548 20.4088 14.5237 20.1407C12.5135 18.8764 10.8296 17.2508 9.33804 15.4213C8.59807 14.5123 7.93967 13.5393 7.47937 12.4439C7.38615 12.2225 7.40363 12.0768 7.58425 11.8962C8.27761 11.2261 8.95349 10.5386 9.63519 9.85108C10.5849 8.89553 10.5849 7.77684 9.62937 6.81546C9.0875 6.26777 8.54563 5.73172 8.00376 5.18403C7.44442 4.62468 6.89089 4.05951 6.32572 3.50599C5.41095 2.61453 4.26895 2.61453 3.36001 3.51181C2.66083 4.19935 1.99078 4.90436 1.27994 5.58023C0.621541 6.20367 0.289429 6.96695 0.21951 7.85841C0.108806 9.30922 0.464225 10.6785 0.965307 12.0127C1.99078 14.7745 3.55229 17.2275 5.44591 19.4765C8.00376 22.518 11.0569 24.9243 14.6285 26.6606C16.2367 27.4414 17.903 28.0415 19.7151 28.1406C20.962 28.2105 22.0457 27.8959 22.9139 26.9228C23.5082 26.2586 24.1782 25.6527 24.8075 25.0176C25.7397 24.0737 25.7456 22.9317 24.8191 21.9994C23.7121 20.8865 22.5992 19.7795 21.4864 18.6725ZM20.3735 14.0287L22.5235 13.6616C22.1856 11.6864 21.2533 9.8977 19.8375 8.47602C18.34 6.9786 16.4464 6.0347 14.3605 5.74338L14.0575 7.90502C15.6715 8.13226 17.1398 8.86057 18.2993 10.0201C19.3946 11.1154 20.1113 12.5022 20.3735 14.0287ZM23.7354 4.68295C21.2533 2.20084 18.1128 0.633505 14.646 0.149902L14.343 2.31155C17.3379 2.73106 20.053 4.08864 22.1972 6.22698C24.2307 8.26044 25.5649 10.8299 26.0485 13.6558L28.1985 13.2887C27.6334 10.0142 26.0893 7.0427 23.7354 4.68295Z" fill="url(#paint0_linear_95_5983)"/>
</g>
<defs>
<linearGradient id="paint0_linear_95_5983" x1="-4.22233" y1="16.036" x2="18.8341" y2="34.1485" gradientUnits="userSpaceOnUse">
<stop stop-color="#5E45EC"/>
<stop offset="1" stop-color="#EC75FF"/>
</linearGradient>
<clipPath id="clip0_95_5983">
<rect width="28" height="28" fill="white" transform="translate(0.199219 0.149902)"/>
</clipPath>
</defs>
</svg>