<svg width="19" height="19" viewBox="0 0 19 19" fill="none" xmlns="http://www.w3.org/2000/svg">
<g clip-path="url(#clip0_1_723)">
<path d="M15.7773 4.48234C15.5063 3.56074 15.0713 2.78491 14.4467 2.11068C13.8359 1.45116 13.1332 0.951056 12.2982 0.581628C11.3469 0.161939 10.2441 -0.0419821 9.19055 0.0072031C8.8062 0.0247949 8.43076 0.0452588 8.06281 0.0987521C7.02599 0.248103 6.11289 0.559369 5.27181 1.05014C4.19827 1.6777 3.36004 2.53073 2.78066 3.58623C2.47974 4.13553 2.18345 5.10415 2.05759 5.73674C1.90856 6.48277 2.03977 7.77631 2.3389 8.50583C2.71256 9.41521 3.0199 9.81839 3.7697 10.381C3.77434 10.3842 4.23784 10.7202 4.54661 10.7152C5.10887 10.7044 5.22082 10.1627 5.27431 9.9024C5.28429 9.85321 5.29427 9.80474 5.30604 9.75915C5.31638 9.71894 5.32993 9.67586 5.34383 9.63098C5.42334 9.37249 5.53137 9.0185 5.35203 8.70472C5.28959 8.6009 5.21671 8.50381 5.13454 8.41499C5.09639 8.37119 5.05789 8.32883 5.02687 8.28216C4.76017 7.88329 4.62504 7.38426 4.62504 6.79906C4.62504 6.03113 4.79761 5.33536 5.15308 4.67261C5.79771 3.47027 6.86733 2.71167 8.24679 2.47759C9.03189 2.34511 9.94677 2.40076 10.6331 2.62192C11.2603 2.8244 11.794 3.18234 12.1769 3.65804C12.5823 4.16138 12.8141 4.79971 12.8654 5.55579C12.8989 6.03831 12.8554 6.52442 12.8194 6.84717C12.6807 8.08973 12.3217 9.08994 11.7519 9.82054C11.2852 10.4201 10.7822 10.7206 10.2135 10.74C9.8473 10.7543 9.57348 10.6789 9.32604 10.5005C9.0925 10.3329 8.95345 10.1261 8.88785 9.8507C8.81369 9.5362 8.90318 9.21021 8.99838 8.86484L9.01371 8.80955C9.09678 8.50583 9.18378 8.22831 9.26899 7.9551C9.40305 7.52464 9.5421 7.07981 9.65655 6.56355C9.78597 5.98087 9.80309 5.5102 9.70932 5.12569C9.5938 4.6482 9.33887 4.29062 8.95167 4.06229C8.542 3.82175 7.96156 3.77543 7.47416 3.94417C6.74789 4.19369 6.19383 4.85787 5.95387 5.76618C5.83168 6.23506 5.79627 6.72259 5.84941 7.20439C5.8897 7.59069 5.97562 7.94181 6.13428 8.36581L6.11753 8.42217C6.10685 8.45712 6.09698 8.49232 6.08793 8.52773C5.91715 9.24576 5.751 9.95374 5.58521 10.6603C5.42797 11.3313 5.27038 12.0012 5.10958 12.6779L5.07322 12.8295C4.90849 13.5188 4.73878 14.2318 4.69921 15.083L4.68138 15.4384C4.64644 16.0997 4.61114 16.7837 4.69921 17.4162C4.71668 17.5397 4.75518 17.8165 5.0258 17.9131C5.10673 17.9741 5.18446 18 5.26004 18C5.48645 18 5.68789 17.7684 5.85939 17.5721C6.4188 16.9316 6.89443 16.1227 7.31372 15.1002C7.50126 14.6428 7.62569 14.1506 7.74585 13.6746L7.81823 13.391C7.90593 13.052 7.99186 12.7085 8.07707 12.3685L8.08278 12.3459C8.24073 12.4852 8.42328 12.6108 8.6347 12.7275C9.08216 12.977 9.58703 13.1224 10.1347 13.1594C10.6481 13.1946 11.1886 13.1282 11.7851 12.9558C12.2411 12.8244 12.6756 12.6265 13.0747 12.3685C14.5201 11.4365 15.5052 9.80618 15.849 7.7781C15.952 7.17208 15.9958 6.6849 15.9958 6.14925C15.9951 5.53246 15.922 4.97096 15.7773 4.48234ZM15.1455 7.65855C14.8357 9.48522 13.9636 10.9435 12.6893 11.765C12.3483 11.9854 11.9771 12.1545 11.5876 12.2669C11.072 12.4162 10.6114 12.474 10.1821 12.4446C9.73249 12.4141 9.33923 12.3017 8.97734 12.0999C8.61545 11.9007 8.38085 11.6842 8.21613 11.3981L7.77901 10.6377L7.38503 12.1947C7.30053 12.5325 7.21496 12.8743 7.12761 13.2114L7.05451 13.4994C6.93507 13.9715 6.82276 14.4177 6.65412 14.8277C6.27868 15.7439 5.85939 16.4688 5.37449 17.0403C5.3367 16.5539 5.36522 16.0082 5.39303 15.4779L5.41122 15.1182C5.44723 14.3348 5.60945 13.6559 5.76598 12.9993L5.8027 12.8467C5.9635 12.1696 6.12109 11.4986 6.27868 10.8272C6.44447 10.121 6.61026 9.41378 6.78069 8.69754C6.78568 8.67743 6.79281 8.65374 6.8003 8.62897C6.84309 8.48428 6.88765 8.33457 6.8274 8.18271C6.67444 7.78815 6.59386 7.4733 6.55785 7.13008C6.51408 6.7354 6.54284 6.33598 6.64271 5.95179C6.82027 5.27935 7.20711 4.79576 7.70485 4.62486C7.82617 4.58389 7.95339 4.56339 8.08135 4.56419C8.28351 4.56419 8.47105 4.61302 8.59156 4.68374C8.80798 4.81155 8.94703 5.01188 9.01585 5.29766C9.08181 5.56908 9.06327 5.94281 8.96023 6.40846C8.85184 6.89492 8.72384 7.30599 8.588 7.74148C8.49534 8.03257 8.40798 8.32533 8.32594 8.61963L8.31096 8.6742C8.20115 9.07235 8.07707 9.52364 8.19402 10.0184C8.30027 10.4664 8.53487 10.8154 8.91102 11.0861C9.28468 11.355 9.72322 11.4752 10.2374 11.4591C11.0185 11.4325 11.7166 11.0308 12.3128 10.2654C12.9656 9.42814 13.3746 8.30585 13.5282 6.92831C13.5667 6.57719 13.6142 6.048 13.5771 5.50768C13.515 4.60153 13.2305 3.82749 12.731 3.20711C12.2607 2.62299 11.6104 2.18463 10.851 1.93943C10.0627 1.68488 9.01941 1.61954 8.12877 1.77033C6.52434 2.04246 5.27858 2.92816 4.52557 4.33227C4.1127 5.10272 3.91196 5.90978 3.91196 6.79978C3.91196 7.53074 4.08774 8.1644 4.43501 8.68354C4.48278 8.75534 4.53983 8.82212 4.59902 8.88961C4.65214 8.95065 4.70241 9.00809 4.73308 9.06158C4.75483 9.1201 4.69279 9.32259 4.66284 9.41988C4.64608 9.47481 4.63004 9.52758 4.6172 9.57677C4.60223 9.63421 4.58939 9.6956 4.57656 9.75735C4.56265 9.82485 4.54126 9.92932 4.5188 9.98677C4.40545 9.9378 4.29744 9.87717 4.19648 9.80582C3.55578 9.32546 3.32082 9.01635 2.99922 8.23261C2.75784 7.64347 2.63804 6.47775 2.75784 5.87891C2.89154 5.20791 3.17642 4.35381 3.40603 3.93412C3.92195 2.99386 4.67033 2.23274 5.63049 1.67196C6.39099 1.22822 7.21959 0.946029 8.16514 0.809962C8.50136 0.760777 8.8579 0.741749 9.22442 0.724876C10.1693 0.679999 11.1601 0.863097 12.0122 1.23935C12.7567 1.56856 13.3828 2.01374 13.9258 2.60073C14.4734 3.19167 14.8553 3.8738 15.0942 4.68662C15.2193 5.10918 15.2824 5.60211 15.2824 6.15068C15.2821 6.64361 15.2411 7.09453 15.1455 7.65855Z" fill="white"/>
</g>
<defs>
<clipPath id="clip0_1_723">
<rect width="18.4" height="18.4" fill="white"/>
</clipPath>
</defs>
</svg>
