<svg xmlns="http://www.w3.org/2000/svg" width="89" height="63" viewBox="0 0 89 63" fill="none">
  <path fill-rule="evenodd" clip-rule="evenodd" d="M17.2049 42.1426C12.4049 41.2052 8.07994 38.6289 4.96996 34.8545C1.85999 31.0801 0.158358 26.3422 0.15625 21.4516C0.15625 9.81908 9.59838 0.376953 21.2309 0.376953C32.8634 0.376953 42.3055 9.81908 42.3055 21.4516C42.3055 36.9533 37.0833 46.5811 30.9535 52.5995C21.5691 61.8147 9.817 62.615 9.817 62.615C9.23166 62.6583 8.64608 62.534 8.12881 62.2566C7.61154 61.9792 7.18398 61.5602 6.89618 61.0487C6.60838 60.5372 6.47225 59.9542 6.50372 59.3681C6.53519 58.782 6.73296 58.217 7.07388 57.7392C7.07388 57.7392 12.6591 49.877 16.1406 44.0607C16.5036 43.4502 16.8708 42.7778 17.2049 42.1426ZM63.7431 42.1426C58.9432 41.2052 54.6182 38.6289 51.5082 34.8545C48.3982 31.0801 46.6966 26.3422 46.6945 21.4516C46.6945 9.81908 56.1366 0.376953 67.7691 0.376953C79.4016 0.376953 88.8438 9.81908 88.8438 21.4516C88.8438 36.9533 83.6215 46.5811 77.4918 52.5995C68.1074 61.8147 56.3553 62.615 56.3553 62.615C55.7699 62.6583 55.1843 62.534 54.6671 62.2566C54.1498 61.9792 53.7222 61.5602 53.4344 61.0487C53.1466 60.5372 53.0105 59.9542 53.042 59.3681C53.0734 58.782 53.2712 58.217 53.6121 57.7392C53.6121 57.7392 59.1974 49.877 62.6789 44.0607C63.0419 43.4502 63.409 42.7778 63.7431 42.1426Z" fill="black"/>
  <path fill-rule="evenodd" clip-rule="evenodd" d="M17.2049 42.1426C12.4049 41.2052 8.07994 38.6289 4.96996 34.8545C1.85999 31.0801 0.158358 26.3422 0.15625 21.4516C0.15625 9.81908 9.59838 0.376953 21.2309 0.376953C32.8634 0.376953 42.3055 9.81908 42.3055 21.4516C42.3055 36.9533 37.0833 46.5811 30.9535 52.5995C21.5691 61.8147 9.817 62.615 9.817 62.615C9.23166 62.6583 8.64608 62.534 8.12881 62.2566C7.61154 61.9792 7.18398 61.5602 6.89618 61.0487C6.60838 60.5372 6.47225 59.9542 6.50372 59.3681C6.53519 58.782 6.73296 58.217 7.07388 57.7392C7.07388 57.7392 12.6591 49.877 16.1406 44.0607C16.5036 43.4502 16.8708 42.7778 17.2049 42.1426ZM63.7431 42.1426C58.9432 41.2052 54.6182 38.6289 51.5082 34.8545C48.3982 31.0801 46.6966 26.3422 46.6945 21.4516C46.6945 9.81908 56.1366 0.376953 67.7691 0.376953C79.4016 0.376953 88.8438 9.81908 88.8438 21.4516C88.8438 36.9533 83.6215 46.5811 77.4918 52.5995C68.1074 61.8147 56.3553 62.615 56.3553 62.615C55.7699 62.6583 55.1843 62.534 54.6671 62.2566C54.1498 61.9792 53.7222 61.5602 53.4344 61.0487C53.1466 60.5372 53.0105 59.9542 53.042 59.3681C53.0734 58.782 53.2712 58.217 53.6121 57.7392C53.6121 57.7392 59.1974 49.877 62.6789 44.0607C63.0419 43.4502 63.409 42.7778 63.7431 42.1426Z" fill="url(#paint0_linear_98_1016)"/>
  <defs>
    <linearGradient id="paint0_linear_98_1016" x1="8.4931" y1="8.27389" x2="16.8062" y2="79.3164" gradientUnits="userSpaceOnUse">
      <stop stop-color="#5E45EC"/>
      <stop offset="1" stop-color="#EC75FF"/>
    </linearGradient>
  </defs>
</svg>