<svg width="53" height="53" viewBox="0 0 53 53" fill="none" xmlns="http://www.w3.org/2000/svg">
<g id="Frame">
<g id="Group">
<path id="Vector" d="M26.401 52.4176C26.1693 52.4176 25.9471 52.3256 25.7832 52.1617C25.6194 51.9979 25.5273 51.7757 25.5273 51.544V39.7209C25.5273 39.4892 25.6194 39.267 25.7832 39.1032C25.9471 38.9393 26.1693 38.8473 26.401 38.8473C26.6327 38.8473 26.8549 38.9393 27.0187 39.1032C27.1826 39.267 27.2746 39.4892 27.2746 39.7209V51.5207C27.2777 51.6374 27.2574 51.7535 27.2149 51.8622C27.1724 51.9709 27.1085 52.07 27.0271 52.1536C26.9457 52.2372 26.8483 52.3036 26.7408 52.349C26.6332 52.3943 26.5177 52.4177 26.401 52.4176Z" fill="white"/>
<path id="Vector_2" d="M26.4006 52.4176C26.1859 52.4179 25.9786 52.3391 25.8182 52.1963L20.5765 47.6068C20.4904 47.5303 20.4203 47.4377 20.3701 47.3341C20.3198 47.2305 20.2905 47.118 20.2837 47.0031C20.277 46.8882 20.2929 46.773 20.3307 46.6643C20.3684 46.5555 20.4272 46.4552 20.5037 46.3692C20.5801 46.2831 20.6728 46.213 20.7764 46.1628C20.88 46.1126 20.9925 46.0832 21.1074 46.0765C21.2223 46.0697 21.3375 46.0856 21.4462 46.1234C21.555 46.1611 21.6553 46.2199 21.7413 46.2964L26.9831 50.8858C27.0699 50.9605 27.141 51.0517 27.1925 51.154C27.2439 51.2564 27.2745 51.3679 27.2826 51.4821C27.2908 51.5963 27.2762 51.7111 27.2398 51.8196C27.2033 51.9282 27.1458 52.0285 27.0704 52.1147C26.987 52.2103 26.884 52.2867 26.7684 52.339C26.6529 52.3912 26.5275 52.418 26.4006 52.4176Z" fill="white"/>
<path id="Vector_3" d="M26.401 52.4176C26.2225 52.4192 26.0477 52.3661 25.9003 52.2655C25.7529 52.1648 25.6399 52.0214 25.5764 51.8545C25.513 51.6876 25.5022 51.5054 25.5455 51.3322C25.5888 51.159 25.6841 51.0032 25.8185 50.8858L31.0603 46.2964C31.1464 46.2199 31.2466 46.1611 31.3554 46.1234C31.4641 46.0857 31.5793 46.0697 31.6942 46.0765C31.8091 46.0832 31.9216 46.1126 32.0252 46.1628C32.1288 46.213 32.2215 46.2832 32.2979 46.3692C32.3744 46.4552 32.4332 46.5555 32.4709 46.6643C32.5087 46.773 32.5246 46.8882 32.5179 47.0031C32.5111 47.118 32.4818 47.2305 32.4315 47.3341C32.3813 47.4377 32.3112 47.5303 32.2251 47.6068L26.9834 52.1963C26.8239 52.3406 26.616 52.4196 26.401 52.4176ZM29.6217 35.3702H23.1744C20.8413 35.3672 18.6047 34.439 16.955 32.7893C15.3053 31.1396 14.3771 28.903 14.374 26.5699V9.6798C14.3717 8.52211 14.5976 7.3753 15.0387 6.30493C15.4798 5.23455 16.1274 4.26158 16.9447 3.44161C17.762 2.62164 18.7328 1.97075 19.8017 1.52613C20.8706 1.08151 22.0167 0.851878 23.1744 0.85035H29.6217C30.7787 0.848819 31.9246 1.07527 32.9939 1.51678C34.0633 1.95828 35.0352 2.60617 35.8541 3.42343C36.673 4.24069 37.3228 5.21131 37.7664 6.27981C38.21 7.34831 38.4388 8.49375 38.4395 9.65068V26.5699C38.4388 27.7268 38.21 28.8723 37.7664 29.9408C37.3228 31.0093 36.673 31.9799 35.8541 32.7972C35.0352 33.6144 34.0633 34.2623 32.9939 34.7038C31.9246 35.1453 30.7787 35.3718 29.6217 35.3702ZM23.1744 2.5976C21.3043 2.59914 19.5112 3.34273 18.1888 4.6651C16.8664 5.98748 16.1228 7.78056 16.1213 9.65068V26.5699C16.1244 28.4396 16.8685 30.2317 18.1905 31.5538C19.5125 32.8758 21.3047 33.6199 23.1744 33.623H29.6217C30.5492 33.6245 31.4679 33.4433 32.3253 33.0896C33.1827 32.7359 33.962 32.2167 34.6186 31.5617C35.2752 30.9066 35.7964 30.1287 36.1522 29.2721C36.508 28.4156 36.6915 27.4974 36.6923 26.5699V9.6798C36.6954 8.74987 36.5147 7.8285 36.1606 6.96863C35.8065 6.10875 35.2859 5.32731 34.6289 4.66921C33.9719 4.0111 33.1913 3.48931 32.332 3.1338C31.4727 2.77828 30.5517 2.59606 29.6217 2.5976H23.1744Z" fill="white"/>
<path id="Vector_4" d="M26.401 15.3583C26.1693 15.3583 25.9471 15.2663 25.7832 15.1024C25.6194 14.9386 25.5273 14.7164 25.5273 14.4847V10.0991C25.5273 9.86739 25.6194 9.64518 25.7832 9.48134C25.9471 9.31751 26.1693 9.22546 26.401 9.22546C26.6327 9.22546 26.8549 9.31751 27.0187 9.48134C27.1826 9.64518 27.2746 9.86739 27.2746 10.0991V14.4847C27.2746 14.7164 27.1826 14.9386 27.0187 15.1024C26.8549 15.2663 26.6327 15.3583 26.401 15.3583Z" fill="white"/>
</g>
</g>
</svg>
