<svg xmlns="http://www.w3.org/2000/svg" width="57" height="56" viewBox="0 0 57 56" fill="none">
<path d="M24.3721 16.8463C25.8703 13.1114 26.6194 11.2439 27.8364 10.9851C28.1564 10.9171 28.4871 10.9171 28.8071 10.9851C30.0241 11.2439 30.7732 13.1114 32.2714 16.8463C33.1234 18.9703 33.5494 20.0323 34.3465 20.7547C34.57 20.9573 34.8127 21.1377 35.0711 21.2934C35.9924 21.8487 37.1425 21.9517 39.4427 22.1577C43.3365 22.5064 45.2834 22.6808 45.8779 23.7909C46.001 24.0208 46.0847 24.2697 46.1256 24.5273C46.3227 25.771 44.8914 27.0732 42.0289 29.6774L41.234 30.4006C39.8957 31.6182 39.2266 32.2269 38.8396 32.9867C38.6074 33.4424 38.4517 33.9332 38.3788 34.4395C38.2572 35.2834 38.4531 36.1666 38.845 37.9329L38.985 38.5639C39.6878 41.7315 40.0392 43.3153 39.6006 44.0938C39.2065 44.7931 38.4808 45.2407 37.679 45.279C36.7865 45.3217 35.5289 44.2969 33.0136 42.2473C31.3564 40.8969 30.5278 40.2218 29.608 39.958C28.7674 39.717 27.8761 39.717 27.0355 39.958C26.1157 40.2218 25.2871 40.8969 23.6299 42.2473C21.1146 44.2969 19.857 45.3217 18.9645 45.279C18.1627 45.2407 17.437 44.7931 17.0429 44.0938C16.6043 43.3153 16.9557 41.7315 17.6585 38.564L17.7985 37.9329C18.1904 36.1666 18.3863 35.2834 18.2647 34.4395C18.1918 33.9332 18.0361 33.4424 17.8039 32.9867C17.4169 32.2269 16.7478 31.6182 15.4095 30.4006L14.6146 29.6774C11.7521 27.0732 10.3208 25.771 10.5179 24.5273C10.5588 24.2697 10.6425 24.0208 10.7656 23.7909C11.3601 22.6808 13.307 22.5064 17.2008 22.1577C19.501 21.9517 20.6511 21.8487 21.5723 21.2934C21.8308 21.1377 22.0735 20.9573 22.297 20.7547C23.0941 20.0323 23.5201 18.9703 24.3721 16.8463Z" fill="#222222"/>
<path d="M24.3721 16.8463C25.8703 13.1114 26.6194 11.2439 27.8364 10.9851C28.1564 10.9171 28.4871 10.9171 28.8071 10.9851C30.0241 11.2439 30.7732 13.1114 32.2714 16.8463C33.1234 18.9703 33.5494 20.0323 34.3465 20.7547C34.57 20.9573 34.8127 21.1377 35.0711 21.2934C35.9924 21.8487 37.1425 21.9517 39.4427 22.1577C43.3365 22.5064 45.2834 22.6808 45.8779 23.7909C46.001 24.0208 46.0847 24.2697 46.1256 24.5273C46.3227 25.771 44.8914 27.0732 42.0289 29.6774L41.234 30.4006C39.8957 31.6182 39.2266 32.2269 38.8396 32.9867C38.6074 33.4424 38.4517 33.9332 38.3788 34.4395C38.2572 35.2834 38.4531 36.1666 38.845 37.9329L38.985 38.5639C39.6878 41.7315 40.0392 43.3153 39.6006 44.0938C39.2065 44.7931 38.4808 45.2407 37.679 45.279C36.7865 45.3217 35.5289 44.2969 33.0136 42.2473C31.3564 40.8969 30.5278 40.2218 29.608 39.958C28.7674 39.717 27.8761 39.717 27.0355 39.958C26.1157 40.2218 25.2871 40.8969 23.6299 42.2473C21.1146 44.2969 19.857 45.3217 18.9645 45.279C18.1627 45.2407 17.437 44.7931 17.0429 44.0938C16.6043 43.3153 16.9557 41.7315 17.6585 38.564L17.7985 37.9329C18.1904 36.1666 18.3863 35.2834 18.2647 34.4395C18.1918 33.9332 18.0361 33.4424 17.8039 32.9867C17.4169 32.2269 16.7478 31.6182 15.4095 30.4006L14.6146 29.6774C11.7521 27.0732 10.3208 25.771 10.5179 24.5273C10.5588 24.2697 10.6425 24.0208 10.7656 23.7909C11.3601 22.6808 13.307 22.5064 17.2008 22.1577C19.501 21.9517 20.6511 21.8487 21.5723 21.2934C21.8308 21.1377 22.0735 20.9573 22.297 20.7547C23.0941 20.0323 23.5201 18.9703 24.3721 16.8463Z" fill="url(#paint0_linear_19_1349)"/>
<path d="M24.3721 16.8463C25.8703 13.1114 26.6194 11.2439 27.8364 10.9851C28.1564 10.9171 28.4871 10.9171 28.8071 10.9851C30.0241 11.2439 30.7732 13.1114 32.2714 16.8463C33.1234 18.9703 33.5494 20.0323 34.3465 20.7547C34.57 20.9573 34.8127 21.1377 35.0711 21.2934C35.9924 21.8487 37.1425 21.9517 39.4427 22.1577C43.3365 22.5064 45.2834 22.6808 45.8779 23.7909C46.001 24.0208 46.0847 24.2697 46.1256 24.5273C46.3227 25.771 44.8914 27.0732 42.0289 29.6774L41.234 30.4006C39.8957 31.6182 39.2266 32.2269 38.8396 32.9867C38.6074 33.4424 38.4517 33.9332 38.3788 34.4395C38.2572 35.2834 38.4531 36.1666 38.845 37.9329L38.985 38.5639C39.6878 41.7315 40.0392 43.3153 39.6006 44.0938C39.2065 44.7931 38.4808 45.2407 37.679 45.279C36.7865 45.3217 35.5289 44.2969 33.0136 42.2473C31.3564 40.8969 30.5278 40.2218 29.608 39.958C28.7674 39.717 27.8761 39.717 27.0355 39.958C26.1157 40.2218 25.2871 40.8969 23.6299 42.2473C21.1146 44.2969 19.857 45.3217 18.9645 45.279C18.1627 45.2407 17.437 44.7931 17.0429 44.0938C16.6043 43.3153 16.9557 41.7315 17.6585 38.564L17.7985 37.9329C18.1904 36.1666 18.3863 35.2834 18.2647 34.4395C18.1918 33.9332 18.0361 33.4424 17.8039 32.9867C17.4169 32.2269 16.7478 31.6182 15.4095 30.4006L14.6146 29.6774C11.7521 27.0732 10.3208 25.771 10.5179 24.5273C10.5588 24.2697 10.6425 24.0208 10.7656 23.7909C11.3601 22.6808 13.307 22.5064 17.2008 22.1577C19.501 21.9517 20.6511 21.8487 21.5723 21.2934C21.8308 21.1377 22.0735 20.9573 22.297 20.7547C23.0941 20.0323 23.5201 18.9703 24.3721 16.8463Z" fill="black" fill-opacity="0.15"/>
<defs>
<linearGradient id="paint0_linear_19_1349" x1="13.8506" y1="15.2914" x2="20.0738" y2="54.0281" gradientUnits="userSpaceOnUse">
<stop stop-color="#5E45EC"/>
<stop offset="1" stop-color="#EC75FF"/>
</linearGradient>
</defs>
</svg>