<svg width="1265" height="168" viewBox="0 0 1265 168" fill="none" xmlns="http://www.w3.org/2000/svg">
<mask id="path-1-outside-1_98_883" maskUnits="userSpaceOnUse" x="-2" y="14" width="1215" height="149" fill="black">
<rect fill="white" x="-2" y="14" width="1215" height="149"/>
<path d="M42.18 157L2.185 20.2H26.22L53.485 119L80.655 20.39L104.69 20.2L131.955 119L159.125 20.2H183.16L143.26 157H120.65L92.625 59.72L64.79 157H42.18ZM200.561 157V20.2H223.456V77.77H288.246V20.2H311.046V157H288.246V99.24H223.456V157H200.561ZM397.435 159.85C383.755 159.85 372.039 156.873 362.285 150.92C352.532 144.903 345.027 136.543 339.77 125.84C334.577 115.137 331.98 102.723 331.98 88.6C331.98 74.4767 334.577 62.0633 339.77 51.36C345.027 40.6567 352.532 32.3283 362.285 26.375C372.039 20.3583 383.755 17.35 397.435 17.35C411.115 17.35 422.832 20.3583 432.585 26.375C442.402 32.3283 449.907 40.6567 455.1 51.36C460.357 62.0633 462.985 74.4767 462.985 88.6C462.985 102.723 460.357 115.137 455.1 125.84C449.907 136.543 442.402 144.903 432.585 150.92C422.832 156.873 411.115 159.85 397.435 159.85ZM397.435 138.285C406.619 138.348 414.25 136.322 420.33 132.205C426.474 128.088 431.065 122.293 434.105 114.82C437.209 107.347 438.76 98.6067 438.76 88.6C438.76 78.5933 437.209 69.9167 434.105 62.57C431.065 55.16 426.474 49.3967 420.33 45.28C414.25 41.1633 406.619 39.0417 397.435 38.915C388.252 38.8517 380.62 40.8783 374.54 44.995C368.46 49.1117 363.869 54.9067 360.765 62.38C357.725 69.8533 356.205 78.5933 356.205 88.6C356.205 98.6067 357.725 107.315 360.765 114.725C363.805 122.072 368.365 127.803 374.445 131.92C380.589 136.037 388.252 138.158 397.435 138.285ZM552.612 157L512.617 20.2H536.652L563.917 119L591.087 20.39L615.122 20.2L642.387 119L669.557 20.2H693.592L653.692 157H631.082L603.057 59.72L575.222 157H552.612ZM710.993 157V20.2H799.343V41.67H733.888V75.395H787.943V96.865H733.888V135.53H799.343V157H710.993ZM854.473 157L897.603 20.2H931.138L974.268 157H950.708L911.568 34.26H916.698L878.033 157H854.473ZM878.508 127.36V105.985H950.328V127.36H878.508ZM993.344 157V20.2H1049.87C1051.2 20.2 1052.91 20.2633 1055 20.39C1057.09 20.4533 1059.02 20.6433 1060.79 20.96C1068.71 22.1633 1075.23 24.7917 1080.36 28.845C1085.56 32.8983 1089.39 38.0283 1091.86 44.235C1094.39 50.3783 1095.66 57.2183 1095.66 64.755C1095.66 75.9017 1092.84 85.4967 1087.2 93.54C1081.57 101.52 1072.92 106.46 1061.27 108.36L1051.48 109.215H1016.24V157H993.344ZM1071.91 157L1044.93 101.33L1068.2 96.2L1097.84 157H1071.91ZM1016.24 87.84H1048.92C1050.19 87.84 1051.61 87.7767 1053.19 87.65C1054.78 87.5233 1056.23 87.27 1057.56 86.89C1061.36 85.94 1064.34 84.2617 1066.49 81.855C1068.71 79.4483 1070.26 76.725 1071.15 73.685C1072.1 70.645 1072.57 67.6683 1072.57 64.755C1072.57 61.8417 1072.1 58.865 1071.15 55.825C1070.26 52.7217 1068.71 49.9667 1066.49 47.56C1064.34 45.1533 1061.36 43.475 1057.56 42.525C1056.23 42.145 1054.78 41.9233 1053.19 41.86C1051.61 41.7333 1050.19 41.67 1048.92 41.67H1016.24V87.84ZM1120.67 157V20.2H1209.02V41.67H1143.57V75.395H1197.62V96.865H1143.57V135.53H1209.02V157H1120.67Z"/>
</mask>
<path d="M42.18 157L39.3005 157.842L39.9315 160H42.18V157ZM2.185 20.2V17.2H-1.81767L-0.694462 21.0418L2.185 20.2ZM26.22 20.2L29.1119 19.4019L28.5043 17.2H26.22V20.2ZM53.485 119L50.5931 119.798L53.4873 130.286L56.3772 119.797L53.485 119ZM80.655 20.39L80.6313 17.3901L78.3648 17.408L77.7628 19.5931L80.655 20.39ZM104.69 20.2L107.582 19.4019L106.969 17.1819L104.666 17.2001L104.69 20.2ZM131.955 119L129.063 119.798L131.96 130.296L134.848 119.795L131.955 119ZM159.125 20.2V17.2H156.839L156.232 19.4045L159.125 20.2ZM183.16 20.2L186.04 21.04L187.16 17.2H183.16V20.2ZM143.26 157V160H145.51L146.14 157.84L143.26 157ZM120.65 157L117.767 157.83L118.392 160H120.65V157ZM92.625 59.72L95.5078 58.8895L92.6152 48.8489L89.7408 58.8947L92.625 59.72ZM64.79 157V160H67.052L67.6743 157.825L64.79 157ZM45.0595 156.158L5.06446 19.3582L-0.694462 21.0418L39.3005 157.842L45.0595 156.158ZM2.185 23.2H26.22V17.2H2.185V23.2ZM23.3281 20.998L50.5931 119.798L56.3769 118.202L29.1119 19.4019L23.3281 20.998ZM56.3772 119.797L83.5472 21.1869L77.7628 19.5931L50.5928 118.203L56.3772 119.797ZM80.6787 23.3899L104.714 23.1999L104.666 17.2001L80.6313 17.3901L80.6787 23.3899ZM101.798 20.998L129.063 119.798L134.847 118.202L107.582 19.4019L101.798 20.998ZM134.848 119.795L162.018 20.9955L156.232 19.4045L129.062 118.205L134.848 119.795ZM159.125 23.2H183.16V17.2H159.125V23.2ZM180.28 19.36L140.38 156.16L146.14 157.84L186.04 21.04L180.28 19.36ZM143.26 154H120.65V160H143.26V154ZM123.533 156.17L95.5078 58.8895L89.7422 60.5505L117.767 157.83L123.533 156.17ZM89.7408 58.8947L61.9058 156.175L67.6743 157.825L95.5093 60.5453L89.7408 58.8947ZM64.79 154H42.18V160H64.79V154ZM200.561 157H197.561V160H200.561V157ZM200.561 20.2V17.2H197.561V20.2H200.561ZM223.456 20.2H226.456V17.2H223.456V20.2ZM223.456 77.77H220.456V80.77H223.456V77.77ZM288.246 77.77V80.77H291.246V77.77H288.246ZM288.246 20.2V17.2H285.246V20.2H288.246ZM311.046 20.2H314.046V17.2H311.046V20.2ZM311.046 157V160H314.046V157H311.046ZM288.246 157H285.246V160H288.246V157ZM288.246 99.24H291.246V96.24H288.246V99.24ZM223.456 99.24V96.24H220.456V99.24H223.456ZM223.456 157V160H226.456V157H223.456ZM203.561 157V20.2H197.561V157H203.561ZM200.561 23.2H223.456V17.2H200.561V23.2ZM220.456 20.2V77.77H226.456V20.2H220.456ZM223.456 80.77H288.246V74.77H223.456V80.77ZM291.246 77.77V20.2H285.246V77.77H291.246ZM288.246 23.2H311.046V17.2H288.246V23.2ZM308.046 20.2V157H314.046V20.2H308.046ZM311.046 154H288.246V160H311.046V154ZM291.246 157V99.24H285.246V157H291.246ZM288.246 96.24H223.456V102.24H288.246V96.24ZM220.456 99.24V157H226.456V99.24H220.456ZM223.456 154H200.561V160H223.456V154ZM362.285 150.92L360.71 153.473L360.716 153.477L360.722 153.481L362.285 150.92ZM339.77 125.84L337.071 127.15L337.075 127.156L337.078 127.162L339.77 125.84ZM339.77 51.36L337.078 50.0375L337.075 50.0439L337.071 50.0504L339.77 51.36ZM362.285 26.375L363.848 28.9357L363.854 28.932L363.861 28.9283L362.285 26.375ZM432.585 26.375L431.01 28.9283L431.02 28.9342L431.03 28.9401L432.585 26.375ZM455.1 51.36L452.401 52.6696L452.405 52.676L452.408 52.6825L455.1 51.36ZM455.1 125.84L452.408 124.518L452.405 124.524L452.401 124.53L455.1 125.84ZM432.585 150.92L434.148 153.481L434.153 153.478L432.585 150.92ZM397.435 138.285L397.394 141.285L397.404 141.285L397.415 141.285L397.435 138.285ZM420.33 132.205L418.66 129.713L418.654 129.717L418.648 129.721L420.33 132.205ZM434.105 114.82L431.335 113.669L431.331 113.68L431.327 113.69L434.105 114.82ZM434.105 62.57L431.33 63.7087L431.336 63.723L431.342 63.7374L434.105 62.57ZM420.33 45.28L418.648 47.7641L418.654 47.7682L418.66 47.7722L420.33 45.28ZM397.435 38.915L397.477 35.9153L397.466 35.9151L397.456 35.9151L397.435 38.915ZM374.54 44.995L376.222 47.4791L374.54 44.995ZM360.765 62.38L357.995 61.2295L357.991 61.2395L357.987 61.2496L360.765 62.38ZM360.765 114.725L357.99 115.864L357.993 115.872L360.765 114.725ZM374.445 131.92L372.763 134.404L372.769 134.408L372.775 134.412L374.445 131.92ZM397.435 156.85C384.197 156.85 373.046 153.973 363.848 148.359L360.722 153.481C371.032 159.773 383.313 162.85 397.435 162.85V156.85ZM363.861 148.367C354.608 142.659 347.481 134.735 342.463 124.518L337.078 127.162C342.573 138.352 350.456 147.147 360.71 153.473L363.861 148.367ZM342.47 124.53C337.508 114.305 334.98 102.354 334.98 88.6H328.98C328.98 103.093 331.646 115.969 337.071 127.15L342.47 124.53ZM334.98 88.6C334.98 74.8462 337.508 62.8953 342.47 52.6696L337.071 50.0504C331.646 61.2314 328.98 74.1071 328.98 88.6H334.98ZM342.463 52.6825C347.48 42.4674 354.604 34.5787 363.848 28.9357L360.722 23.8143C350.461 30.078 342.574 38.8459 337.078 50.0375L342.463 52.6825ZM363.861 28.9283C373.056 23.2559 384.203 20.35 397.435 20.35V14.35C383.308 14.35 371.022 17.4608 360.71 23.8217L363.861 28.9283ZM397.435 20.35C410.668 20.35 421.815 23.2559 431.01 28.9283L434.161 23.8217C423.849 17.4608 411.563 14.35 397.435 14.35V20.35ZM431.03 28.9401C440.334 34.5826 447.451 42.4663 452.401 52.6696L457.8 50.0504C452.364 38.847 444.47 30.0741 434.141 23.8098L431.03 28.9401ZM452.408 52.6825C457.428 62.905 459.985 74.8513 459.985 88.6H465.985C465.985 74.1021 463.286 61.2216 457.793 50.0375L452.408 52.6825ZM459.985 88.6C459.985 102.349 457.428 114.295 452.408 124.518L457.793 127.162C463.286 115.978 465.985 103.098 465.985 88.6H459.985ZM452.401 124.53C447.449 134.736 440.329 142.655 431.018 148.362L434.153 153.478C444.475 147.151 452.365 138.35 457.8 127.15L452.401 124.53ZM431.022 148.359C421.825 153.973 410.673 156.85 397.435 156.85V162.85C411.557 162.85 423.839 159.773 434.148 153.481L431.022 148.359ZM397.415 141.285C407.052 141.351 415.317 139.223 422.012 134.689L418.648 129.721C413.184 133.421 406.186 135.345 397.456 135.285L397.415 141.285ZM422 134.697C428.686 130.217 433.64 123.925 436.884 115.95L431.327 113.69C428.491 120.661 424.261 125.96 418.66 129.713L422 134.697ZM436.876 115.971C440.162 108.057 441.76 98.911 441.76 88.6H435.76C435.76 98.3024 434.255 106.636 431.335 113.669L436.876 115.971ZM441.76 88.6C441.76 78.291 440.163 69.1999 436.869 61.4026L431.342 63.7374C434.255 70.6335 435.76 78.8957 435.76 88.6H441.76ZM436.881 61.4313C433.635 53.5183 428.68 47.2636 422 42.7878L418.66 47.7722C424.268 51.5297 428.496 56.8017 431.33 63.7087L436.881 61.4313ZM422.012 42.7959C415.339 38.2773 407.099 36.048 397.477 35.9153L397.394 41.9147C406.139 42.0353 413.162 44.0494 418.648 47.7641L422.012 42.7959ZM397.456 35.9151C387.819 35.8486 379.554 37.9774 372.858 42.5109L376.222 47.4791C381.687 43.7793 388.685 41.8547 397.415 41.9149L397.456 35.9151ZM372.858 42.5109C366.244 46.9894 361.299 53.2722 357.995 61.2295L363.536 63.5305C366.438 56.5411 370.677 51.2339 376.222 47.4791L372.858 42.5109ZM357.987 61.2496C354.77 69.1569 353.205 78.2959 353.205 88.6H359.205C359.205 78.8908 360.681 70.5498 363.544 63.5104L357.987 61.2496ZM353.205 88.6C353.205 98.9032 354.77 108.014 357.99 115.864L363.541 113.586C360.681 106.616 359.205 98.3101 359.205 88.6H353.205ZM357.993 115.872C361.239 123.715 366.157 129.931 372.763 134.404L376.127 129.436C370.574 125.676 366.372 120.429 363.538 113.578L357.993 115.872ZM372.775 134.412C379.506 138.922 387.771 141.152 397.394 141.285L397.477 135.285C388.733 135.165 381.672 133.151 376.115 129.428L372.775 134.412ZM552.612 157L549.733 157.842L550.364 160H552.612V157ZM512.617 20.2V17.2H508.614L509.738 21.0418L512.617 20.2ZM536.652 20.2L539.544 19.4019L538.936 17.2H536.652V20.2ZM563.917 119L561.025 119.798L563.919 130.286L566.809 119.797L563.917 119ZM591.087 20.39L591.063 17.3901L588.797 17.408L588.195 19.5931L591.087 20.39ZM615.122 20.2L618.014 19.4019L617.401 17.1819L615.098 17.2001L615.122 20.2ZM642.387 119L639.495 119.798L642.392 130.296L645.28 119.795L642.387 119ZM669.557 20.2V17.2H667.271L666.664 19.4045L669.557 20.2ZM693.592 20.2L696.472 21.04L697.592 17.2H693.592V20.2ZM653.692 157V160H655.942L656.572 157.84L653.692 157ZM631.082 157L628.199 157.83L628.824 160H631.082V157ZM603.057 59.72L605.94 58.8895L603.047 48.8489L600.173 58.8947L603.057 59.72ZM575.222 157V160H577.484L578.106 157.825L575.222 157ZM555.492 156.158L515.497 19.3582L509.738 21.0418L549.733 157.842L555.492 156.158ZM512.617 23.2H536.652V17.2H512.617V23.2ZM533.76 20.998L561.025 119.798L566.809 118.202L539.544 19.4019L533.76 20.998ZM566.809 119.797L593.979 21.1869L588.195 19.5931L561.025 118.203L566.809 119.797ZM591.111 23.3899L615.146 23.1999L615.098 17.2001L591.063 17.3901L591.111 23.3899ZM612.23 20.998L639.495 119.798L645.279 118.202L618.014 19.4019L612.23 20.998ZM645.28 119.795L672.45 20.9955L666.664 19.4045L639.494 118.205L645.28 119.795ZM669.557 23.2H693.592V17.2H669.557V23.2ZM690.712 19.36L650.812 156.16L656.572 157.84L696.472 21.04L690.712 19.36ZM653.692 154H631.082V160H653.692V154ZM633.965 156.17L605.94 58.8895L600.174 60.5505L628.199 157.83L633.965 156.17ZM600.173 58.8947L572.338 156.175L578.106 157.825L605.941 60.5453L600.173 58.8947ZM575.222 154H552.612V160H575.222V154ZM710.993 157H707.993V160H710.993V157ZM710.993 20.2V17.2H707.993V20.2H710.993ZM799.343 20.2H802.343V17.2H799.343V20.2ZM799.343 41.67V44.67H802.343V41.67H799.343ZM733.888 41.67V38.67H730.888V41.67H733.888ZM733.888 75.395H730.888V78.395H733.888V75.395ZM787.943 75.395H790.943V72.395H787.943V75.395ZM787.943 96.865V99.865H790.943V96.865H787.943ZM733.888 96.865V93.865H730.888V96.865H733.888ZM733.888 135.53H730.888V138.53H733.888V135.53ZM799.343 135.53H802.343V132.53H799.343V135.53ZM799.343 157V160H802.343V157H799.343ZM713.993 157V20.2H707.993V157H713.993ZM710.993 23.2H799.343V17.2H710.993V23.2ZM796.343 20.2V41.67H802.343V20.2H796.343ZM799.343 38.67H733.888V44.67H799.343V38.67ZM730.888 41.67V75.395H736.888V41.67H730.888ZM733.888 78.395H787.943V72.395H733.888V78.395ZM784.943 75.395V96.865H790.943V75.395H784.943ZM787.943 93.865H733.888V99.865H787.943V93.865ZM730.888 96.865V135.53H736.888V96.865H730.888ZM733.888 138.53H799.343V132.53H733.888V138.53ZM796.343 135.53V157H802.343V135.53H796.343ZM799.343 154H710.993V160H799.343V154ZM854.473 157L851.612 156.098L850.382 160H854.473V157ZM897.603 20.2V17.2H895.403L894.742 19.2979L897.603 20.2ZM931.138 20.2L933.999 19.2979L933.338 17.2H931.138V20.2ZM974.268 157V160H978.359L977.129 156.098L974.268 157ZM950.708 157L947.85 157.911L948.516 160H950.708V157ZM911.568 34.26V31.26H907.463L908.71 35.1714L911.568 34.26ZM916.698 34.26L919.559 35.1614L920.788 31.26H916.698V34.26ZM878.033 157V160H880.233L880.894 157.901L878.033 157ZM878.508 127.36H875.508V130.36H878.508V127.36ZM878.508 105.985V102.985H875.508V105.985H878.508ZM950.328 105.985H953.328V102.985H950.328V105.985ZM950.328 127.36V130.36H953.328V127.36H950.328ZM857.334 157.902L900.464 21.1021L894.742 19.2979L851.612 156.098L857.334 157.902ZM897.603 23.2H931.138V17.2H897.603V23.2ZM928.277 21.1021L971.407 157.902L977.129 156.098L933.999 19.2979L928.277 21.1021ZM974.268 154H950.708V160H974.268V154ZM953.566 156.089L914.426 33.3486L908.71 35.1714L947.85 157.911L953.566 156.089ZM911.568 37.26H916.698V31.26H911.568V37.26ZM913.837 33.3586L875.172 156.099L880.894 157.901L919.559 35.1614L913.837 33.3586ZM878.033 154H854.473V160H878.033V154ZM881.508 127.36V105.985H875.508V127.36H881.508ZM878.508 108.985H950.328V102.985H878.508V108.985ZM947.328 105.985V127.36H953.328V105.985H947.328ZM950.328 124.36H878.508V130.36H950.328V124.36ZM993.344 157H990.344V160H993.344V157ZM993.344 20.2V17.2H990.344V20.2H993.344ZM1055 20.39L1054.82 23.3845L1054.86 23.3872L1054.91 23.3886L1055 20.39ZM1060.79 20.96L1060.27 23.9133L1060.3 23.9201L1060.34 23.9259L1060.79 20.96ZM1080.36 28.845L1078.5 31.1989L1078.51 31.2044L1078.52 31.2099L1080.36 28.845ZM1091.86 44.235L1089.07 45.3443L1089.08 45.3615L1089.09 45.3787L1091.86 44.235ZM1087.2 93.54L1089.65 95.2708L1089.66 95.2617L1087.2 93.54ZM1061.27 108.36L1061.53 111.349L1061.64 111.339L1061.75 111.321L1061.27 108.36ZM1051.48 109.215V112.215H1051.61L1051.74 112.204L1051.48 109.215ZM1016.24 109.215V106.215H1013.24V109.215H1016.24ZM1016.24 157V160H1019.24V157H1016.24ZM1071.91 157L1069.21 158.308L1070.03 160H1071.91V157ZM1044.93 101.33L1044.28 98.4003L1040.57 99.2183L1042.23 102.638L1044.93 101.33ZM1068.2 96.2L1070.9 94.8854L1069.87 92.7618L1067.56 93.2703L1068.2 96.2ZM1097.84 157V160H1102.64L1100.54 155.685L1097.84 157ZM1016.24 87.84H1013.24V90.84H1016.24V87.84ZM1053.19 87.65L1053.43 90.6404L1053.19 87.65ZM1057.56 86.89L1056.84 83.9796L1056.79 83.9917L1056.74 84.0054L1057.56 86.89ZM1066.49 81.855L1064.29 79.8226L1064.27 79.8385L1064.26 79.8546L1066.49 81.855ZM1071.15 73.685L1068.29 72.7902L1068.28 72.8175L1068.27 72.845L1071.15 73.685ZM1071.15 55.825L1068.26 56.6492L1068.27 56.6846L1068.29 56.7198L1071.15 55.825ZM1066.49 47.56L1064.26 49.5604L1064.27 49.5765L1064.29 49.5924L1066.49 47.56ZM1057.56 42.525L1056.74 45.4096L1056.79 45.4233L1056.84 45.4354L1057.56 42.525ZM1053.19 41.86L1052.95 44.8504L1053.01 44.8552L1053.07 44.8576L1053.19 41.86ZM1016.24 41.67V38.67H1013.24V41.67H1016.24ZM996.344 157V20.2H990.344V157H996.344ZM993.344 23.2H1049.87V17.2H993.344V23.2ZM1049.87 23.2C1051.11 23.2 1052.76 23.2597 1054.82 23.3845L1055.18 17.3955C1053.06 17.267 1051.28 17.2 1049.87 17.2V23.2ZM1054.91 23.3886C1056.87 23.4482 1058.66 23.6261 1060.27 23.9133L1061.32 18.0067C1059.38 17.6606 1057.3 17.4585 1055.09 17.3914L1054.91 23.3886ZM1060.34 23.9259C1067.86 25.0685 1073.86 27.5336 1078.5 31.1989L1082.22 26.4911C1076.6 22.0497 1069.56 19.2582 1061.24 17.9941L1060.34 23.9259ZM1078.52 31.2099C1083.29 34.9309 1086.8 39.625 1089.07 45.3443L1094.65 43.1257C1091.98 36.4316 1087.83 30.8658 1082.21 26.48L1078.52 31.2099ZM1089.09 45.3787C1091.45 51.1138 1092.66 57.5583 1092.66 64.755H1098.66C1098.66 56.8783 1097.33 49.6429 1094.63 43.0913L1089.09 45.3787ZM1092.66 64.755C1092.66 75.3718 1089.98 84.3458 1084.75 91.8183L1089.66 95.2617C1095.7 86.6475 1098.66 76.4315 1098.66 64.755H1092.66ZM1084.75 91.8092C1079.68 98.9983 1071.82 103.6 1060.79 105.399L1061.75 111.321C1074.02 109.32 1083.46 104.042 1089.65 95.2708L1084.75 91.8092ZM1061.01 105.371L1051.22 106.226L1051.74 112.204L1061.53 111.349L1061.01 105.371ZM1051.48 106.215H1016.24V112.215H1051.48V106.215ZM1013.24 109.215V157H1019.24V109.215H1013.24ZM1016.24 154H993.344V160H1016.24V154ZM1074.61 155.692L1047.63 100.022L1042.23 102.638L1069.21 158.308L1074.61 155.692ZM1045.57 104.26L1068.85 99.1297L1067.56 93.2703L1044.28 98.4003L1045.57 104.26ZM1065.51 97.5146L1095.15 158.315L1100.54 155.685L1070.9 94.8854L1065.51 97.5146ZM1097.84 154H1071.91V160H1097.84V154ZM1016.24 90.84H1048.92V84.84H1016.24V90.84ZM1048.92 90.84C1050.28 90.84 1051.79 90.772 1053.43 90.6404L1052.95 84.6596C1051.43 84.7814 1050.09 84.84 1048.92 84.84V90.84ZM1053.43 90.6404C1055.19 90.5002 1056.84 90.2165 1058.39 89.7746L1056.74 84.0054C1055.63 84.3235 1054.37 84.5464 1052.95 84.6596L1053.43 90.6404ZM1058.29 89.8004C1062.55 88.7362 1066.1 86.7971 1068.73 83.8554L1064.26 79.8546C1062.58 81.7262 1060.18 83.1438 1056.84 83.9796L1058.29 89.8004ZM1068.7 83.8874C1071.22 81.1522 1073.01 78.0241 1074.03 74.525L1068.27 72.845C1067.52 75.4259 1066.2 77.7445 1064.29 79.8226L1068.7 83.8874ZM1074.01 74.5798C1075.04 71.277 1075.57 67.9987 1075.57 64.755H1069.57C1069.57 67.338 1069.15 70.013 1068.29 72.7902L1074.01 74.5798ZM1075.57 64.755C1075.57 61.5113 1075.04 58.233 1074.01 54.9302L1068.29 56.7198C1069.15 59.497 1069.57 62.172 1069.57 64.755H1075.57ZM1074.03 55.0008C1073.02 51.441 1071.23 48.2737 1068.7 45.5276L1064.29 49.5924C1066.19 51.6597 1067.51 54.0023 1068.26 56.6492L1074.03 55.0008ZM1068.73 45.5596C1066.1 42.6179 1062.55 40.6788 1058.29 39.6146L1056.84 45.4354C1060.18 46.2712 1062.58 47.6888 1064.26 49.5604L1068.73 45.5596ZM1058.39 39.6404C1056.8 39.1862 1055.1 38.9339 1053.31 38.8624L1053.07 44.8576C1054.45 44.9127 1055.67 45.1038 1056.74 45.4096L1058.39 39.6404ZM1053.43 38.8696C1051.79 38.738 1050.28 38.67 1048.92 38.67V44.67C1050.09 44.67 1051.43 44.7286 1052.95 44.8504L1053.43 38.8696ZM1048.92 38.67H1016.24V44.67H1048.92V38.67ZM1013.24 41.67V87.84H1019.24V41.67H1013.24ZM1120.67 157H1117.67V160H1120.67V157ZM1120.67 20.2V17.2H1117.67V20.2H1120.67ZM1209.02 20.2H1212.02V17.2H1209.02V20.2ZM1209.02 41.67V44.67H1212.02V41.67H1209.02ZM1143.57 41.67V38.67H1140.57V41.67H1143.57ZM1143.57 75.395H1140.57V78.395H1143.57V75.395ZM1197.62 75.395H1200.62V72.395H1197.62V75.395ZM1197.62 96.865V99.865H1200.62V96.865H1197.62ZM1143.57 96.865V93.865H1140.57V96.865H1143.57ZM1143.57 135.53H1140.57V138.53H1143.57V135.53ZM1209.02 135.53H1212.02V132.53H1209.02V135.53ZM1209.02 157V160H1212.02V157H1209.02ZM1123.67 157V20.2H1117.67V157H1123.67ZM1120.67 23.2H1209.02V17.2H1120.67V23.2ZM1206.02 20.2V41.67H1212.02V20.2H1206.02ZM1209.02 38.67H1143.57V44.67H1209.02V38.67ZM1140.57 41.67V75.395H1146.57V41.67H1140.57ZM1143.57 78.395H1197.62V72.395H1143.57V78.395ZM1194.62 75.395V96.865H1200.62V75.395H1194.62ZM1197.62 93.865H1143.57V99.865H1197.62V93.865ZM1140.57 96.865V135.53H1146.57V96.865H1140.57ZM1143.57 138.53H1209.02V132.53H1143.57V138.53ZM1206.02 135.53V157H1212.02V135.53H1206.02ZM1209.02 154H1120.67V160H1209.02V154Z" fill="#3C4144" fill-opacity="0.25" mask="url(#path-1-outside-1_98_883)"/>
</svg>
