<svg width="22" height="16" viewBox="0 0 22 16" fill="none" xmlns="http://www.w3.org/2000/svg">
<g clip-path="url(#clip0_1_719)">
<path d="M14.3862 7.05119L9.52588 4.49903C9.24641 4.35227 8.91611 4.35775 8.64218 4.5135C8.36809 4.66942 8.20459 4.94489 8.20459 5.25062V10.3112C8.20459 10.6155 8.3671 10.8905 8.63935 11.0465C8.78149 11.128 8.9391 11.169 9.09705 11.169C9.24484 11.1688 9.39026 11.1333 9.52021 11.0657L14.3807 8.5575C14.5223 8.48447 14.6407 8.37609 14.7234 8.24382C14.8061 8.11155 14.8501 7.9603 14.8507 7.80604C14.8513 7.65173 14.8085 7.50013 14.7267 7.36725C14.645 7.23438 14.5273 7.12518 14.3862 7.05119ZM9.49382 9.67458V5.89239L13.1264 7.7999L9.49382 9.67458Z" fill="white"/>
<path d="M21.8381 3.77442L21.8371 3.76477C21.8185 3.59483 21.633 2.08325 20.8673 1.31439C19.9822 0.410059 18.9788 0.300203 18.4963 0.247544C18.4598 0.243682 18.4234 0.239489 18.387 0.234967L18.3485 0.231132C15.4402 0.0281632 11.0478 0.000451966 11.0038 0.000287018L11 0.00012207L10.9961 0.000287018C10.9521 0.000451966 6.55976 0.0281632 3.62513 0.231132L3.58637 0.234967C3.55513 0.239008 3.52072 0.242719 3.48329 0.246925C3.0063 0.299709 2.01364 0.40977 1.12608 1.34676C0.396772 2.10741 0.185968 3.58662 0.164312 3.75285L0.16182 3.77442C0.155245 3.84514 0 5.52864 0 7.21869V8.79856C0 10.4887 0.155245 12.1721 0.16182 12.243L0.16298 12.2536C0.181628 12.4208 0.366909 13.9047 1.12909 14.6739C1.9613 15.5479 3.01352 15.6636 3.5795 15.7258C3.66896 15.7356 3.746 15.7439 3.79851 15.7528L3.84938 15.7596C5.52868 15.9129 10.7938 15.9884 11.0171 15.9915L11.0238 15.9917L11.0305 15.9915C11.0745 15.9914 15.4667 15.9636 18.3751 15.7607L18.4135 15.7568C18.4503 15.7521 18.4916 15.748 18.5369 15.7434C19.0113 15.6951 19.9985 15.5948 20.8738 14.6705C21.6031 13.9097 21.8141 12.4305 21.8356 12.2644L21.8381 12.2428C21.8447 12.172 22.0001 10.4886 22.0001 8.79856V7.21869C21.9999 5.5286 21.8447 3.8453 21.8381 3.77442ZM20.7107 8.79856C20.7107 10.3628 20.5684 11.9738 20.5549 12.1217C20.5002 12.5291 20.2778 13.4649 19.9225 13.8356C19.3746 14.414 18.8119 14.4714 18.401 14.5131C18.3551 14.5176 18.3094 14.5226 18.2637 14.5279C15.4506 14.7232 11.224 14.7531 11.0293 14.7543C10.811 14.7512 5.62283 14.675 3.99475 14.5299C3.9113 14.5168 3.82115 14.5068 3.72619 14.4965C3.2443 14.4435 2.58465 14.371 2.07745 13.8356L2.0655 13.8234C1.71638 13.4743 1.50038 12.5991 1.44546 12.1265C1.43524 12.0148 1.28923 10.3847 1.28923 8.79856V7.21869C1.28923 5.65622 1.43124 4.04699 1.44499 3.89607C1.5103 3.41619 1.73688 2.53702 2.07745 2.18164C2.64205 1.58564 3.23743 1.51962 3.63119 1.47595C3.66879 1.47175 3.70385 1.46791 3.73625 1.46387C6.59031 1.26766 10.8472 1.23851 11 1.2374C11.1527 1.23834 15.4081 1.26766 18.2368 1.46387C18.2715 1.46808 18.3095 1.47224 18.3502 1.47678C18.7553 1.52106 19.3674 1.58807 19.9292 2.16312L19.9344 2.16844C20.2835 2.51751 20.4995 3.40799 20.5544 3.89009C20.5642 3.99561 20.7107 5.62913 20.7107 7.21869V8.79856Z" fill="white"/>
</g>
<defs>
<clipPath id="clip0_1_719">
<rect width="22" height="16" fill="white"/>
</clipPath>
</defs>
</svg>
