<?xml version="1.0" standalone="no"?>
<!DOCTYPE svg PUBLIC "-//W3C//DTD SVG 20010904//EN"
 "http://www.w3.org/TR/2001/REC-SVG-20010904/DTD/svg10.dtd">
<svg version="1.0" xmlns="http://www.w3.org/2000/svg"
 width="477.000000pt" height="477.000000pt" viewBox="0 0 477.000000 477.000000"
 preserveAspectRatio="xMidYMid meet">
<metadata>
Created by potrace 1.14, written by Peter Selinger 2001-2017
</metadata>
<g transform="translate(0.000000,477.000000) scale(0.100000,-0.100000)"
fill="#000000" stroke="none">
<path d="M2901 4128 c-17 -24 -34 -47 -38 -53 -5 -5 -42 -57 -82 -115 -41 -58
-80 -108 -85 -112 -6 -4 -8 -8 -3 -8 4 0 -1 -8 -10 -19 -10 -10 -85 -114 -168
-229 -82 -116 -152 -211 -155 -212 -8 0 -4 236 4 248 3 6 0 13 -6 15 -10 4
-10 6 0 6 10 1 10 6 2 21 -8 14 -8 26 0 40 8 14 8 26 -1 41 -6 12 -7 19 -2 16
6 -4 9 154 4 244 -1 14 -7 16 -38 9 -21 -5 -67 -12 -103 -15 -36 -3 -83 -9
-105 -11 -22 -3 -58 -7 -80 -9 -22 -3 -56 -7 -75 -10 -41 -6 -130 -16 -180
-20 -19 -2 -35 -4 -35 -5 0 -1 -11 -3 -25 -4 -67 -7 -158 -17 -185 -22 -16 -2
-50 -6 -75 -8 -25 -3 -45 -6 -45 -7 0 -1 -13 -3 -30 -4 -91 -8 -83 0 -81 -87
1 -43 -2 -78 -7 -78 -4 0 -5 -6 0 -12 12 -21 12 -38 0 -38 -8 0 -8 -3 -2 -8
16 -11 18 -44 3 -53 -8 -5 -9 -9 -2 -9 8 0 12 -36 12 -112 1 -62 3 -125 5
-140 2 -16 0 -28 -5 -28 -5 0 -6 -5 -2 -12 12 -20 12 -238 0 -231 -6 4 -5 0 1
-9 8 -9 12 -38 10 -76 -2 -34 0 -62 3 -62 3 0 6 -9 6 -20 0 -11 -3 -20 -7 -20
-4 0 -6 -8 -4 -17 2 -10 4 -18 5 -18 5 0 4 -87 -1 -91 -5 -3 -4 -49 1 -49 3 0
6 -121 14 -550 4 -176 8 -337 9 -357 1 -21 -1 -38 -6 -38 -4 0 -3 -10 4 -21 9
-17 8 -23 -2 -30 -8 -5 -9 -9 -4 -9 6 0 11 -62 13 -161 1 -89 5 -166 8 -170 3
-5 0 -9 -6 -9 -6 0 -8 -5 -4 -12 10 -16 11 -68 1 -68 -5 0 -5 -5 -1 -12 12
-19 13 -291 0 -308 -5 -8 -6 -12 -1 -7 4 4 17 0 27 -10 10 -9 18 -12 18 -7 0
6 17 11 38 12 20 2 49 5 64 7 21 4 26 2 22 -9 -3 -8 -1 -17 4 -20 5 -3 9 2 8
10 -1 17 15 23 70 28 17 2 36 6 42 10 7 4 12 1 12 -8 0 -9 4 -16 10 -16 5 0 7
8 3 18 -3 9 -3 14 2 10 4 -4 15 -3 25 2 11 6 24 4 39 -6 14 -10 21 -11 19 -3
-2 6 3 14 11 17 10 3 11 0 5 -9 -7 -12 -5 -12 9 0 9 7 44 15 77 16 33 2 65 7
71 11 8 5 9 3 4 -7 -7 -11 -6 -12 6 -2 8 7 24 12 34 11 11 0 29 3 39 7 14 6
17 5 12 -3 -10 -17 3 -15 21 3 12 12 18 13 29 4 8 -6 14 -8 14 -3 0 10 48 16
69 8 11 -4 11 -7 0 -22 -13 -15 -12 -16 3 -3 10 7 15 17 12 22 -6 11 27 19 93
22 29 1 53 7 54 12 1 6 1 34 0 63 0 34 4 52 12 52 8 0 9 3 1 8 -16 11 -12 65
5 80 14 11 14 11 -1 6 -13 -4 -17 0 -16 18 1 12 5 28 10 35 5 6 5 14 0 17 -11
6 -9 77 3 95 6 10 4 12 -6 6 -11 -7 -12 -6 -2 7 7 8 10 18 6 22 -4 3 -7 15 -8
26 -2 19 -1 19 19 3 52 -45 131 -127 129 -134 -2 -5 4 -6 12 -3 17 7 20 -7 4
-23 -8 -8 -7 -13 2 -18 7 -5 10 -4 5 3 -16 27 14 17 54 -18 40 -35 43 -40 30
-57 -12 -15 -12 -16 0 -5 14 12 39 18 27 5 -4 -3 3 -11 16 -18 12 -6 21 -17
19 -24 -1 -7 2 -10 7 -7 5 4 16 -3 24 -14 7 -11 17 -17 20 -13 6 6 11 -11 8
-30 0 -4 4 -6 11 -5 7 2 12 -2 13 -9 0 -6 4 -15 9 -20 5 -5 6 -3 2 5 -11 19 9
14 27 -6 10 -10 14 -22 10 -26 -5 -4 -3 -6 2 -4 6 1 28 -15 50 -36 22 -21 32
-36 22 -33 -11 4 -16 3 -12 -4 4 -6 13 -8 21 -5 17 7 76 -52 67 -67 -3 -6 -1
-7 5 -3 7 4 23 -4 37 -18 14 -15 22 -26 18 -26 -9 0 31 -22 61 -33 16 -6 17
-5 6 8 -9 11 -9 15 -1 15 7 0 9 4 6 10 -3 5 -1 10 5 10 6 0 8 4 5 10 -6 10 3
13 37 13 10 0 15 4 12 8 -3 5 -10 7 -15 4 -5 -4 -9 1 -9 10 0 11 5 15 14 12
10 -4 12 0 9 14 -3 10 -1 19 5 19 6 0 14 10 18 22 3 12 16 30 28 40 11 9 17
17 13 18 -4 0 -2 6 5 14 7 7 20 11 28 9 12 -4 13 -3 1 5 -15 11 -6 36 10 27 5
-3 6 0 4 7 -3 8 4 23 15 35 11 12 20 25 20 29 0 15 64 103 72 98 5 -3 8 -2 7
3 -4 21 2 34 13 27 6 -4 8 -3 5 3 -6 10 37 81 57 95 6 4 7 8 3 8 -9 0 43 73
56 78 4 2 5 8 1 13 -3 5 2 12 10 15 9 3 16 15 16 25 0 11 7 22 15 25 22 9 18
37 -7 59 -13 11 -68 58 -123 104 -55 47 -109 93 -120 102 -11 10 -42 37 -70
60 -27 22 -61 51 -75 63 -14 11 -60 50 -103 86 -42 35 -77 68 -77 72 0 4 -5 8
-11 8 -6 0 -16 6 -23 13 -8 6 -35 31 -62 54 -27 23 -60 52 -74 64 -14 11 -40
33 -57 46 -18 14 -30 30 -26 36 3 5 1 7 -4 4 -6 -4 -16 0 -22 7 -13 16 2 32
19 21 5 -3 7 0 5 8 -6 14 46 67 66 67 5 0 7 5 4 10 -6 10 5 13 35 11 12 0 12
1 1 6 -10 4 5 23 49 64 35 32 67 56 71 53 5 -3 6 3 2 12 -4 11 -3 15 5 10 6
-3 13 3 17 15 4 11 9 18 12 16 2 -3 29 19 59 49 31 30 60 54 65 54 6 0 7 5 4
10 -6 9 8 14 28 11 5 -1 6 2 3 7 -6 10 30 43 38 35 3 -4 6 -1 6 5 0 19 134
145 144 135 3 -4 6 -1 6 6 0 16 26 42 34 34 3 -4 6 1 6 10 0 23 33 39 50 24
12 -10 12 -9 2 3 -9 13 -2 25 43 68 29 29 62 52 72 52 14 0 15 2 4 9 -10 6 -5
12 17 22 20 9 28 18 24 28 -5 14 -4 14 13 1 10 -8 16 -10 12 -3 -5 7 11 30 37
57 l44 46 -36 39 c-21 22 -44 48 -52 59 -13 17 -63 76 -117 138 -18 22 -75 89
-112 134 -11 14 -29 34 -39 45 -10 11 -52 61 -93 110 -40 50 -91 110 -114 135
-22 25 -58 67 -80 94 -43 53 -64 76 -70 76 -2 0 -17 -19 -34 -42z"/>
<path d="M3470 3146 c0 -2 8 -10 18 -17 15 -13 16 -12 3 4 -13 16 -21 21 -21
13z"/>
<path d="M3353 3035 c0 -8 4 -12 9 -9 5 3 6 10 3 15 -9 13 -12 11 -12 -6z"/>
<path d="M3310 2989 c0 -5 5 -7 10 -4 6 3 10 8 10 11 0 2 -4 4 -10 4 -5 0 -10
-5 -10 -11z"/>
<path d="M3175 2830 c3 -5 8 -10 11 -10 2 0 4 5 4 10 0 6 -5 10 -11 10 -5 0
-7 -4 -4 -10z"/>
<path d="M2930 2629 c0 -5 5 -7 10 -4 6 3 10 8 10 11 0 2 -4 4 -10 4 -5 0 -10
-5 -10 -11z"/>
<path d="M2856 2568 c3 -5 10 -6 15 -3 13 9 11 12 -6 12 -8 0 -12 -4 -9 -9z"/>
<path d="M2816 2528 c3 -5 10 -6 15 -3 13 9 11 12 -6 12 -8 0 -12 -4 -9 -9z"/>
<path d="M2766 2468 c3 -5 10 -6 15 -3 13 9 11 12 -6 12 -8 0 -12 -4 -9 -9z"/>
<path d="M2706 2429 c2 -4 13 -7 24 -6 23 2 17 10 -10 12 -10 1 -17 -2 -14 -6z"/>
<path d="M2350 1471 c0 -6 4 -13 10 -16 6 -3 7 1 4 9 -7 18 -14 21 -14 7z"/>
<path d="M2335 1441 c-3 -5 -2 -12 3 -15 5 -3 9 1 9 9 0 17 -3 19 -12 6z"/>
<path d="M2500 1336 c0 -2 8 -10 18 -17 15 -13 16 -12 3 4 -13 16 -21 21 -21
13z"/>
<path d="M3293 1225 c0 -8 4 -12 9 -9 5 3 6 10 3 15 -9 13 -12 11 -12 -6z"/>
<path d="M2645 1150 c-3 -6 1 -7 9 -4 18 7 21 14 7 14 -6 0 -13 -4 -16 -10z"/>
<path d="M2730 1069 c0 -5 5 -7 10 -4 6 3 10 8 10 11 0 2 -4 4 -10 4 -5 0 -10
-5 -10 -11z"/>
<path d="M2186 1051 c-3 -4 6 -7 19 -7 14 0 22 2 19 5 -8 8 -34 10 -38 2z"/>
<path d="M2276 1048 c3 -5 10 -6 15 -3 13 9 11 12 -6 12 -8 0 -12 -4 -9 -9z"/>
<path d="M2113 1035 c0 -8 4 -12 9 -9 5 3 6 10 3 15 -9 13 -12 11 -12 -6z"/>
<path d="M1840 1010 c-9 -6 -10 -10 -3 -10 6 0 15 5 18 10 8 12 4 12 -15 0z"/>
<path d="M1953 1003 c0 -9 4 -10 14 -2 7 6 13 12 13 14 0 1 -6 2 -13 2 -8 0
-14 -6 -14 -14z"/>
<path d="M1713 975 c0 -8 4 -12 9 -9 5 3 6 10 3 15 -9 13 -12 11 -12 -6z"/>
<path d="M2036 977 c3 -10 9 -15 12 -12 3 3 0 11 -7 18 -10 9 -11 8 -5 -6z"/>
<path d="M1855 970 c3 -5 8 -10 11 -10 2 0 4 5 4 10 0 6 -5 10 -11 10 -5 0 -7
-4 -4 -10z"/>
<path d="M1775 961 c-3 -5 -2 -12 3 -15 5 -3 9 1 9 9 0 17 -3 19 -12 6z"/>
<path d="M1466 948 c3 -4 9 -8 15 -8 5 0 9 4 9 8 0 5 -7 9 -15 9 -8 0 -12 -4
-9 -9z"/>
<path d="M1587 949 c7 -7 15 -10 18 -7 3 3 -2 9 -12 12 -14 6 -15 5 -6 -5z"/>
<path d="M1395 930 c3 -5 8 -10 11 -10 2 0 4 5 4 10 0 6 -5 10 -11 10 -5 0 -7
-4 -4 -10z"/>
<path d="M1430 931 c0 -6 4 -13 10 -16 6 -3 7 1 4 9 -7 18 -14 21 -14 7z"/>
<path d="M1510 929 c0 -5 5 -7 10 -4 6 3 10 8 10 11 0 2 -4 4 -10 4 -5 0 -10
-5 -10 -11z"/>
<path d="M1550 930 c0 -5 5 -10 11 -10 5 0 7 5 4 10 -3 6 -8 10 -11 10 -2 0
-4 -4 -4 -10z"/>
<path d="M2886 932 c-3 -5 1 -9 9 -9 8 0 12 4 9 9 -3 4 -7 8 -9 8 -2 0 -6 -4
-9 -8z"/>
<path d="M2920 936 c0 -2 8 -10 18 -17 15 -13 16 -12 3 4 -13 16 -21 21 -21
13z"/>
<path d="M1465 910 c-3 -6 1 -7 9 -4 18 7 21 14 7 14 -6 0 -13 -4 -16 -10z"/>
</g>
</svg>
